<svg width="1604" height="1141" viewBox="0 0 1604 1141" fill="none" xmlns="http://www.w3.org/2000/svg">
<path d="M1608 -3H323V797H1508C1563.23 797 1608 752.228 1608 697V-3Z" fill="url(#paint0_linear)"/>
<mask id="mask0" mask-type="alpha" maskUnits="userSpaceOnUse" x="323" y="-3" width="1285" height="800">
<path d="M1608 -3H323V797H1508C1563.23 797 1608 752.228 1608 697V-3Z" fill="url(#paint1_linear)"/>
</mask>
<g mask="url(#mask0)">
<path d="M1648.57 341.525H1637.74C1635.5 341.525 1633.68 343.343 1633.68 345.586V589.864C1633.68 592.948 1631.18 595.448 1628.09 595.448C1625.01 595.448 1622.51 592.948 1622.51 589.864V433.796C1622.51 428.273 1618.03 423.796 1612.51 423.796H1602.05C1596.53 423.796 1592.05 428.273 1592.05 433.796V443.59C1592.05 449.113 1587.57 453.59 1582.05 453.59H1516.07C1511.86 453.59 1508.45 457 1508.45 461.207V465.441C1508.45 467.31 1506.94 468.825 1505.07 468.825C1503.2 468.825 1501.68 470.34 1501.68 472.21V526.553C1501.68 531.133 1497.97 534.845 1493.39 534.845C1488.81 534.845 1485.1 538.558 1485.1 543.137V579.354C1485.1 584.877 1480.62 589.354 1475.1 589.354H1474.11C1468.59 589.354 1464.11 593.831 1464.11 599.354V652.329C1464.11 654.385 1462.45 656.052 1460.39 656.052C1458.33 656.052 1456.67 654.385 1456.67 652.329V345.248C1456.67 343.566 1455.3 342.202 1453.62 342.202C1451.94 342.202 1450.57 340.838 1450.57 339.156V312.237C1450.57 309.34 1448.23 306.991 1445.33 306.991C1442.43 306.991 1440.08 304.642 1440.08 301.745V275.673C1440.08 273.71 1438.49 272.119 1436.53 272.119C1434.57 272.119 1432.98 270.528 1432.98 268.565V247.247C1432.98 241.724 1428.5 237.247 1422.98 237.247H1397.62C1392.1 237.247 1387.62 241.724 1387.62 247.247V268.565C1387.62 270.528 1386.03 272.119 1384.07 272.119C1382.11 272.119 1380.51 273.71 1380.51 275.673V301.745C1380.51 304.642 1378.17 306.991 1375.27 306.991C1372.37 306.991 1370.02 309.34 1370.02 312.237V339.325C1370.02 340.727 1368.89 341.863 1367.48 341.863C1366.08 341.863 1364.95 343 1364.95 344.402V553.638C1364.95 556.909 1362.29 559.561 1359.02 559.561C1355.75 559.561 1353.1 562.212 1353.1 565.484V648.775C1353.1 652.794 1349.84 656.052 1345.82 656.052H1339.22C1338.85 656.052 1338.55 655.748 1338.55 655.374C1338.55 655 1338.24 654.697 1337.87 654.697H1335.67C1335.02 654.697 1334.49 654.167 1334.49 653.512C1334.49 652.858 1335.02 652.327 1335.67 652.327H1336.85C1337.79 652.327 1338.55 651.569 1338.55 650.635C1338.55 649.7 1337.79 648.942 1336.85 648.942H1335.84C1335.09 648.942 1334.49 648.335 1334.49 647.587C1334.49 646.84 1335.09 646.233 1335.84 646.233H1336.85C1337.79 646.233 1338.55 645.475 1338.55 644.54C1338.55 643.605 1337.79 642.848 1336.85 642.848H1335.67C1335.02 642.848 1334.49 642.317 1334.49 641.663C1334.49 641.008 1335.02 640.478 1335.67 640.478H1336.85C1337.79 640.478 1338.55 639.72 1338.55 638.785C1338.55 637.85 1337.79 637.092 1336.85 637.092H1335.67C1335.02 637.092 1334.49 636.561 1334.49 635.907C1334.49 635.253 1335.02 634.722 1335.67 634.722H1336.85C1337.79 634.722 1338.55 633.964 1338.55 633.029C1338.55 632.094 1337.79 631.336 1336.85 631.336H1335.67C1335.02 631.336 1334.49 630.806 1334.49 630.151C1334.49 629.497 1335.02 628.966 1335.67 628.966H1336.85C1337.79 628.966 1338.55 628.208 1338.55 627.274C1338.55 626.339 1337.79 625.581 1336.85 625.581H1335.67C1335.02 625.581 1334.49 625.05 1334.49 624.396C1334.49 623.741 1335.02 623.211 1335.67 623.211H1336.85C1337.79 623.211 1338.55 622.453 1338.55 621.518C1338.55 620.583 1337.79 619.825 1336.85 619.825H1335.67C1335.02 619.825 1334.49 619.295 1334.49 618.64C1334.49 617.986 1335.02 617.455 1335.67 617.455H1336.85C1337.79 617.455 1338.55 616.697 1338.55 615.762C1338.55 614.827 1337.79 614.07 1336.85 614.07H1335.67C1335.02 614.07 1334.49 613.539 1334.49 612.885C1334.49 612.23 1335.02 611.7 1335.67 611.7H1336.85C1337.79 611.7 1338.55 610.942 1338.55 610.007C1338.55 609.072 1337.79 608.314 1336.85 608.314H1335.67C1335.02 608.314 1334.49 607.783 1334.49 607.129C1334.49 606.475 1335.02 605.944 1335.67 605.944H1336.85C1337.79 605.944 1338.55 605.186 1338.55 604.251C1338.55 603.316 1337.79 602.558 1336.85 602.558H1335.67C1335.02 602.558 1334.49 602.028 1334.49 601.373C1334.49 600.719 1335.02 600.188 1335.67 600.188H1336.85C1337.79 600.188 1338.55 599.43 1338.55 598.496C1338.55 597.561 1337.79 596.803 1336.85 596.803H1336.52C1335.39 596.803 1334.49 595.893 1334.49 594.772V594.094C1334.49 592.972 1335.39 592.063 1336.52 592.063H1336.85C1337.79 592.063 1338.55 591.305 1338.55 590.37C1338.55 589.435 1337.79 588.677 1336.85 588.677H1335.67C1335.02 588.677 1334.49 588.147 1334.49 587.492C1334.49 586.838 1335.02 586.307 1335.67 586.307H1336.85C1337.79 586.307 1338.55 585.549 1338.55 584.614C1338.55 583.679 1337.79 582.922 1336.85 582.922H1335.67C1335.02 582.922 1334.49 582.391 1334.49 581.737C1334.49 581.082 1335.02 580.552 1335.67 580.552H1336.85C1337.79 580.552 1338.55 579.794 1338.55 578.859C1338.55 577.924 1337.79 577.166 1336.85 577.166H1335.67C1335.02 577.166 1334.49 576.635 1334.49 575.981C1334.49 575.327 1335.02 574.796 1335.67 574.796H1336.85C1337.79 574.796 1338.55 574.038 1338.55 573.103C1338.55 572.168 1337.79 571.41 1336.85 571.41H1335.67C1335.02 571.41 1334.49 570.88 1334.49 570.225C1334.49 569.571 1335.02 569.04 1335.67 569.04H1336.85C1337.79 569.04 1338.55 568.282 1338.55 567.348C1338.55 566.413 1337.79 565.655 1336.85 565.655H1335.67C1335.02 565.655 1334.49 565.124 1334.49 564.47C1334.49 563.815 1335.02 563.285 1335.67 563.285H1336.85C1337.79 563.285 1338.55 562.527 1338.55 561.592C1338.55 560.657 1337.79 559.899 1336.85 559.899H1335.67C1335.02 559.899 1334.49 559.369 1334.49 558.714C1334.49 558.06 1335.02 557.529 1335.67 557.529H1336.85C1337.79 557.529 1338.55 556.771 1338.55 555.836C1338.55 554.901 1337.79 554.144 1336.85 554.144H1335.67C1335.02 554.144 1334.49 553.613 1334.49 552.959C1334.49 552.304 1335.02 551.774 1335.67 551.774H1336.85C1337.79 551.774 1338.55 551.016 1338.55 550.081C1338.55 549.146 1337.79 548.388 1336.85 548.388H1335.67C1335.02 548.388 1334.49 547.857 1334.49 547.203C1334.49 546.548 1335.02 546.018 1335.67 546.018H1336.85C1337.79 546.018 1338.55 545.26 1338.55 544.325C1338.55 543.39 1337.79 542.632 1336.85 542.632H1335.67C1335.02 542.632 1334.49 542.102 1334.49 541.447C1334.49 540.793 1335.02 540.262 1335.67 540.262H1336.85C1337.79 540.262 1338.55 539.504 1338.55 538.57C1338.55 537.635 1337.79 536.877 1336.85 536.877H1335.67C1335.02 536.877 1334.49 536.346 1334.49 535.692C1334.49 535.037 1335.02 534.507 1335.67 534.507H1336.85C1337.79 534.507 1338.55 533.749 1338.55 532.814C1338.55 531.879 1337.79 531.121 1336.85 531.121H1335.67C1335.02 531.121 1334.49 530.591 1334.49 529.936C1334.49 529.282 1335.02 528.751 1335.67 528.751H1336.85C1337.79 528.751 1338.55 527.993 1338.55 527.058C1338.55 526.123 1337.79 525.366 1336.85 525.366H1335.67C1335.02 525.366 1334.49 524.835 1334.49 524.181C1334.49 523.526 1335.02 522.996 1335.67 522.996H1336.85C1337.79 522.996 1338.55 522.238 1338.55 521.303C1338.55 520.368 1337.79 519.61 1336.85 519.61H1336.52C1335.39 519.61 1334.49 518.701 1334.49 517.579V516.224C1334.49 515.102 1335.39 514.193 1336.52 514.193H1336.85C1337.79 514.193 1338.55 513.435 1338.55 512.5C1338.55 511.565 1337.79 510.807 1336.85 510.807H1335.67C1335.02 510.807 1334.49 510.277 1334.49 509.622C1334.49 508.968 1335.02 508.437 1335.67 508.437H1336.85C1337.79 508.437 1338.55 507.679 1338.55 506.744C1338.55 505.81 1337.79 505.052 1336.85 505.052H1335.67C1335.02 505.052 1334.49 504.521 1334.49 503.867C1334.49 503.212 1335.02 502.682 1335.67 502.682H1336.85C1337.79 502.682 1338.55 501.924 1338.55 500.989C1338.55 500.054 1337.79 499.296 1336.85 499.296H1335.67C1335.02 499.296 1334.49 498.765 1334.49 498.111C1334.49 497.457 1335.02 496.926 1335.67 496.926H1336.85C1337.79 496.926 1338.55 496.168 1338.55 495.233C1338.55 494.298 1337.79 493.54 1336.85 493.54H1336.52C1335.39 493.54 1334.49 492.631 1334.49 491.51V489.308C1334.49 488.467 1333.8 487.785 1332.96 487.785C1332.12 487.785 1331.44 487.103 1331.44 486.262V484.061C1331.44 482.004 1329.77 480.336 1327.72 480.336H1327.38C1325.13 480.336 1323.32 478.518 1323.32 476.275V465.438C1323.32 463.756 1321.95 462.392 1320.27 462.392C1318.59 462.392 1317.22 461.029 1317.22 459.346V447.761C1317.22 443.06 1313.95 438.994 1309.36 437.991L1298.61 435.646C1296.03 435.051 1294.21 432.758 1294.21 430.114V398.572C1294.21 397.918 1293.68 397.388 1293.02 397.388C1292.37 397.388 1291.84 397.918 1291.84 398.572V430.473C1291.84 432.429 1290.02 433.879 1288.12 433.445C1286.21 433.012 1284.39 434.461 1284.39 436.417V459.854C1284.39 461.256 1283.26 462.392 1281.86 462.392C1280.45 462.392 1279.32 463.529 1279.32 464.931V476.275C1279.32 478.518 1277.5 480.336 1275.26 480.336H1274.41C1272.63 480.336 1271.19 481.776 1271.19 483.553V485.246C1271.19 486.087 1270.51 486.769 1269.67 486.769C1268.83 486.769 1268.15 487.451 1268.15 488.292V489.647C1268.15 491.236 1266.86 492.525 1265.27 492.525H1235.5C1229.98 492.525 1225.5 497.002 1225.5 502.525V520.105C1225.5 525.628 1221.03 530.105 1215.5 530.105H1190.83C1189.59 530.105 1188.36 530.337 1187.2 530.788L1156.8 542.632C1155.78 543.041 1155.11 544.031 1155.11 545.132V556.853C1155.11 558.348 1156.32 559.561 1157.81 559.561H1158.49C1159.61 559.561 1160.52 560.47 1160.52 561.592C1160.52 562.714 1159.61 563.623 1158.49 563.623H1157.14C1156.01 563.623 1155.11 564.533 1155.11 565.655C1155.11 566.777 1156.01 567.686 1157.14 567.686H1158.49C1159.61 567.686 1160.52 568.596 1160.52 569.718C1160.52 570.839 1159.61 571.749 1158.49 571.749H1157.14C1156.01 571.749 1155.11 572.658 1155.11 573.78C1155.11 574.902 1156.01 575.812 1157.14 575.812H1158.49C1159.61 575.812 1160.52 576.721 1160.52 577.843C1160.52 578.965 1159.61 579.874 1158.49 579.874H1157.14C1156.01 579.874 1155.11 580.784 1155.11 581.906C1155.11 583.028 1156.01 583.937 1157.14 583.937H1158.49C1159.61 583.937 1160.52 584.847 1160.52 585.969C1160.52 587.091 1159.61 588 1158.49 588H1157.14C1156.01 588 1155.11 588.91 1155.11 590.031C1155.11 591.153 1156.01 592.063 1157.14 592.063H1159C1159.84 592.063 1160.52 592.745 1160.52 593.586C1160.52 594.428 1159.84 595.11 1159 595.11H1128.22C1124.04 595.11 1120.3 592.507 1118.84 588.585L1110.79 566.855C1109.39 563.076 1104.04 563.082 1102.65 566.865C1100.95 571.477 1093.83 570.154 1093.84 565.24C1093.85 561.879 1093.85 558.519 1093.85 555.159C1093.85 550.419 1093.85 545.679 1093.85 540.939C1093.85 527.397 1093.85 513.854 1093.51 500.312C1093.51 494.556 1093.17 488.462 1093.17 482.706C1092.83 470.179 1092.49 457.652 1091.81 444.787C1091.48 438.693 1091.48 432.599 1091.14 426.504C1090.46 414.655 1090.12 403.143 1089.45 391.294C1089.45 389.939 1089.11 388.585 1089.11 387.231C1088.43 376.735 1087.75 366.578 1087.08 356.083C1085.72 337.123 1084.03 318.164 1082.34 299.204C1082.21 297.475 1082.05 295.701 1081.87 293.915C1081.34 288.695 1076.92 284.646 1071.67 284.646H1008.25C1003.4 284.646 999.078 288.256 999.078 293.11C998.74 297.173 998.401 301.235 998.063 305.298C997.724 308.684 997.386 312.408 997.047 315.794C996.371 322.226 996.032 328.659 995.355 335.092C995.017 338.139 995.017 340.848 994.678 343.895C994.34 349.312 994.001 354.729 993.325 360.146C992.986 362.516 992.986 364.886 992.986 366.917C992.648 374.027 991.971 381.137 991.632 387.908C991.632 390.278 991.294 392.648 991.294 395.018C990.955 402.466 990.617 409.576 990.278 417.025C990.278 418.717 989.94 420.072 989.94 421.765C989.602 428.536 989.263 435.646 988.925 442.417C988.925 443.771 988.925 445.126 988.925 446.48C988.586 454.267 988.248 462.054 988.248 469.841C988.248 471.534 988.248 472.888 988.248 474.581C987.909 482.706 987.909 490.832 987.571 498.619V499.635C987.571 507.76 987.233 515.886 987.233 523.673C987.233 524.688 987.233 525.704 987.233 526.72C987.233 534.845 987.233 542.971 987.233 551.096C987.233 552.112 987.233 553.466 987.233 554.482C987.233 556.894 987.233 559.307 987.233 561.763C987.233 565.782 983.975 569.04 979.956 569.04C975.937 569.04 972.679 572.298 972.679 576.317V657.578C972.679 662.344 968.815 666.208 964.048 666.208H956.264C955.797 666.208 955.418 665.83 955.418 665.362C955.418 664.895 955.797 664.516 956.264 664.516H956.941C957.782 664.516 958.464 663.834 958.464 662.993V662.315C958.464 661.473 957.782 660.792 956.941 660.792C956.1 660.792 955.418 660.11 955.418 659.268V657.913C955.418 657.072 956.1 656.39 956.941 656.39C957.782 656.39 958.464 655.708 958.464 654.867V654.189C958.464 653.348 957.782 652.666 956.941 652.666C956.1 652.666 955.418 651.984 955.418 651.143V649.449C955.418 648.608 956.1 647.926 956.941 647.926C957.782 647.926 958.464 647.244 958.464 646.403V645.725C958.464 644.884 957.782 644.202 956.941 644.202C956.1 644.202 955.418 643.52 955.418 642.679V640.985C955.418 640.144 956.1 639.462 956.941 639.462C957.782 639.462 958.464 638.78 958.464 637.939V637.261C958.464 636.42 957.782 635.738 956.941 635.738C956.1 635.738 955.418 635.056 955.418 634.215V632.521C955.418 631.68 956.1 630.998 956.941 630.998C957.782 630.998 958.464 630.316 958.464 629.475V628.797C958.464 627.955 957.782 627.274 956.941 627.274C956.1 627.274 955.418 626.592 955.418 625.75V624.057C955.418 623.216 956.1 622.534 956.941 622.534C957.782 622.534 958.464 621.852 958.464 621.011V620.332C958.464 619.491 957.782 618.809 956.941 618.809C956.1 618.809 955.418 618.128 955.418 617.286V615.593C955.418 614.751 956.1 614.07 956.941 614.07C957.782 614.07 958.464 613.388 958.464 612.546V611.868C958.464 611.027 957.782 610.345 956.941 610.345C956.1 610.345 955.418 609.663 955.418 608.822V607.128C955.418 606.287 956.1 605.605 956.941 605.605C957.782 605.605 958.464 604.923 958.464 604.082V603.404C958.464 602.563 957.782 601.881 956.941 601.881C956.1 601.881 955.418 601.199 955.418 600.358V598.664C955.418 597.823 956.1 597.141 956.941 597.141C957.782 597.141 958.464 596.459 958.464 595.618V594.94C958.464 594.099 957.782 593.417 956.941 593.417C956.1 593.417 955.418 592.735 955.418 591.894V590.2C955.418 589.359 956.1 588.677 956.941 588.677C957.782 588.677 958.464 587.995 958.464 587.154V586.476C958.464 585.635 957.782 584.953 956.941 584.953C956.1 584.953 955.418 584.271 955.418 583.43V581.736C955.418 580.895 956.1 580.213 956.941 580.213C957.782 580.213 958.464 579.531 958.464 578.69V576.658C958.464 575.816 957.782 575.135 956.941 575.135C956.1 575.135 955.418 574.453 955.418 573.611V571.918C955.418 571.077 956.1 570.395 956.941 570.395C957.782 570.395 958.464 569.713 958.464 568.872V568.194C958.464 567.352 957.782 566.67 956.941 566.67C956.1 566.67 955.418 565.989 955.418 565.147V563.115C955.418 562.274 956.1 561.592 956.941 561.592C957.782 561.592 958.464 560.91 958.464 560.069V559.391C958.464 558.55 957.782 557.868 956.941 557.868C956.1 557.868 955.418 557.186 955.418 556.345V554.651C955.418 553.81 956.1 553.128 956.941 553.128C957.782 553.128 958.464 552.446 958.464 551.605V550.927C958.464 550.086 957.782 549.404 956.941 549.404C956.1 549.404 955.418 548.722 955.418 547.881V546.187C955.418 545.346 956.1 544.664 956.941 544.664C957.782 544.664 958.464 543.982 958.464 543.141V542.463C958.464 541.621 957.782 540.939 956.941 540.939C956.1 540.939 955.418 540.258 955.418 539.416V537.723C955.418 536.882 956.1 536.2 956.941 536.2C957.782 536.2 958.464 535.518 958.464 534.677V533.998C958.464 533.157 957.782 532.475 956.941 532.475C956.1 532.475 955.418 531.793 955.418 530.952V529.259C955.418 528.417 956.1 527.735 956.941 527.735C957.782 527.735 958.464 527.054 958.464 526.212V525.534C958.464 524.693 957.782 524.011 956.941 524.011C956.1 524.011 955.418 523.329 955.418 522.488V520.794C955.418 519.953 956.1 519.271 956.941 519.271C957.782 519.271 958.464 518.589 958.464 517.748V517.07C958.464 516.229 957.782 515.547 956.941 515.547C956.1 515.547 955.418 514.865 955.418 514.024V512.33C955.418 511.489 956.1 510.807 956.941 510.807C957.782 510.807 958.464 510.125 958.464 509.284V508.606C958.464 507.765 957.782 507.083 956.941 507.083C956.1 507.083 955.418 506.401 955.418 505.56V503.866C955.418 503.025 956.1 502.343 956.941 502.343C957.782 502.343 958.464 501.661 958.464 500.82V498.788C958.464 497.947 957.782 497.265 956.941 497.265C956.1 497.265 955.418 496.583 955.418 495.742V494.048C955.418 493.207 956.1 492.525 956.941 492.525C957.782 492.525 958.464 491.843 958.464 491.002V490.324C958.464 489.482 957.782 488.8 956.941 488.8C956.1 488.8 955.418 488.119 955.418 487.277V485.584C955.418 484.742 956.1 484.061 956.941 484.061C957.782 484.061 958.464 483.379 958.464 482.537V481.859C958.464 481.018 957.782 480.336 956.941 480.336C956.1 480.336 955.418 479.654 955.418 478.813V477.12C955.418 476.278 956.1 475.596 956.941 475.596C957.782 475.596 958.464 474.915 958.464 474.073V473.395C958.464 472.554 957.782 471.872 956.941 471.872C956.1 471.872 955.418 471.19 955.418 470.349V464.931C955.418 464.09 956.1 463.408 956.941 463.408C957.782 463.408 958.464 462.726 958.464 461.885V460.869C958.464 459.466 957.327 458.33 955.925 458.33H951.019C949.71 458.33 948.649 457.269 948.649 455.96V455.402C948.649 454.401 949.46 453.59 950.461 453.59C951.951 453.59 952.805 451.893 951.917 450.697L939.776 434.337C938.331 432.392 936.051 431.244 933.628 431.244H933.421C929.307 431.244 925.972 427.91 925.972 423.796C925.972 423.048 925.295 422.174 925.295 421.426V401.958C925.295 401.304 924.765 400.774 924.111 400.774C923.457 400.774 922.926 401.304 922.926 401.958V421.479C922.926 422.198 922.25 423.077 922.25 423.796C922.25 427.91 918.915 431.244 914.801 431.244H914.594C912.171 431.244 909.891 432.392 908.446 434.338L895.634 451.601C895.024 452.423 895.611 453.59 896.635 453.59C897.323 453.59 897.881 454.148 897.881 454.836V455.96C897.881 457.269 896.82 458.33 895.511 458.33H890.605C889.203 458.33 888.066 459.466 888.066 460.869V461.547C888.066 462.575 888.899 463.408 889.927 463.408C890.955 463.408 891.789 464.242 891.789 465.27V470.011C891.789 471.039 890.955 471.872 889.927 471.872C888.899 471.872 888.066 472.706 888.066 473.734C888.066 474.762 888.899 475.596 889.927 475.596C890.955 475.596 891.789 476.43 891.789 477.458V478.475C891.789 479.503 890.955 480.336 889.927 480.336C888.899 480.336 888.066 481.17 888.066 482.198C888.066 483.227 888.899 484.061 889.927 484.061C890.955 484.061 891.789 484.894 891.789 485.922V486.939C891.789 487.967 890.955 488.8 889.927 488.8C888.899 488.8 888.066 489.634 888.066 490.663C888.066 491.691 888.899 492.525 889.927 492.525C890.955 492.525 891.789 493.358 891.789 494.386V495.403C891.789 496.431 890.955 497.265 889.927 497.265C888.899 497.265 888.066 498.099 888.066 499.127C888.066 500.155 888.899 500.989 889.927 500.989C890.955 500.989 891.789 501.822 891.789 502.85V503.867C891.789 504.895 890.955 505.729 889.927 505.729C888.899 505.729 888.066 506.563 888.066 507.591C888.066 508.619 888.899 509.453 889.927 509.453C890.955 509.453 891.789 510.286 891.789 511.314V512.331C891.789 513.359 890.955 514.193 889.927 514.193C888.899 514.193 888.066 515.027 888.066 516.055C888.066 517.083 888.899 517.917 889.927 517.917C890.955 517.917 891.789 518.75 891.789 519.779V520.795C891.789 521.824 890.955 522.657 889.927 522.657C888.899 522.657 888.066 523.491 888.066 524.519C888.066 525.547 888.899 526.381 889.927 526.381C890.955 526.381 891.789 527.215 891.789 528.243V529.26C891.789 530.288 890.955 531.121 889.927 531.121C888.899 531.121 888.066 531.955 888.066 532.983C888.066 534.011 888.899 534.845 889.927 534.845C890.955 534.845 891.789 535.679 891.789 536.707V537.724C891.789 538.752 890.955 539.585 889.927 539.585C888.899 539.585 888.066 540.419 888.066 541.447C888.066 542.475 888.899 543.309 889.927 543.309C890.955 543.309 891.789 544.143 891.789 545.171V546.188C891.789 547.216 890.955 548.049 889.927 548.049C888.899 548.049 888.066 548.883 888.066 549.911C888.066 550.94 888.899 551.774 889.927 551.774C890.955 551.774 891.789 552.607 891.789 553.635V554.652C891.789 555.68 890.955 556.513 889.927 556.513C888.899 556.513 888.066 557.348 888.066 558.376C888.066 559.404 888.899 560.238 889.927 560.238C890.955 560.238 891.789 561.071 891.789 562.099V563.116C891.789 564.144 890.955 564.978 889.927 564.978C888.899 564.978 888.066 565.812 888.066 566.84C888.066 567.868 888.899 568.702 889.927 568.702C890.955 568.702 891.789 569.535 891.789 570.563V571.58C891.789 572.608 890.955 573.442 889.927 573.442C888.899 573.442 888.066 574.276 888.066 575.304C888.066 576.332 888.899 577.166 889.927 577.166C890.955 577.166 891.789 577.999 891.789 579.027V580.044C891.789 581.072 890.955 581.906 889.927 581.906C888.899 581.906 888.066 582.74 888.066 583.768C888.066 584.796 888.899 585.63 889.927 585.63H891.281C891.561 585.63 891.789 585.857 891.789 586.138C891.789 586.418 891.561 586.646 891.281 586.646H873.514C871.083 586.646 869.112 584.675 869.112 582.244V578.52V573.78V570.056V565.316V561.592V556.852V553.128V548.388V544.664V539.924V536.2V531.46V527.735V522.996V519.271V514.531V510.807V506.067V502.343V497.603V493.879V489.139V485.415V481.013V477.289V472.549V468.825V464.085V460.361V455.621V451.897V447.496V443.771V439.031V435.307V430.567V426.843V422.103V418.379V413.639V409.915V405.175V401.451V396.711V392.987V388.247V384.522V379.783V376.058V371.318V367.594V362.854V359.13V354.39V350.666V345.926L868.939 338.635C868.839 334.468 866.165 330.799 862.228 329.429L852.149 325.922C848.858 324.777 845.421 327.22 845.421 330.705V332.251C845.421 334.194 843.846 335.769 841.903 335.769C839.932 335.769 838.346 334.15 838.385 332.18L838.829 310.22C838.923 305.558 835.782 301.449 831.257 300.317L809.87 294.969C803.861 293.466 797.945 297.732 797.473 303.908L794.314 345.249L793.976 349.989L793.637 353.713L793.299 358.453L792.96 362.177L792.622 366.917L792.283 370.641L791.945 375.381L791.607 379.105L791.268 383.845L790.93 387.57L790.591 392.309L790.253 396.034L789.914 400.774L789.576 404.498L789.237 409.238L788.899 412.962L788.56 417.702L788.222 421.426L787.884 426.166L787.545 429.89L787.207 434.63L786.868 438.354L786.849 438.618C786.646 441.465 785.235 444.09 782.973 445.831L781.228 447.173C779.001 448.887 777.607 451.465 777.391 454.267L777.053 457.991L776.715 462.731L776.376 466.455L776.038 471.195L775.699 474.919L775.361 479.659L775.022 483.383L774.684 487.785C774.684 488.72 773.926 489.478 772.991 489.478H745.085C739.562 489.478 735.085 493.955 735.085 499.478V538.063C735.085 540.961 732.736 543.309 729.839 543.309C726.942 543.309 724.593 545.658 724.593 548.555V652.668C724.593 656.594 721.411 659.776 717.485 659.776C713.56 659.776 710.378 656.594 710.378 652.668V236.569C710.378 235.073 709.166 233.861 707.67 233.861C706.175 233.861 704.963 232.649 704.963 231.153V194.092C704.963 188.569 700.485 184.092 694.963 184.092H637.457C631.934 184.092 627.457 188.569 627.457 194.092V231.492C627.457 232.987 626.245 234.2 624.749 234.2C623.254 234.2 622.042 235.412 622.042 236.907V417.196C622.042 419.906 619.844 422.103 617.134 422.103H613.242C612.681 422.103 612.226 422.558 612.226 423.119V423.458C612.226 423.832 611.923 424.135 611.549 424.135C611.176 424.135 610.873 424.438 610.873 424.811V428.536C610.873 428.91 611.176 429.213 611.549 429.213C611.923 429.213 612.226 429.516 612.226 429.89V430.229C612.226 430.603 611.923 430.906 611.549 430.906C611.176 430.906 610.873 431.209 610.873 431.583V435.307C610.873 435.681 611.176 435.984 611.549 435.984C611.923 435.984 612.226 436.287 612.226 436.661V437C612.226 437.374 611.923 437.677 611.549 437.677C611.176 437.677 610.873 437.98 610.873 438.354V442.079C610.873 442.453 611.176 442.756 611.549 442.756C611.923 442.756 612.226 443.059 612.226 443.432V443.772C612.226 444.145 611.923 444.448 611.549 444.448C611.176 444.448 610.873 444.751 610.873 445.125V448.85C610.873 449.224 611.176 449.527 611.549 449.527C611.923 449.527 612.226 449.83 612.226 450.204V450.543C612.226 450.917 611.923 451.22 611.549 451.22C611.176 451.22 610.873 451.523 610.873 451.897V455.621C610.873 455.995 611.176 456.298 611.549 456.298C611.923 456.298 612.226 456.601 612.226 456.975V457.314C612.226 457.688 611.923 457.991 611.549 457.991C611.176 457.991 610.873 458.294 610.873 458.668V462.393C610.873 462.766 611.176 463.07 611.549 463.07C611.923 463.07 612.226 463.373 612.226 463.746V464.085C612.226 464.459 611.923 464.762 611.549 464.762C611.176 464.762 610.873 465.065 610.873 465.439V469.164C610.873 469.538 611.176 469.841 611.549 469.841C611.923 469.841 612.226 470.144 612.226 470.518V470.857C612.226 471.231 611.923 471.534 611.549 471.534C611.176 471.534 610.873 471.837 610.873 472.211V475.935C610.873 476.309 611.176 476.612 611.549 476.612C611.923 476.612 612.226 476.915 612.226 477.289V477.628C612.226 478.002 611.923 478.305 611.549 478.305C611.176 478.305 610.873 478.608 610.873 478.982V482.707C610.873 483.08 611.176 483.383 611.549 483.383C611.923 483.383 612.226 483.686 612.226 484.06V484.399C612.226 484.773 611.923 485.076 611.549 485.076C611.176 485.076 610.873 485.379 610.873 485.753V489.478C610.873 489.852 611.176 490.155 611.549 490.155C611.923 490.155 612.226 490.458 612.226 490.832V491.171C612.226 491.545 611.923 491.848 611.549 491.848C611.176 491.848 610.873 492.151 610.873 492.524V496.249C610.873 496.623 611.176 496.926 611.549 496.926C611.923 496.926 612.226 497.229 612.226 497.603V497.942C612.226 498.316 611.923 498.619 611.549 498.619C611.176 498.619 610.873 498.922 610.873 499.296V503.02C610.873 503.394 611.176 503.697 611.549 503.697C611.923 503.697 612.226 504 612.226 504.374V504.713C612.226 505.087 611.923 505.39 611.549 505.39C611.176 505.39 610.873 505.693 610.873 506.067V509.792C610.873 510.166 611.176 510.469 611.549 510.469C611.923 510.469 612.226 510.772 612.226 511.146V511.485C612.226 511.858 611.923 512.161 611.549 512.161C611.176 512.161 610.873 512.465 610.873 512.838V516.563C610.873 516.937 611.176 517.24 611.549 517.24C611.923 517.24 612.226 517.543 612.226 517.917V518.256C612.226 518.63 611.923 518.933 611.549 518.933C611.176 518.933 610.873 519.236 610.873 519.61V523.334C610.873 523.708 611.176 524.011 611.549 524.011C611.923 524.011 612.226 524.314 612.226 524.688V531.798C612.226 532.172 611.923 532.475 611.549 532.475C611.176 532.475 610.873 532.778 610.873 533.152V536.877C610.873 537.251 611.176 537.554 611.549 537.554C611.923 537.554 612.226 537.857 612.226 538.231V538.57C612.226 538.944 611.923 539.247 611.549 539.247C611.176 539.247 610.873 539.55 610.873 539.924V540.77C610.873 541.612 610.19 542.294 609.349 542.294H598.196C592.673 542.294 588.196 537.817 588.196 532.294V440.906C588.196 435.383 583.719 430.906 578.196 430.906H538.628C533.106 430.906 528.628 435.383 528.628 440.906V494.051C528.628 498.818 524.764 502.682 519.998 502.682H513.399C512.277 502.682 511.367 501.772 511.367 500.65C511.367 499.528 510.458 498.619 509.336 498.619H507.813C505.851 498.619 504.26 497.028 504.26 495.065V367.933V224.042C504.26 222.546 503.047 221.334 501.552 221.334C500.057 221.334 498.844 220.122 498.844 218.626V145C498.844 139.477 494.367 135 488.844 135H415.093C409.57 135 405.093 139.477 405.093 145V218.627C405.093 220.122 403.881 221.334 402.385 221.334C400.89 221.334 399.678 222.546 399.678 224.042V582.247C399.678 585.798 396.799 588.677 393.247 588.677C389.696 588.677 386.817 585.798 386.817 582.247V453.771C386.817 448.248 382.339 443.771 376.817 443.771H374.14C368.617 443.771 364.14 439.294 364.14 433.771V383.167C364.14 381.111 362.473 379.444 360.417 379.444C358.361 379.444 356.694 377.777 356.694 375.721V360.327C356.694 354.805 352.217 350.327 346.694 350.327H261.097C255.574 350.327 251.097 354.805 251.097 360.327V375.721C251.097 377.777 249.43 379.444 247.374 379.444C245.318 379.444 243.651 381.111 243.651 383.167V603.392C243.651 608.915 239.174 613.392 233.651 613.392H229.282C223.759 613.392 219.282 608.915 219.282 603.392V472.054C219.282 466.531 214.805 462.054 209.282 462.054H139.592C134.069 462.054 129.592 466.531 129.592 472.054V547.714C129.592 553.135 125.198 557.529 119.777 557.529C114.356 557.529 109.962 561.924 109.962 567.344V644.542C109.962 647.72 107.386 650.296 104.208 650.296C101.03 650.296 98.4543 647.72 98.4543 644.542V382.83V378.427C98.4543 377.119 97.3936 376.058 96.0852 376.058H94.7317C94.1707 376.058 93.716 375.604 93.716 375.043C93.716 374.482 94.1707 374.027 94.7317 374.027H96.0852C97.3936 374.027 98.4543 372.966 98.4543 371.658V369.625C98.4543 368.316 97.3936 367.256 96.0852 367.256H94.7317C94.1707 367.256 93.716 366.801 93.716 366.24C93.716 365.679 94.1707 365.224 94.7317 365.224H96.0852C97.3936 365.224 98.4543 364.164 98.4543 362.855V360.822C98.4543 359.514 97.3936 358.453 96.0852 358.453H94.7317C94.1707 358.453 93.716 357.998 93.716 357.437C93.716 356.876 94.1707 356.422 94.7317 356.422H96.0852C97.3936 356.422 98.4543 355.361 98.4543 354.052V352.019C98.4543 350.711 97.3936 349.65 96.0852 349.65H94.3931C94.0192 349.65 93.716 349.347 93.716 348.973C93.716 348.599 94.0192 348.296 94.3931 348.296H96.2544C97.6564 348.296 98.7928 347.159 98.7928 345.758V344.063C98.7928 342.661 97.6564 341.525 96.2544 341.525H94.7317C94.1707 341.525 93.716 341.07 93.716 340.509C93.716 339.948 94.1707 339.493 94.7317 339.493H96.2545C97.6564 339.493 98.7928 338.357 98.7928 336.955V335.26C98.7928 333.858 97.6564 332.722 96.2544 332.722H94.7317C94.1707 332.722 93.716 332.267 93.716 331.706C93.716 331.145 94.1707 330.691 94.7317 330.691H96.2545C97.6564 330.691 98.7928 329.554 98.7928 328.152V326.458C98.7928 325.056 97.6564 323.919 96.2544 323.919H94.7317C94.1707 323.919 93.716 323.465 93.716 322.904C93.716 322.343 94.1707 321.888 94.7317 321.888H96.2545C97.6564 321.888 98.7928 320.751 98.7928 319.349V301.407C98.7928 298.12 97.1424 295.081 94.6756 292.908C84.5374 283.978 70.3197 264.9 70.0243 238.601V237.924V237.076C70.0243 235.488 68.7363 234.2 67.1475 234.2H66.1328C65.1044 234.2 64.2707 235.033 64.2707 236.062C64.2707 237.09 63.437 237.924 62.4086 237.924H60.2092C57.9661 237.924 56.1477 236.105 56.1477 233.862V180.536C56.1477 179.695 55.4658 179.013 54.6246 179.013C53.7835 179.013 53.1016 179.695 53.1016 180.536V237.416C53.1016 237.884 52.7228 238.262 52.2555 238.262C51.7882 238.262 51.4094 237.884 51.4094 237.416V236.4C51.4094 235.372 50.5757 234.538 49.5472 234.538H47.1794C46.1509 234.538 45.3173 235.372 45.3173 236.4C45.3173 237.429 44.4836 238.262 43.4551 238.262H36.3489C35.3204 238.262 34.4868 237.429 34.4868 236.4C34.4868 235.372 33.6531 234.538 32.6246 234.538H31.4407C29.7584 234.538 28.3946 235.902 28.3946 237.584V238.262C28.3946 264.941 21.0351 284.257 12.4691 293.354C10.1773 295.788 8.42584 298.842 8.42584 302.185V315.624C8.42584 315.718 8.50165 315.794 8.59509 315.794C8.68854 315.794 8.76434 315.87 8.76434 315.963V319.519C8.76434 321.201 10.1281 322.565 11.8104 322.565H13.8408C14.4018 322.565 14.8565 323.02 14.8565 323.581C14.8565 324.142 14.4018 324.596 13.8408 324.596H11.8104C10.1281 324.596 8.76434 325.96 8.76434 327.643V328.322C8.76434 330.004 10.1281 331.368 11.8104 331.368H13.8408C14.4018 331.368 14.8565 331.822 14.8565 332.383C14.8565 332.944 14.4018 333.399 13.8408 333.399H11.6412C9.86542 333.399 8.42584 334.839 8.42584 336.614V336.955C8.42584 338.731 9.86542 340.17 11.6412 340.17H14.1794C14.5533 340.17 14.8565 340.474 14.8565 340.848C14.8565 341.222 14.5533 341.525 14.1794 341.525H11.6412C9.86542 341.525 8.42584 342.964 8.42584 344.74V345.081C8.42584 346.856 9.86542 348.296 11.6412 348.296H13.8408C14.4018 348.296 14.8565 348.751 14.8565 349.312C14.8565 349.873 14.4018 350.327 13.8408 350.327H11.6412C9.86542 350.327 8.42584 351.767 8.42584 353.543V353.883C8.42584 355.659 9.86542 357.099 11.6412 357.099H13.8408C14.4018 357.099 14.8565 357.553 14.8565 358.114C14.8565 358.675 14.4018 359.13 13.8408 359.13H11.6412C9.86542 359.13 8.42584 360.57 8.42584 362.345V362.686C8.42584 364.462 9.86542 365.901 11.6412 365.901H13.8408C14.4017 365.901 14.8565 366.356 14.8565 366.917C14.8565 367.478 14.4017 367.933 13.8408 367.933H11.6412C9.86542 367.933 8.42584 369.372 8.42584 371.148V371.489C8.42584 373.264 9.86542 374.704 11.6412 374.704H13.8408C14.4018 374.704 14.8565 375.159 14.8565 375.72C14.8565 376.281 14.4018 376.735 13.8408 376.735H11.4719C9.60272 376.735 8.0874 378.251 8.0874 380.12V513.519C8.0874 518.753 3.84454 522.996 -1.38928 522.996C-6.62311 522.996 -10.866 527.238 -10.866 532.472V589.864C-10.866 592.761 -13.2147 595.11 -16.112 595.11C-19.0093 595.11 -21.358 597.459 -21.358 600.356V653.193C-21.358 655.345 -23.7872 656.474 -25.9377 656.393C-26.0687 656.388 -26.1614 656.381 -26.2911 656.362C-26.4132 656.345 -26.5362 656.328 -26.6599 656.31C-30.6068 655.758 -33.5424 652.414 -33.5424 648.429V526.134C-33.5424 522.169 -35.8849 518.579 -39.5139 516.982L-41.6938 516.022C-41.8981 515.932 -42.119 515.886 -42.3422 515.886H-42.8489C-44.2513 515.886 -45.3882 514.749 -45.3882 513.346V511.992C-45.3882 511.338 -45.9185 510.807 -46.5728 510.807C-47.227 510.807 -47.7573 511.338 -47.7573 511.992C-47.7573 512.646 -48.2877 513.177 -48.942 513.177H-49.0855C-49.6605 513.177 -50.1266 513.643 -50.1266 514.218C-50.1266 514.773 -50.5616 515.23 -51.1157 515.258L-54.9789 515.451C-56.0217 515.503 -56.8956 514.672 -56.8956 513.628C-56.8956 512.937 -57.2862 512.305 -57.9045 511.995L-58.819 511.538C-59.3337 511.281 -59.9044 511.155 -60.4797 511.172L-80.2794 511.763C-81.3936 511.796 -82.2796 512.709 -82.2796 513.824C-82.2796 514.963 -83.2026 515.886 -84.3413 515.886H-84.6488C-85.9572 515.886 -87.0179 516.946 -87.0179 518.255V540.758C-87.0179 546.281 -91.4951 550.758 -97.0179 550.758H-114.586C-120.109 550.758 -124.586 546.281 -124.586 540.758V382.49C-124.586 380.06 -126.556 378.09 -128.986 378.09C-131.416 378.09 -133.386 376.12 -133.386 373.69V344.415C-133.386 338.892 -137.863 334.415 -143.386 334.415H-158.43C-161.608 334.415 -164.185 331.838 -164.185 328.659C-164.185 325.48 -166.762 322.904 -169.941 322.904H-173.828C-178.97 322.904 -183.139 318.735 -183.139 313.593C-183.139 308.451 -187.307 304.283 -192.449 304.283H-249.968C-255.49 304.283 -259.968 308.76 -259.968 314.283V324.415C-259.968 329.938 -264.445 334.415 -269.968 334.415H-288.551C-294.074 334.415 -298.551 338.892 -298.551 344.415V636.233C-298.551 641.756 -303.028 646.233 -308.551 646.233H-309.535C-315.058 646.233 -319.535 650.71 -319.535 656.233V665.873C-319.535 671.294 -323.93 675.688 -329.35 675.688C-334.771 675.688 -339.166 671.294 -339.166 665.873V591.906C-339.166 586.383 -343.643 581.906 -349.166 581.906H-359.626C-365.149 581.906 -369.626 577.429 -369.626 571.906V551.475C-369.626 551.243 -369.757 551.031 -369.965 550.927C-370.172 550.823 -370.303 550.611 -370.303 550.379V546.834C-370.303 545.427 -370.77 544.06 -371.632 542.947L-376.334 536.871C-377.69 535.119 -378.426 532.966 -378.426 530.75V524.77C-378.426 523.851 -378.791 522.969 -379.441 522.318C-380.092 521.668 -380.457 520.786 -380.457 519.867V505.221C-380.457 504.94 -380.684 504.713 -380.965 504.713C-381.245 504.713 -381.472 504.94 -381.472 505.221V520.106C-381.472 520.872 -381.777 521.607 -382.318 522.149C-382.86 522.691 -383.164 523.426 -383.164 524.192V531.694C-383.164 533.745 -383.795 535.747 -384.971 537.427L-389.193 543.46C-389.895 544.464 -390.272 545.659 -390.272 546.885V548.86C-390.272 549.623 -390.653 550.335 -391.287 550.758C-391.922 551.181 -392.303 551.893 -392.303 552.655V553.524C-392.303 554.749 -392.945 555.883 -393.995 556.513L-394.412 556.764C-395.203 557.239 -395.687 558.094 -395.687 559.017C-395.687 559.978 -396.212 560.863 -397.056 561.323L-397.549 561.592C-398.696 562.218 -399.41 563.421 -399.41 564.728V595.757C-399.41 599.586 -402.706 602.583 -406.518 602.22C-409.882 602.22 -412.61 599.492 -412.61 596.128V534.35C-412.61 528.827 -417.087 524.35 -422.61 524.35H-444.24C-449.762 524.35 -454.24 528.827 -454.24 534.35V562.087C-454.24 567.61 -458.717 572.087 -464.24 572.087H-470.639C-476.162 572.087 -480.639 576.565 -480.639 582.087V602.39C-480.639 604.166 -482.079 605.605 -483.854 605.605C-485.63 605.605 -487.07 607.045 -487.07 608.821V646.742C-487.07 648.144 -488.206 649.28 -489.608 649.28C-491.01 649.28 -492.146 648.144 -492.146 646.742V630.658C-492.146 628.789 -493.662 627.274 -495.531 627.274C-497.4 627.274 -498.915 625.758 -498.915 623.889V452.078C-498.915 446.556 -503.393 442.078 -508.915 442.078H-556.791C-599.098 442.078 -633.281 471.872 -633.281 514.193V538.049C-633.281 543.572 -637.759 548.049 -643.281 548.049H-647.158C-659.342 548.049 -669.157 569.04 -669.157 580.552V620.321C-669.157 625.844 -673.635 630.321 -679.157 630.321H-695.033C-700.556 630.321 -705.033 625.844 -705.033 620.321V582.765C-705.033 577.242 -709.511 572.765 -715.033 572.765H-719.064C-724.586 572.765 -729.064 577.242 -729.064 582.765V669.765C-729.064 672.663 -731.412 675.011 -734.31 675.011C-737.207 675.011 -739.556 672.663 -739.556 669.765V621.009C-739.556 619.42 -740.844 618.132 -742.433 618.132C-744.021 618.132 -745.309 616.844 -745.309 615.255V582.765C-745.309 577.242 -749.787 572.765 -755.309 572.765H-756.632C-762.155 572.765 -766.632 568.287 -766.632 562.765V527.24C-766.632 521.717 -771.109 517.24 -776.632 517.24H-803C-808.523 517.24 -813 521.717 -813 527.24V729C-813 734.523 -808.523 739 -803 739H1667C1672.52 739 1677 734.523 1677 729V351.525C1677 346.002 1672.52 341.525 1667 341.525H1648.57ZM1268.15 533.322C1268.15 533.976 1267.62 534.507 1266.96 534.507H1264.76C1264.58 534.507 1264.43 534.355 1264.43 534.168V533.322C1264.43 532.667 1264.96 532.137 1265.61 532.137H1266.96C1267.62 532.137 1268.15 532.667 1268.15 533.322ZM1268.15 527.566C1268.15 528.221 1267.62 528.751 1266.96 528.751H1265.61C1264.96 528.751 1264.43 528.221 1264.43 527.566C1264.43 526.912 1264.96 526.381 1265.61 526.381H1266.96C1267.62 526.381 1268.15 526.912 1268.15 527.566ZM1268.15 521.472C1268.15 522.126 1267.62 522.657 1266.96 522.657H1265.61C1264.96 522.657 1264.43 522.126 1264.43 521.472C1264.43 520.818 1264.96 520.287 1265.61 520.287H1266.96C1267.62 520.287 1268.15 520.818 1268.15 521.472ZM1268.15 515.378C1268.15 516.032 1267.62 516.563 1266.96 516.563H1265.61C1264.96 516.563 1264.43 516.032 1264.43 515.378C1264.43 514.723 1264.96 514.193 1265.61 514.193H1266.96C1267.62 514.193 1268.15 514.723 1268.15 515.378ZM1268.15 509.284C1268.15 509.938 1267.62 510.469 1266.96 510.469H1265.61C1264.96 510.469 1264.43 509.938 1264.43 509.284C1264.43 508.629 1264.96 508.099 1265.61 508.099H1266.96C1267.62 508.099 1268.15 508.629 1268.15 509.284ZM1268.15 503.189C1268.15 503.844 1267.62 504.374 1266.96 504.374H1265.61C1264.96 504.374 1264.43 503.844 1264.43 503.189C1264.43 502.535 1264.96 502.005 1265.61 502.005H1266.96C1267.62 502.005 1268.15 502.535 1268.15 503.189ZM1268.15 497.434C1268.15 498.088 1267.62 498.619 1266.96 498.619H1265.61C1264.96 498.619 1264.43 498.088 1264.43 497.434C1264.43 496.779 1264.96 496.249 1265.61 496.249H1266.96C1267.62 496.249 1268.15 496.779 1268.15 497.434Z" fill="url(#paint2_linear)"/>
<path d="M1421.89 492.501C1363.11 492.501 1315.56 593.395 1315.56 717.746H1528.33C1528.33 593.269 1480.66 492.501 1421.89 492.501Z" fill="url(#paint3_linear)"/>
<path d="M1421.89 492.501C1363.11 492.501 1315.56 593.395 1315.56 717.746H1528.33C1528.33 593.269 1480.66 492.501 1421.89 492.501Z" fill="url(#paint4_linear)"/>
<mask id="mask1" mask-type="alpha" maskUnits="userSpaceOnUse" x="1315" y="492" width="214" height="226">
<path d="M1421.89 492.501C1363.11 492.501 1315.56 593.395 1315.56 717.746H1528.33C1528.33 593.269 1480.66 492.501 1421.89 492.501Z" fill="url(#paint5_linear)"/>
</mask>
<g mask="url(#mask1)">
<path opacity="0.2" d="M1332.25 512.899C1365.94 497.553 1433.97 472.451 1436.6 494.812C1439.89 522.764 1245.15 642.793 1311.7 617.307C1378.26 591.822 1435.78 521.942 1450.57 546.605C1465.36 571.269 1320.74 673.211 1369.22 668.279C1417.7 663.346 1477.68 549.894 1496.58 567.981C1515.48 586.067 1372.51 711.851 1404.56 722.538C1436.6 733.226 1524.52 554.827 1559.85 550.716" stroke="url(#paint6_linear)" stroke-width="2"/>
</g>
<path opacity="0.3" d="M1514.54 717.746H1528.33C1528.33 593.269 1480.66 492.501 1421.89 492.501C1419.57 492.501 1417.27 492.658 1414.99 492.966C1470.55 500.484 1514.54 598.176 1514.54 717.746Z" fill="#C9D983"/>
<path d="M1539.82 553.573C1496.82 553.573 1462.01 627.406 1462.01 718.403H1617.64C1617.52 627.406 1582.71 553.573 1539.82 553.573Z" fill="url(#paint7_linear)"/>
<mask id="mask2" mask-type="alpha" maskUnits="userSpaceOnUse" x="1462" y="553" width="156" height="166">
<path d="M1539.82 553.573C1496.82 553.573 1462.01 627.406 1462.01 718.403H1617.64C1617.52 627.406 1582.71 553.573 1539.82 553.573Z" fill="url(#paint8_linear)"/>
</mask>
<g mask="url(#mask2)">
<path opacity="0.2" d="M1515.37 516.142C1484.84 565.873 1435.92 655.132 1484.51 614.321C1545.25 563.306 1603.1 579.669 1579 614.321C1554.89 648.972 1484.51 630.684 1491.26 667.26C1496.66 696.521 1575.14 653.143 1613.7 627.796" stroke="url(#paint9_linear)" stroke-width="2"/>
</g>
<path opacity="0.3" fill-rule="evenodd" clip-rule="evenodd" d="M1601.23 718.403H1617.64C1617.52 627.406 1582.71 553.573 1539.82 553.573C1537.05 553.573 1534.31 553.881 1531.6 554.481C1570.64 563.178 1601.11 633.281 1601.23 718.403Z" fill="#C9D983"/>
<path d="M1233.48 473.457C1165.31 473.457 1110.02 582.247 1110.02 716.433H1356.94C1356.81 582.247 1301.64 473.457 1233.48 473.457Z" fill="url(#paint10_linear)"/>
<mask id="mask3" mask-type="alpha" maskUnits="userSpaceOnUse" x="1110" y="473" width="247" height="244">
<path d="M1233.48 473.457C1165.31 473.457 1110.02 582.247 1110.02 716.433H1356.94C1356.81 582.247 1301.64 473.457 1233.48 473.457Z" fill="url(#paint11_linear)"/>
</mask>
<g mask="url(#mask3)">
<path opacity="0.2" d="M1120.53 522.485C1133.54 507.129 1162.77 479.768 1175.59 493.169C1191.63 509.921 1157.47 567.853 1179.78 574.833C1202.08 581.813 1233.45 472.23 1260.64 482.7C1287.82 493.169 1143.53 662.779 1193.72 669.061C1243.91 675.343 1266.91 523.881 1288.52 534.35C1310.13 544.82 1239.72 626.484 1264.12 650.215C1288.52 673.947 1301.07 562.27 1320.58 574.833C1340.1 587.397 1326.16 650.215 1307.34 692.792" stroke="url(#paint12_linear)" stroke-width="2"/>
</g>
<path opacity="0.2" d="M1329.35 716.433H1356.94C1356.81 582.247 1301.64 473.457 1233.48 473.457C1228.82 473.457 1224.21 473.966 1219.69 474.957C1281.35 488.456 1329.24 591.423 1329.35 716.433Z" fill="#C9D983"/>
<path d="M1409.41 567.526H1407.12V715.23H1409.41V567.526Z" fill="#0C5E59"/>
<path d="M1424.91 558.174C1420.01 558.174 1415.45 561.709 1412.26 564.903C1414.42 561.823 1417.39 558.06 1419.67 557.375C1423.66 556.121 1426.85 556.691 1426.85 556.691C1426.85 556.691 1423.2 551.558 1417.73 553.954C1415.33 554.98 1413.28 558.402 1411.8 561.709C1412.6 558.63 1413.28 554.98 1412.71 551.672C1411.34 543.232 1402 542.548 1402 542.548C1402 542.548 1407.24 549.848 1408.15 558.402C1408.27 559.542 1408.38 560.683 1408.49 561.709C1407.7 556.805 1405.76 550.874 1400.97 547.68C1389.11 539.81 1381.7 553.611 1381.7 553.611C1381.7 553.611 1388.43 549.391 1397.32 553.84C1404.39 557.375 1407.35 564.903 1408.27 567.983C1407.13 565.701 1402.22 557.033 1394.47 555.778C1382.73 553.84 1379.76 568.667 1379.76 568.667C1379.76 568.667 1386.49 563.306 1394.81 563.648C1401.31 563.991 1405.87 566.614 1408.15 568.667C1406.9 568.325 1404.28 567.754 1401.08 567.64C1390.71 567.526 1388.54 581.441 1388.54 581.441L1408.27 569.351C1407.35 570.948 1405.64 574.37 1404.73 576.651C1403.36 579.845 1404.28 587.03 1404.28 587.03C1404.28 587.03 1407.47 581.555 1408.38 578.02C1409.29 574.598 1409.06 571.062 1408.95 569.351L1422.29 583.837C1422.29 583.837 1425.59 575.054 1415.45 570.834C1414.08 570.264 1412.94 569.807 1412.03 569.465C1414.42 569.807 1417.39 570.834 1420.46 572.773C1426.28 576.537 1430.04 581.783 1430.04 581.783C1430.04 581.783 1433.69 571.176 1424.8 566.842C1421.83 565.473 1418.53 565.587 1415.68 566.272C1417.84 565.017 1420.69 564.105 1424 564.561C1432.09 565.587 1434.37 571.29 1434.37 571.29C1434.37 571.29 1436.65 558.174 1424.91 558.174Z" fill="url(#paint13_linear)"/>
<path d="M1322.42 476.744H1318.77V717.975H1322.42V476.744Z" fill="#0C5E59"/>
<path d="M1345.99 455.951C1337.09 455.951 1328.69 462.332 1322.84 468.203C1326.78 462.588 1332.26 455.823 1336.45 454.419C1343.58 452.122 1349.56 453.27 1349.56 453.27C1349.56 453.27 1342.81 443.826 1332.89 448.293C1328.44 450.207 1324.75 456.461 1322.08 462.46C1323.6 456.844 1324.62 450.207 1323.73 444.081C1321.31 428.765 1304.14 427.488 1304.14 427.488C1304.14 427.488 1313.68 440.762 1315.46 456.461C1315.72 458.503 1315.84 460.545 1315.97 462.46C1314.44 453.398 1310.88 442.549 1302.23 436.806C1280.73 422.511 1267.25 447.782 1267.25 447.782C1267.25 447.782 1279.59 440.124 1295.74 448.293C1308.47 454.674 1313.94 468.586 1315.72 474.074C1313.55 469.863 1304.78 454.164 1290.53 451.739C1269.16 448.165 1263.69 475.351 1263.69 475.351C1263.69 475.351 1275.9 465.523 1291.04 466.161C1302.74 466.672 1311.26 471.522 1315.46 475.351C1313.3 474.713 1308.34 473.564 1302.61 473.564C1283.66 473.309 1279.71 498.708 1279.71 498.708L1315.72 476.627C1314.19 479.563 1311.01 485.689 1309.23 490.029C1306.81 495.9 1308.34 508.918 1308.34 508.918C1308.34 508.918 1314.19 498.963 1315.84 492.454C1317.5 486.2 1317.12 479.69 1316.86 476.627L1341.29 503.047C1341.29 503.047 1347.27 486.965 1328.95 479.18C1326.53 478.159 1324.37 477.265 1322.71 476.627C1327.17 477.265 1332.51 479.052 1337.98 482.626C1348.67 489.518 1355.41 498.963 1355.41 498.963C1355.41 498.963 1362.02 479.435 1345.74 471.777C1340.4 469.224 1334.29 469.607 1329.07 470.756C1333.02 468.459 1338.11 466.799 1344.34 467.565C1359.1 469.352 1363.17 479.946 1363.17 479.946C1363.17 479.946 1367.37 455.823 1345.99 455.951Z" fill="url(#paint14_linear)"/>
<path d="M1244.06 689.595C1241.78 679.102 1238.02 669.179 1233 660.054C1232.32 658.8 1231.52 657.431 1230.72 656.176C1224.91 646.482 1217.72 637.813 1209.4 630.285C1208.38 629.259 1207.24 628.346 1206.1 627.434C1197.2 620.02 1187.06 613.975 1176.11 609.641C1174.74 609.071 1173.38 608.615 1172.01 608.158C1161.06 604.28 1149.21 602.113 1137.01 601.885C1136.32 601.885 1135.53 601.885 1134.84 601.885C1134.16 601.885 1133.36 601.885 1132.67 601.885C1120.36 602.113 1108.62 604.28 1097.67 608.158C1096.31 608.615 1094.94 609.185 1093.57 609.641C1082.63 613.975 1072.48 620.02 1063.59 627.434C1062.45 628.346 1061.31 629.373 1060.28 630.285C1051.96 637.813 1044.66 646.482 1038.96 656.176C1038.16 657.431 1037.48 658.8 1036.68 660.054C1031.66 669.179 1027.9 679.102 1025.62 689.595C1025.28 691.078 1025.05 692.561 1024.71 694.043C1023.57 700.431 1023 706.932 1023 713.547H1246.57C1246.57 706.932 1246 700.316 1244.86 694.043C1244.63 692.561 1244.4 691.078 1244.06 689.595Z" fill="url(#paint15_linear)"/>
<path opacity="0.3" d="M1132.68 601.771V713.547H1137.01V601.771C1136.32 601.771 1135.53 601.771 1134.84 601.771C1134.04 601.771 1133.36 601.771 1132.68 601.771Z" fill="url(#paint16_linear)"/>
<path opacity="0.3" d="M1093.57 609.641L1121.39 713.661H1125.83L1097.56 608.158C1096.31 608.615 1094.94 609.071 1093.57 609.641Z" fill="url(#paint17_linear)"/>
<path opacity="0.3" d="M1060.28 630.285L1108.39 713.547H1113.29L1063.59 627.434C1062.45 628.346 1061.31 629.373 1060.28 630.285Z" fill="url(#paint18_linear)"/>
<path opacity="0.3" d="M1036.68 660.054L1090.26 713.661H1096.31L1038.85 656.176C1038.16 657.431 1037.36 658.8 1036.68 660.054Z" fill="url(#paint19_linear)"/>
<path opacity="0.3" d="M1024.71 694.043L1058.57 713.547H1067.23L1025.62 689.481C1025.28 691.078 1025.05 692.561 1024.71 694.043Z" fill="url(#paint20_linear)"/>
<path opacity="0.3" d="M1143.73 713.661H1148.18L1176 609.641C1174.63 609.071 1173.26 608.615 1171.89 608.158L1143.73 713.661Z" fill="url(#paint21_linear)"/>
<path opacity="0.3" d="M1156.27 713.661H1161.29L1209.4 630.399C1208.38 629.373 1207.24 628.461 1206.1 627.548L1156.27 713.661Z" fill="url(#paint22_linear)"/>
<g opacity="0.3">
<path d="M1173.26 713.661H1179.3L1232.89 660.054C1232.2 658.8 1231.41 657.431 1230.61 656.176L1173.26 713.661Z" fill="url(#paint23_linear)"/>
</g>
<path d="M1202.45 713.661H1211.11L1244.97 694.157C1244.74 692.675 1244.4 691.192 1244.06 689.709L1202.45 713.661Z" fill="#084F15"/>
<path d="M1327.74 698.378C1326.26 691.762 1323.87 685.375 1320.67 679.558C1320.22 678.76 1319.76 677.961 1319.31 677.049C1315.66 670.89 1311.1 665.415 1305.74 660.625C1305.05 660.054 1304.37 659.37 1303.57 658.8C1297.87 654.123 1291.49 650.245 1284.53 647.508C1283.74 647.166 1282.82 646.824 1281.91 646.596C1274.96 644.086 1267.43 642.718 1259.68 642.604C1259.22 642.604 1258.77 642.604 1258.31 642.604C1257.86 642.604 1257.4 642.604 1256.94 642.604C1249.19 642.718 1241.67 644.2 1234.71 646.596C1233.8 646.938 1233 647.166 1232.09 647.508C1225.14 650.245 1218.75 654.123 1213.05 658.8C1212.37 659.37 1211.68 660.054 1210.88 660.625C1205.53 665.415 1200.97 670.89 1197.32 677.049C1196.86 677.847 1196.41 678.646 1195.95 679.558C1192.76 685.375 1190.36 691.648 1188.88 698.378C1188.65 699.29 1188.54 700.316 1188.31 701.229C1187.63 705.221 1187.17 709.441 1187.17 713.661H1329.22C1329.22 709.441 1328.88 705.221 1328.08 701.229C1328.2 700.202 1327.97 699.29 1327.74 698.378Z" fill="url(#paint24_linear)"/>
<path opacity="0.3" d="M1256.94 642.604V713.661H1259.68V642.604C1259.22 642.604 1258.77 642.604 1258.31 642.604C1257.85 642.604 1257.4 642.604 1256.94 642.604Z" fill="url(#paint25_linear)"/>
<path opacity="0.3" d="M1232.2 647.508L1249.87 713.547H1252.72L1234.83 646.482C1233.91 646.938 1233 647.166 1232.2 647.508Z" fill="url(#paint26_linear)"/>
<path opacity="0.3" d="M1211 660.739L1241.55 713.661H1244.74L1213.16 658.914C1212.37 659.484 1211.68 660.054 1211 660.739Z" fill="url(#paint27_linear)"/>
<path opacity="0.3" d="M1195.95 679.558L1230.04 713.547H1233.91L1197.43 677.049C1196.98 677.961 1196.41 678.76 1195.95 679.558Z" fill="url(#paint28_linear)"/>
<path opacity="0.3" d="M1188.42 701.229L1209.97 713.661H1215.44L1188.99 698.377C1188.77 699.29 1188.54 700.202 1188.42 701.229Z" fill="url(#paint29_linear)"/>
<path opacity="0.3" d="M1264.01 713.661H1266.86L1284.53 647.622C1283.73 647.28 1282.82 646.938 1281.91 646.71L1264.01 713.661Z" fill="url(#paint30_linear)"/>
<path opacity="0.3" d="M1271.99 713.661H1275.18L1305.74 660.739C1305.05 660.168 1304.37 659.484 1303.57 658.914L1271.99 713.661Z" fill="url(#paint31_linear)"/>
<path opacity="0.3" d="M1282.82 713.661H1286.7L1320.79 679.672C1320.33 678.874 1319.87 678.075 1319.42 677.163L1282.82 713.661Z" fill="url(#paint32_linear)"/>
<path opacity="0.3" d="M1301.29 713.661H1306.76L1328.31 701.229C1328.2 700.316 1327.97 699.29 1327.74 698.377L1301.29 713.661Z" fill="url(#paint33_linear)"/>
<path d="M1613 706H317V801.58H1613V706Z" fill="url(#paint34_linear)"/>
<mask id="mask4" mask-type="alpha" maskUnits="userSpaceOnUse" x="317" y="706" width="1296" height="96">
<path d="M1613 706H317V801.58H1613V706Z" fill="url(#paint35_linear)"/>
</mask>
<g mask="url(#mask4)">
<path opacity="0.7" fill-rule="evenodd" clip-rule="evenodd" d="M867.791 744.025C859.187 753.086 850.408 759.265 841.025 758.839C838.698 758.733 836.829 758.254 835.43 757.366C834.001 756.458 833.13 755.165 832.754 753.599C832.386 752.066 832.501 750.313 832.938 748.437C833.376 746.553 834.154 744.482 835.177 742.282C838.923 734.224 846.178 723.992 853.203 714.085L853.203 714.084L853.204 714.084C853.817 713.218 854.429 712.356 855.036 711.497C858.834 706.13 862.475 700.913 865.39 696.215C868.318 691.496 870.458 687.388 871.315 684.223C871.744 682.64 871.823 681.395 871.6 680.466C871.39 679.592 870.904 678.95 870.02 678.516C869.086 678.057 867.656 677.81 865.564 677.929C863.484 678.048 860.837 678.524 857.533 679.425C851.026 681.199 843.777 685.292 835.941 691.133C828.114 696.967 819.76 704.5 811.043 713.091C798.755 725.201 785.797 739.36 772.618 753.761L772.618 753.761L772.617 753.762C767.087 759.805 761.517 765.891 755.942 771.886C737.111 792.134 718.221 811.336 700.669 824.156C683.188 836.925 666.682 843.626 652.784 838.15C645.913 835.444 642.453 831.555 642.041 826.647C641.642 821.885 644.166 816.516 648.295 810.91C656.583 799.654 671.982 786.61 686.933 774.083C687.261 773.809 687.588 773.534 687.916 773.26L688.607 772.681L688.637 772.656C695.548 766.868 702.316 761.2 708.23 755.858C714.638 750.069 719.992 744.708 723.421 740.036C725.136 737.7 726.337 735.58 726.96 733.703C727.581 731.831 727.607 730.273 727.085 728.979C726.564 727.689 725.431 726.497 723.399 725.491C721.359 724.481 718.474 723.691 714.583 723.192C702.21 721.606 686.336 725.338 668.656 732.592C651.006 739.835 631.681 750.534 612.457 762.734C574.01 787.134 536.063 817.475 512.872 837.969L511.548 836.471C534.797 815.925 572.828 785.516 611.385 761.046C630.663 748.811 650.097 738.045 667.897 730.742C685.668 723.45 701.938 719.554 714.837 721.208C718.843 721.722 721.971 722.552 724.287 723.699C726.613 724.851 728.182 726.355 728.939 728.229C729.694 730.1 729.575 732.173 728.858 734.333C728.143 736.486 726.812 738.797 725.034 741.219C721.477 746.064 715.997 751.537 709.571 757.342C703.628 762.71 696.833 768.401 689.93 774.182L689.928 774.184L689.928 774.184L689.905 774.203C689.343 774.673 688.78 775.145 688.217 775.617C673.198 788.2 658.019 801.076 649.905 812.095C645.832 817.626 643.699 822.483 644.034 826.48C644.357 830.33 647.022 833.731 653.517 836.29C666.348 841.344 682.04 835.287 699.49 822.541C716.869 809.847 735.644 790.776 754.478 770.524C760.026 764.558 765.58 758.489 771.102 752.455L771.102 752.455C784.297 738.036 797.312 723.815 809.639 711.667C818.387 703.045 826.815 695.441 834.745 689.53C842.666 683.626 850.149 679.366 857.007 677.495C860.386 676.574 863.181 676.062 865.449 675.933C867.705 675.804 869.529 676.047 870.902 676.721C872.325 677.42 873.197 678.552 873.545 679.999C873.88 681.392 873.715 683.012 873.246 684.746C872.306 688.213 870.028 692.533 867.09 697.269C864.139 702.025 860.465 707.288 856.669 712.653C856.113 713.438 855.554 714.226 854.995 715.015L854.891 715.162L854.869 715.194C847.803 725.16 840.655 735.243 836.99 743.125C836.001 745.252 835.282 747.187 834.886 748.89C834.488 750.6 834.43 752.014 834.699 753.133C834.959 754.218 835.532 755.061 836.502 755.677C837.502 756.312 838.987 756.744 841.115 756.841C849.552 757.225 857.783 751.659 866.341 742.647C873.284 735.336 880.277 725.94 887.624 716.067L887.624 716.067L887.625 716.067L887.629 716.06L887.646 716.038C889.317 713.792 891.007 711.522 892.718 709.246C901.932 696.995 911.76 684.613 922.661 675.295C933.567 665.972 945.637 659.64 959.33 659.64V661.64C946.293 661.64 934.67 667.66 923.96 676.815C913.244 685.976 903.53 698.198 894.317 710.449C892.617 712.709 890.933 714.972 889.263 717.216L889.261 717.218L889.261 717.219C881.91 727.097 874.825 736.617 867.791 744.025ZM1253.12 690.721C1251.12 687.595 1247.5 685.744 1241.24 685.939C1228.78 686.329 1216.89 696.391 1205.23 711.694C1193.61 726.938 1182.46 747.067 1171.41 767.032L1171.26 767.307L1171.26 767.309C1160.29 787.138 1149.41 806.792 1138.35 821.1C1132.79 828.29 1127.13 834.187 1121.35 838.084C1115.55 841.989 1109.56 843.924 1103.37 843.071C1097.27 842.229 1093.22 839.668 1090.89 835.716C1088.59 831.818 1088.07 826.733 1088.62 821.025C1089.72 809.619 1095.2 795.103 1100.76 780.964C1101.2 779.825 1101.65 778.689 1102.1 777.557C1107.23 764.538 1112.15 752.064 1113.69 742.593C1114.53 737.432 1114.32 733.391 1112.8 730.673C1111.35 728.067 1108.55 726.44 1103.51 726.44C1098.56 726.44 1093.74 728.628 1088.95 732.613C1084.16 736.601 1079.46 742.335 1074.77 749.286C1066.92 760.937 1059.21 775.845 1051.19 791.348L1051.19 791.349L1051.19 791.35C1049.63 794.358 1048.06 797.389 1046.48 800.423C1036.77 819.046 1026.5 837.763 1014.98 851.826C1003.48 865.872 990.568 875.48 975.53 875.48C968.101 875.48 963.24 873.546 960.625 869.821C958.041 866.141 957.879 861.019 959.059 855.196C960.246 849.339 962.839 842.537 966.074 835.287C968.814 829.146 972.036 822.636 975.291 816.061L975.292 816.06L975.292 816.06L975.325 815.994C975.904 814.823 976.484 813.65 977.063 812.477C984.782 796.837 992.18 781.207 993.674 769.108C994.418 763.081 993.671 758.107 990.942 754.459C988.223 750.823 983.374 748.289 975.431 747.495C949.854 744.937 923.905 756.128 901.778 771.301C879.669 786.461 861.518 805.501 851.582 818.39L849.998 817.169C860.042 804.139 878.341 784.947 900.647 769.651C922.935 754.368 949.366 742.879 975.63 745.505C983.886 746.331 989.365 749.011 992.544 753.261C995.712 757.497 996.433 763.079 995.659 769.353C994.115 781.858 986.528 797.818 978.857 813.363C978.265 814.563 977.672 815.76 977.08 816.955L977.08 816.956C973.824 823.533 970.623 830.001 967.9 836.102C964.68 843.319 962.161 849.958 961.019 855.593C959.87 861.262 960.163 865.683 962.262 868.672C964.33 871.618 968.38 873.48 975.53 873.48C989.652 873.48 1002.05 864.458 1013.43 850.559C1024.8 836.677 1034.99 818.134 1044.71 799.497C1046.28 796.482 1047.84 793.463 1049.4 790.462C1057.41 774.961 1065.19 759.925 1073.12 748.169C1077.85 741.148 1082.67 735.238 1087.67 731.075C1092.68 726.91 1097.93 724.44 1103.51 724.44C1109 724.44 1112.63 726.256 1114.55 729.699C1116.41 733.031 1116.52 737.646 1115.66 742.914C1114.08 752.611 1109.08 765.29 1103.98 778.225C1103.53 779.381 1103.07 780.538 1102.62 781.696C1097.04 795.907 1091.68 810.146 1090.61 821.218C1090.07 826.748 1090.62 831.332 1092.61 834.7C1094.56 838.012 1098 840.311 1103.65 841.089C1109.21 841.856 1114.71 840.146 1120.23 836.425C1125.76 832.698 1131.26 826.988 1136.76 819.877C1147.74 805.689 1158.55 786.143 1169.57 766.233L1169.66 766.063C1180.69 746.136 1191.91 725.866 1203.64 710.482C1215.31 695.157 1227.72 684.361 1241.18 683.94C1247.88 683.731 1252.31 685.728 1254.8 689.645C1257.24 693.463 1257.68 698.872 1257.04 705.115C1256.4 711.392 1254.64 718.719 1252.48 726.526C1251.4 730.435 1250.21 734.477 1249.01 738.58L1248.95 738.765L1248.95 738.776L1248.95 738.783C1247.76 742.823 1246.56 746.921 1245.41 751.021C1243.09 759.362 1241.03 767.679 1239.89 775.466C1238.75 783.26 1238.55 790.458 1239.91 796.58C1241.26 802.677 1244.14 807.682 1249.18 811.184C1254.24 814.702 1261.58 816.78 1271.99 816.78V818.78C1261.34 818.78 1253.55 816.656 1248.04 812.827C1242.51 808.982 1239.39 803.495 1237.96 797.012C1236.53 790.553 1236.76 783.083 1237.91 775.177C1239.07 767.264 1241.15 758.85 1243.49 750.484C1244.63 746.367 1245.84 742.255 1247.03 738.216L1247.09 738.016C1248.3 733.911 1249.48 729.884 1250.55 725.993C1252.71 718.201 1254.42 711.011 1255.05 704.911C1255.68 698.775 1255.18 693.946 1253.12 690.721ZM1566.17 785.093C1564.3 778.859 1560.38 772.044 1555.16 764.961C1549.94 757.869 1543.39 750.455 1536.21 743.021C1524.25 730.633 1510.48 718.138 1498.15 706.943L1498.15 706.942C1495.69 704.706 1493.28 702.522 1490.96 700.402C1483.97 694.023 1477.74 688.219 1472.94 683.275C1468.09 678.294 1464.82 674.301 1463.61 671.53C1463 670.13 1463.04 669.328 1463.3 668.885C1463.55 668.45 1464.23 667.963 1465.95 667.792C1469.36 667.453 1475.62 668.483 1485.56 671.322L1486.11 669.398C1476.2 666.567 1469.59 665.42 1465.75 665.802C1463.85 665.992 1462.31 666.59 1461.56 667.891C1460.82 669.184 1461.1 670.768 1461.78 672.329C1463.15 675.481 1466.69 679.715 1471.5 684.669C1476.35 689.66 1482.63 695.5 1489.61 701.878C1491.94 704.001 1494.34 706.183 1496.8 708.415L1496.82 708.436C1509.15 719.633 1522.86 732.074 1534.77 744.41C1541.92 751.81 1548.41 759.153 1553.55 766.147C1558.71 773.15 1562.48 779.751 1564.25 785.667C1565.15 788.673 1565.68 791.087 1565.88 792.979C1566.07 794.891 1565.92 796.163 1565.57 796.959C1565.26 797.679 1564.77 798.042 1564.05 798.171C1563.25 798.315 1562.11 798.17 1560.57 797.647C1557.52 796.604 1553.38 794.228 1548.34 790.869C1543.31 787.524 1537.46 783.26 1530.97 778.499C1530.17 777.91 1529.36 777.313 1528.54 776.71C1516.11 767.573 1501.6 756.907 1486.45 747.622C1470.32 737.729 1453.4 729.355 1437.43 726.08C1429.53 724.459 1423.98 723.776 1420.42 723.967C1418.66 724.061 1417.24 724.376 1416.27 725.025C1415.76 725.362 1415.37 725.798 1415.12 726.342C1414.88 726.883 1414.83 727.463 1414.9 728.043C1415.04 729.164 1415.66 730.382 1416.54 731.641C1417.44 732.922 1418.68 734.349 1420.2 735.902C1423.22 739.009 1427.42 742.706 1432.33 746.859C1435.24 749.319 1438.41 751.943 1441.74 754.706C1449.69 761.296 1458.6 768.681 1467.31 776.554C1479.67 787.726 1491.55 799.81 1499.58 811.855C1501.59 814.866 1502.91 817.271 1503.64 819.144C1504.38 821.057 1504.43 822.224 1504.18 822.883C1503.98 823.42 1503.49 823.854 1502.29 824.009C1501.06 824.168 1499.3 823.992 1497.02 823.463C1492.47 822.409 1486.18 820.042 1478.56 816.788C1470.96 813.539 1462.11 809.433 1452.44 804.926L1450.02 803.802C1431.24 795.047 1409.63 784.973 1388.46 776.878C1366.39 768.441 1344.69 762.109 1327.09 761.7C1320.07 761.537 1314.82 762.234 1311.13 763.702C1307.4 765.185 1305.18 767.495 1304.46 770.53C1303.76 773.49 1304.55 776.918 1306.29 780.559C1308.04 784.22 1310.82 788.229 1314.31 792.419C1328.26 809.16 1354.03 829.393 1373.48 842.901L1374.62 841.259C1355.19 827.767 1329.61 807.662 1315.85 791.139C1312.42 787.013 1309.75 783.148 1308.1 779.696C1306.43 776.224 1305.86 773.3 1306.41 770.989C1306.94 768.752 1308.57 766.871 1311.86 765.561C1315.19 764.236 1320.14 763.539 1327.05 763.7C1344.28 764.101 1365.71 770.324 1387.74 778.746C1408.85 786.815 1430.4 796.862 1449.2 805.624L1451.59 806.739C1461.26 811.243 1470.14 815.363 1477.78 818.627C1485.4 821.884 1491.83 824.314 1496.57 825.411C1498.92 825.958 1500.96 826.197 1502.54 825.993C1504.15 825.785 1505.5 825.078 1506.06 823.58C1506.57 822.205 1506.29 820.443 1505.5 818.418C1504.7 816.352 1503.29 813.809 1501.24 810.745C1493.07 798.49 1481.05 786.274 1468.66 775.07C1459.91 767.168 1450.95 759.735 1442.98 753.136L1442.98 753.134C1439.66 750.379 1436.51 747.769 1433.62 745.331C1428.71 741.181 1424.58 737.538 1421.63 734.506C1420.15 732.99 1418.99 731.649 1418.18 730.492C1417.35 729.313 1416.96 728.424 1416.88 727.798C1416.85 727.505 1416.89 727.302 1416.95 727.154C1417.02 727.008 1417.14 726.849 1417.38 726.689C1417.9 726.343 1418.88 726.053 1420.53 725.964C1423.81 725.788 1429.14 726.421 1437.03 728.04C1452.65 731.245 1469.34 739.476 1485.41 749.327C1500.48 758.566 1514.92 769.186 1527.36 778.329L1527.37 778.33C1528.18 778.931 1528.99 779.524 1529.79 780.111C1536.27 784.868 1542.16 789.159 1547.23 792.534C1552.28 795.896 1556.6 798.405 1559.93 799.54C1561.58 800.105 1563.11 800.371 1564.4 800.14C1565.78 799.894 1566.82 799.096 1567.41 797.76C1567.96 796.498 1568.08 794.819 1567.86 792.774C1567.65 790.709 1567.09 788.162 1566.17 785.093Z" fill="url(#paint36_linear)"/>
<path opacity="0.1" d="M705.157 739.448C571.927 739.448 549.557 783.701 314.57 783.701V853.42H1613V704.38C1327.91 704.38 1364.6 766.584 1119.03 766.584C873.459 766.584 820.534 739.448 705.157 739.448Z" fill="url(#paint37_linear)"/>
</g>
<path opacity="0.2" d="M792.507 411.869C906.589 297.787 906.629 112.784 792.598 -1.34713C678.566 -115.478 493.644 -115.519 379.563 -1.43723C265.481 112.644 265.441 297.647 379.472 411.778C493.504 525.91 678.426 525.95 792.507 411.869Z" fill="url(#paint38_linear)"/>
<path d="M396.438 430.741H401.982V797.347H396.438V430.741Z" fill="#0C5E59"/>
<path d="M360.608 399.141C374.141 399.141 386.901 408.839 395.795 417.762C389.801 409.227 381.488 398.947 375.108 396.813C364.281 393.322 355.194 395.068 355.194 395.068C355.194 395.068 365.441 380.714 380.521 387.503C387.288 390.412 392.895 399.917 396.955 409.033C394.635 400.499 393.088 390.412 394.441 381.102C398.115 357.826 424.215 355.886 424.215 355.886C424.215 355.886 409.715 376.059 407.008 399.917C406.621 403.02 406.428 406.124 406.235 409.033C408.555 395.262 413.968 378.774 427.115 370.046C459.788 348.321 480.282 386.727 480.282 386.727C480.282 386.727 461.528 375.089 436.975 387.503C417.641 397.201 409.328 418.344 406.621 426.684C409.908 420.284 423.248 396.425 444.902 392.74C477.382 387.309 485.695 428.624 485.695 428.624C485.695 428.624 467.135 413.689 444.128 414.658C426.341 415.434 413.388 422.805 407.008 428.624C410.295 427.654 417.835 425.909 426.535 425.909C455.342 425.521 461.335 464.12 461.335 464.12L406.621 430.564C408.941 435.025 413.775 444.336 416.481 450.93C420.155 459.853 417.835 479.638 417.835 479.638C417.835 479.638 408.941 464.508 406.428 454.616C403.915 445.111 404.495 435.219 404.881 430.564L367.761 470.715C367.761 470.715 358.674 446.275 386.515 434.443C390.188 432.891 393.475 431.534 395.988 430.564C389.221 431.534 381.101 434.249 372.788 439.68C356.548 450.155 346.301 464.508 346.301 464.508C346.301 464.508 336.247 434.831 360.994 423.193C369.114 419.314 378.394 419.896 386.321 421.641C380.328 418.15 372.594 415.628 363.121 416.792C340.694 419.508 334.507 435.607 334.507 435.607C334.507 435.607 328.127 398.947 360.608 399.141Z" fill="url(#paint39_linear)"/>
<path d="M554.375 773.59C551.988 762.607 548.05 752.221 542.8 742.671C542.084 741.358 541.249 739.925 540.414 738.612C534.328 728.465 526.81 719.392 518.099 711.513C517.025 710.439 515.832 709.483 514.639 708.528C505.331 700.769 494.711 694.442 483.256 689.905C481.824 689.308 480.392 688.831 478.96 688.353C467.505 684.295 455.095 682.026 442.327 681.788C441.611 681.788 440.776 681.788 440.06 681.788C439.344 681.788 438.508 681.788 437.792 681.788C424.905 682.026 412.614 684.295 401.159 688.353C399.727 688.831 398.295 689.428 396.863 689.905C385.408 694.442 374.788 700.769 365.48 708.528C364.287 709.483 363.094 710.558 362.02 711.513C353.309 719.392 345.672 728.465 339.706 738.612C338.87 739.925 338.155 741.358 337.319 742.671C332.069 752.221 328.131 762.607 325.745 773.59C325.387 775.142 325.148 776.694 324.79 778.246C323.597 784.931 323 791.736 323 798.66H557C557 791.736 556.403 784.812 555.21 778.246C554.971 776.694 554.733 775.142 554.375 773.59Z" fill="url(#paint40_linear)"/>
<path fill-rule="evenodd" clip-rule="evenodd" d="M437.793 681.668V798.66H442.327V681.668H440.06H437.793ZM396.864 689.905L425.979 798.779H430.633L401.04 688.353C400.696 688.479 400.344 688.604 399.986 688.731L399.985 688.731L399.985 688.731L399.985 688.731L399.985 688.731L399.985 688.731L399.985 688.731L399.985 688.731C398.976 689.09 397.92 689.465 396.864 689.905ZM412.376 798.66L362.02 711.513L362.343 711.226L362.343 711.226C363.33 710.346 364.406 709.389 365.481 708.528L417.507 798.66H412.376ZM337.319 742.671L393.403 798.779H399.727L339.587 738.612C339.229 739.269 338.841 739.955 338.453 740.641C338.065 741.328 337.677 742.014 337.319 742.671ZM360.23 798.66L324.79 778.246C324.988 777.389 325.149 776.533 325.314 775.656L325.314 775.656C325.448 774.944 325.584 774.219 325.745 773.471L369.299 798.66H360.23ZM449.367 798.779H454.021L483.137 689.905C481.705 689.308 480.273 688.831 478.841 688.353L449.367 798.779ZM467.744 798.779H462.493L514.639 708.648C515.832 709.603 517.026 710.558 518.1 711.632L467.744 798.779ZM480.273 798.779H486.597L542.681 742.671C541.965 741.358 541.13 739.925 540.294 738.612L480.273 798.779ZM519.89 798.779H510.821L554.375 773.709C554.733 775.261 555.091 776.813 555.33 778.365L519.89 798.779Z" fill="url(#paint41_linear)"/>
<path d="M388.373 683.941C377.404 683.941 373.29 674.339 373.29 660.965C373.29 647.59 369.52 636.616 354.78 635.931C335.584 635.245 337.298 653.763 337.298 676.397C337.298 705.203 327.014 686.685 312.617 702.803C300.277 716.52 316.045 740.869 320.844 748.07H382.888C384.945 744.298 390.087 735.039 395.914 723.722C408.94 699.716 399.342 683.941 388.373 683.941Z" fill="url(#paint42_linear)"/>
<path opacity="0.2" fill-rule="evenodd" clip-rule="evenodd" d="M358.893 688.4H355.809V731.407L342.849 714.121L340.381 715.973L355.809 736.551V748.07H358.893V715.576L371.966 699.356L369.564 697.418L358.893 710.659V688.4Z" fill="white"/>
<path d="M401.056 748.413H309.189V799.511H401.056V748.413Z" fill="white"/>
<path d="M1608 -3H323V797H1508C1563.23 797 1608 752.228 1608 697V-3Z" fill="url(#paint43_linear)"/>
</g>
<path opacity="0.56" d="M1706.26 556.321C1819.12 443.411 1819.12 260.349 1706.26 147.44C1593.4 34.5309 1410.41 34.531 1297.55 147.44C1184.69 260.349 1184.69 443.411 1297.55 556.32C1410.41 669.23 1593.4 669.23 1706.26 556.321Z" fill="url(#paint44_linear)"/>
<path opacity="0.2" d="M1358.36 748.553C1440.9 665.977 1440.9 532.094 1358.36 449.518C1275.82 366.941 1141.99 366.941 1059.45 449.518C976.912 532.094 976.912 665.977 1059.45 748.553C1141.99 831.129 1275.82 831.13 1358.36 748.553Z" fill="url(#paint45_linear)"/>
<path d="M231.558 1073.49C231.558 1110.31 252.763 1140.06 278.844 1140.06H326.131C352.211 1140.06 373.173 1110.07 373.173 1073.49C373.173 1036.67 351.968 1006.92 325.887 1006.92C325.399 1006.92 325.156 1006.92 324.668 1006.92H278.844C252.52 1006.92 231.558 1036.91 231.558 1073.49Z" fill="#442B2B"/>
<path d="M602.049 1072.76C602.049 1109.58 623.255 1139.33 649.336 1139.33H696.622C722.703 1139.33 743.665 1109.34 743.665 1072.76C743.665 1035.94 722.459 1006.19 696.379 1006.19C695.891 1006.19 695.647 1006.19 695.16 1006.19H649.336C623.011 1006.19 602.049 1035.94 602.049 1072.76Z" fill="#402B2B"/>
<path d="M0 974.489L14.3809 942.3H57.5238L58.0112 1064.23L0.24376 1064.47L0 974.489Z" fill="black"/>
<path d="M228.388 1067.15L418.752 1066.66L396.815 1053.74L252.762 1053.98L228.388 1067.15Z" fill="#442B2B"/>
<path d="M48.7485 958.638L48.9923 1080.81L203.527 1080.56L252.763 1053.98L396.816 1053.74L441.178 1080.08L755.609 1079.34C760.727 1079.34 764.871 1075.2 764.871 1070.08L764.627 957.175L48.7485 958.638Z" fill="#822626"/>
<path d="M385.604 986.438L632.274 985.95L631.786 762.338C631.786 753.316 624.474 746 615.212 746L384.873 746.488L385.604 986.438Z" fill="#EF5F53"/>
<path d="M0.975275 987.413L385.361 986.681L384.873 746.732L16.8187 747.463C7.80013 747.463 0.487793 754.779 0.487793 764.045L0.975275 987.413Z" fill="#F39476"/>
<path d="M570.851 1072.76C570.851 1109.58 549.889 1139.33 523.808 1139.33H476.765V1116.9C459.459 1116.9 445.322 1097.15 445.322 1072.76C445.322 1048.38 459.216 1028.62 476.522 1028.62V1006.19H523.564C549.645 1006.43 570.607 1036.18 570.851 1072.76Z" fill="#402B2B"/>
<path d="M437.766 1073.25C437.766 1103.49 455.072 1127.87 476.521 1127.63C497.971 1127.63 515.033 1103.24 515.033 1073C515.033 1042.77 497.727 1018.38 476.277 1018.63C455.072 1018.63 437.766 1043.01 437.766 1073.25Z" fill="#4B2A2A"/>
<path opacity="0.32" d="M476.521 1109.09C490.658 1109.09 501.87 1093 501.87 1073C501.87 1053.01 490.414 1037.16 476.277 1037.16C462.14 1037.16 450.928 1053.25 450.928 1073.25C450.928 1093.24 462.384 1109.09 476.521 1109.09ZM476.521 1051.79C484.808 1051.79 491.633 1061.3 491.633 1073C491.633 1084.71 484.808 1094.46 476.521 1094.46C468.234 1094.46 461.409 1084.95 461.409 1073.25C461.409 1061.3 467.99 1051.79 476.521 1051.79Z" fill="#E14841"/>
<path d="M476.521 1139.58C502.602 1139.58 523.564 1109.58 523.564 1073C523.564 1036.43 502.358 1006.43 476.277 1006.43C450.196 1006.43 429.234 1036.43 429.234 1073C429.234 1109.58 450.684 1139.82 476.521 1139.58ZM476.277 1018.63C497.727 1018.63 515.033 1043.01 515.033 1073C515.033 1103.24 497.97 1127.63 476.521 1127.63C455.071 1127.63 437.765 1103.24 437.765 1073.25C437.765 1043.01 455.071 1018.63 476.277 1018.63Z" fill="#402B2B"/>
<path opacity="0.32" d="M469.94 1073C469.94 1067.88 472.865 1063.98 476.277 1063.98C479.69 1063.98 482.615 1068.13 482.858 1073C482.858 1078.13 479.934 1082.03 476.521 1082.03C472.865 1082.27 469.94 1078.13 469.94 1073Z" fill="#E14841"/>
<path d="M200.115 1073.74C200.115 1110.56 179.153 1140.31 153.072 1140.31H106.029V1117.87C88.7236 1117.87 74.5864 1098.12 74.5864 1073.74C74.5864 1049.35 88.4799 1029.6 105.786 1029.6V1007.16H152.828C178.909 1007.16 200.115 1036.91 200.115 1073.74Z" fill="black"/>
<path d="M795.583 890.604C795.583 891.579 796.315 892.311 797.046 892.555C798.996 893.042 806.308 893.042 808.502 892.311C809.477 892.067 810.452 891.336 810.452 890.116C811.183 870.608 811.183 851.588 810.452 833.543C810.452 832.324 809.477 831.592 808.502 831.348C806.064 830.617 797.533 830.129 794.852 831.104C793.877 831.348 793.146 832.324 793.146 833.299C792.658 851.832 793.39 870.852 795.583 890.604Z" fill="#CD2827"/>
<path d="M783.64 907.917C783.883 907.917 784.127 907.917 784.615 907.674L801.189 899.383C805.089 897.432 807.527 893.53 807.527 889.141L807.283 827.934C807.283 825.496 805.333 823.545 802.895 823.545H757.315C756.096 823.545 755.365 824.52 755.365 825.496C755.365 826.715 756.34 827.446 757.315 827.446H802.895C803.139 827.446 803.139 827.69 803.139 827.69L803.383 888.897C803.383 891.823 801.677 894.262 799.239 895.481L782.665 903.772C781.69 904.26 781.202 905.479 781.69 906.454C782.177 907.674 782.908 907.917 783.64 907.917Z" fill="#822626"/>
<path d="M418.753 985.95C418.753 985.95 425.091 985.95 434.841 985.95H473.596C502.602 985.95 509.427 1000.34 527.22 1035.7L583.525 1035.45C583.525 1035.45 583.525 1031.31 583.525 1024.23L798.508 1023.75C799.483 1005.95 801.433 969.856 801.433 935.716C801.433 934.497 801.433 933.522 801.433 932.302C801.433 922.548 799.727 911.819 796.802 901.09C785.346 859.147 756.34 814.522 744.397 798.184C740.497 792.82 737.084 788.186 734.159 784.041C725.872 773.068 720.266 767.459 709.785 767.459L449.222 768.191C443.859 768.191 438.984 771.848 437.522 776.969C415.097 859.391 418.51 922.061 418.753 985.95ZM638.368 797.209C638.124 795.99 639.099 795.014 640.318 795.014L719.535 794.77C724.166 794.77 728.797 797.209 731.722 801.354C762.677 843.541 775.108 882.069 779.74 904.26L784.615 927.669C785.346 931.083 783.152 933.766 779.74 933.766H760.484C757.315 933.766 753.903 932.302 751.465 929.864L711.979 892.067C707.591 887.922 701.741 885.483 696.135 885.483H648.849L638.368 797.209Z" fill="#CD2827"/>
<path d="M597.418 901.821C599.125 909.624 601.075 917.671 602.781 926.206C604 932.059 609.118 936.204 614.968 936.448C691.991 939.13 755.853 939.374 801.433 935.96C801.433 934.741 801.433 933.766 801.433 932.546C801.433 922.792 799.727 912.063 796.802 901.333L597.418 901.821Z" fill="#822626"/>
<path opacity="0.75" d="M455.072 795.258L534.289 795.014C538.92 795.014 543.064 797.453 545.257 801.598C567.438 843.785 572.069 882.313 572.069 904.503V927.913C572.069 931.327 569.388 934.01 565.976 934.01H546.72C543.551 934.01 540.382 932.546 538.432 930.108L506.746 892.311C503.089 888.165 497.971 885.483 492.365 885.727H445.078L452.634 797.453C452.634 796.233 453.609 795.258 455.072 795.258Z" fill="#402B2B"/>
<path d="M418.753 985.95C418.753 985.95 425.091 985.95 434.841 985.95H473.596C502.602 985.95 509.427 1000.34 527.22 1035.7L583.525 1035.45C583.525 1035.45 583.525 1031.31 583.525 1024.23L798.508 1023.75C799.483 1005.95 801.433 969.856 801.433 935.716C755.853 939.13 691.748 939.13 614.968 936.204C609.118 935.96 604 931.815 602.781 925.962C601.075 917.428 599.125 909.137 597.418 901.577C586.937 856.952 575.481 825.008 560.369 790.381C559.151 787.699 561.1 784.529 564.025 784.529L734.159 784.041C725.872 773.068 720.266 767.459 709.785 767.459L449.222 768.191C443.859 768.191 438.984 771.848 437.522 776.969C415.097 859.391 418.51 922.061 418.753 985.95ZM444.834 885.727L452.39 797.453C452.39 796.233 453.609 795.258 454.828 795.258L534.045 795.014C538.676 795.014 542.82 797.453 545.013 801.598C567.194 843.784 571.825 882.313 571.825 904.503V927.913C571.825 931.327 569.144 934.009 565.732 934.009H546.476C543.307 934.009 540.138 932.546 538.188 930.108L506.502 892.311C502.845 888.165 497.727 885.483 492.121 885.727H444.834Z" fill="url(#paint46_linear)"/>
<path d="M428.26 979.61C428.26 983.267 431.185 985.95 434.841 985.95H473.596C502.602 985.95 509.427 1000.34 527.22 1035.7L583.525 1035.45C583.525 1035.45 583.525 1031.31 583.525 1024.23L583.282 925.475C583.282 876.461 574.507 845.492 551.351 796.477C547.939 789.162 540.383 784.529 532.339 784.529L448.491 784.773C446.541 784.773 445.078 785.992 444.591 787.699C428.016 850.612 428.016 953.03 428.26 979.61ZM444.835 885.727L452.391 797.453C452.391 796.234 453.609 795.258 454.828 795.258L534.045 795.014C538.676 795.014 542.82 797.453 545.014 801.598C567.194 843.785 571.826 882.313 571.826 904.503V927.913C571.826 931.327 569.144 934.009 565.732 934.009H546.476C543.307 934.009 540.139 932.546 538.189 930.108L506.502 892.311C502.846 888.165 497.727 885.483 492.121 885.727H444.835Z" fill="url(#paint47_linear)"/>
<path d="M455.559 798.184L534.289 797.94C537.701 797.94 540.87 799.891 542.576 802.817C565.488 846.467 569.144 885.239 569.144 904.26V927.669C569.144 929.376 567.682 930.839 565.976 930.839H546.72C544.282 930.839 542.089 929.864 540.626 928.157L508.939 890.36C504.796 885.483 498.702 882.557 492.121 882.557H448.247L455.559 798.184ZM455.072 795.258C453.853 795.258 452.634 796.233 452.634 797.453L445.078 885.727H492.365C497.971 885.727 503.089 888.165 506.746 892.311L538.432 930.108C540.382 932.546 543.551 934.01 546.72 934.01H565.976C569.388 934.01 572.069 931.327 572.069 927.913V904.503C572.069 882.313 567.438 843.785 545.257 801.598C543.064 797.453 538.92 795.014 534.289 795.014L455.072 795.258Z" fill="#822626"/>
<path opacity="0.4" d="M583.281 977.659V1024.23L668.348 1023.99C667.373 1011.8 665.18 1000.09 661.523 989.12C660.061 984.731 656.405 981.56 651.774 980.829C633.005 978.634 609.118 977.659 583.281 977.659ZM755.365 1023.99H797.533C798.264 1013.75 798.995 997.167 799.727 978.39C789.489 978.878 779.983 979.853 771.452 981.073C766.821 981.804 763.165 984.974 761.703 989.364C758.29 1000.09 756.34 1011.8 755.365 1023.99Z" fill="#CD2827"/>
<path d="M583.525 1071.05L780.715 1070.57C794.121 1070.57 805.089 1059.59 805.089 1046.18V1042.04C805.089 1038.13 801.921 1035.21 798.264 1035.21L583.769 1035.7L583.525 1071.05Z" fill="#EE4D47"/>
<path d="M547.207 1071.05H583.525V1035.7H527.707L533.801 1060.32C535.263 1066.66 540.869 1071.05 547.207 1071.05Z" fill="#CD2827"/>
<path d="M460.434 942.057C468.722 942.301 484.809 944.008 484.809 949.86C484.809 955.712 470.672 957.663 459.216 957.663C447.76 957.663 446.541 951.323 445.566 948.641C444.835 945.958 444.103 941.813 460.434 942.057Z" fill="#CD2827"/>
<path d="M461.166 948.397C457.266 948.397 453.122 947.177 451.172 945.227C452.635 944.495 454.829 943.764 458.241 943.764C464.578 943.764 474.816 944.495 480.178 946.934C479.447 947.421 477.497 948.397 474.328 948.397C470.428 948.397 465.31 948.397 461.166 948.397Z" fill="#9B1616"/>
<path d="M477.497 953.03C478.959 953.03 479.69 953.274 479.934 953.518C475.547 955.468 467.503 956.2 463.603 956.2C457.997 956.2 454.097 956.2 452.878 954.981C453.853 954.249 456.047 953.03 458.241 953.03C461.166 953.274 475.547 953.03 477.497 953.03Z" fill="#9B1616"/>
<path d="M583.525 1024.48C583.525 1031.55 583.525 1035.7 583.525 1035.7L797.777 1035.21C797.777 1035.21 798.021 1031.06 798.508 1023.99L583.525 1024.48Z" fill="#822626"/>
<g opacity="0.2">
<path d="M675.904 975.22V1021.8L747.809 1021.55V974.976C747.809 969.368 742.69 964.979 736.353 964.979H687.117C681.023 965.222 675.904 969.856 675.904 975.22Z" fill="#822626"/>
</g>
<path d="M771.94 1020.09H787.052C790.952 1020.09 794.364 1016.92 794.364 1012.77V1005.21C794.364 1001.31 791.196 997.899 787.052 997.899H771.94C768.04 997.899 764.627 1001.07 764.627 1005.21V1012.77C764.627 1016.92 768.04 1020.09 771.94 1020.09Z" fill="white"/>
<path d="M628.861 1020.58H643.973C647.873 1020.58 651.286 1017.41 651.286 1013.26V1005.7C651.286 1001.8 648.117 998.386 643.973 998.386H628.861C624.961 998.386 621.549 1001.56 621.549 1005.7V1013.26C621.549 1017.16 624.718 1020.58 628.861 1020.58Z" fill="white"/>
<path d="M531.363 891.092C531.363 892.067 532.094 892.799 532.825 893.042C542.332 894.018 552.325 894.018 562.562 892.799C563.781 892.555 564.512 891.823 564.512 890.604C565.244 871.096 565.244 852.075 564.512 834.03C564.512 832.811 563.537 832.08 562.562 831.836C552.081 830.617 541.6 830.617 530.632 831.836C529.657 832.08 528.926 833.055 528.926 834.03C528.194 852.319 529.169 871.34 531.363 891.092Z" fill="#CD2827"/>
<path d="M569.143 908.405C569.874 908.405 570.605 907.917 570.849 907.186C571.337 906.21 570.849 904.991 569.874 904.504L553.3 896.456C550.862 895.237 549.156 892.555 549.156 889.872L548.912 828.666C548.912 828.422 549.156 828.422 549.156 828.422H559.393C560.612 828.422 561.343 827.446 561.343 826.471C561.343 825.252 560.368 824.52 559.393 824.52H549.156C546.718 824.52 544.769 826.471 544.769 828.91L545.012 890.116C545.012 894.506 547.45 898.407 551.35 900.358L567.924 908.405C568.656 908.405 568.899 908.405 569.143 908.405Z" fill="#822626"/>
<path d="M680.93 1073.94L749.91 1073.79L749.865 1053.07L680.885 1053.22L680.93 1073.94Z" fill="white"/>
<path opacity="0.8" d="M559.9 791.118C575.012 825.745 586.224 857.69 596.949 902.315L796.332 901.827C784.876 859.884 755.871 815.26 743.927 798.922C740.027 793.557 736.615 788.924 733.69 784.778L563.556 785.266C560.631 785.51 558.681 788.436 559.9 791.118Z" fill="#8E6362"/>
<path d="M71.1729 1073.98C71.1729 1104.22 88.4788 1128.6 109.928 1128.36C131.378 1128.36 148.44 1103.97 148.44 1073.74C148.44 1043.5 131.134 1019.11 109.685 1019.36C88.235 1019.36 71.1729 1043.74 71.1729 1073.98Z" fill="black"/>
<path d="M109.928 1109.83C124.065 1109.83 135.278 1093.73 135.278 1073.74C135.278 1053.98 123.822 1037.89 109.684 1037.89C95.5472 1037.89 84.335 1053.98 84.335 1073.98C84.335 1093.98 95.791 1109.83 109.928 1109.83ZM109.684 1052.52C117.972 1052.52 124.797 1062.03 124.797 1073.74C124.797 1085.44 117.972 1095.2 109.684 1095.2C101.397 1095.2 94.5722 1085.69 94.5722 1073.98C94.5722 1062.03 101.397 1052.52 109.684 1052.52Z" fill="#625C5C"/>
<path d="M109.929 1140.55C136.009 1140.55 156.971 1110.56 156.971 1073.98C156.971 1037.16 135.766 1007.41 109.685 1007.41C83.6042 1007.41 62.6421 1037.4 62.6421 1073.98C62.6421 1110.8 83.8479 1140.55 109.929 1140.55ZM109.685 1019.36C131.134 1019.36 148.44 1043.74 148.44 1073.74C148.44 1103.73 131.378 1128.36 109.929 1128.36C88.4791 1128.36 71.1732 1103.97 71.1732 1073.98C71.1732 1043.99 88.2353 1019.36 109.685 1019.36Z" fill="#424242"/>
<path d="M103.347 1073.98C103.347 1068.86 106.272 1064.96 109.684 1064.96C113.341 1064.96 116.022 1069.1 116.266 1073.98C116.266 1079.1 113.341 1083 109.928 1083C106.272 1083 103.347 1078.86 103.347 1073.98Z" fill="#8B8282"/>
<defs>
<linearGradient id="paint0_linear" x1="1215.27" y1="1116.08" x2="229.511" y2="303.262" gradientUnits="userSpaceOnUse">
<stop stop-color="#FFEDBA"/>
<stop offset="1" stop-color="#EE4D47"/>
</linearGradient>
<linearGradient id="paint1_linear" x1="1116" y1="987" x2="259.475" y2="255.836" gradientUnits="userSpaceOnUse">
<stop stop-color="#FFEDBA"/>
<stop offset="1" stop-color="#EE4D47"/>
</linearGradient>
<linearGradient id="paint2_linear" x1="1188" y1="-215" x2="1188" y2="889" gradientUnits="userSpaceOnUse">
<stop stop-color="#F4A984"/>
<stop offset="1" stop-color="#F4A984" stop-opacity="0"/>
</linearGradient>
<linearGradient id="paint3_linear" x1="1421.95" y1="444.562" x2="1421.95" y2="724.313" gradientUnits="userSpaceOnUse">
<stop offset="0.240793" stop-color="#2CA77F"/>
<stop offset="1" stop-color="#1B8877"/>
</linearGradient>
<linearGradient id="paint4_linear" x1="1421.95" y1="444.562" x2="1421.95" y2="724.313" gradientUnits="userSpaceOnUse">
<stop offset="0.240793" stop-color="#2CA77F"/>
<stop offset="1" stop-color="#1B8877"/>
</linearGradient>
<linearGradient id="paint5_linear" x1="1421.95" y1="444.562" x2="1421.95" y2="724.313" gradientUnits="userSpaceOnUse">
<stop offset="0.240793" stop-color="#2CA77F"/>
<stop offset="1" stop-color="#1B8877"/>
</linearGradient>
<linearGradient id="paint6_linear" x1="1428.84" y1="455.726" x2="1428.84" y2="709.866" gradientUnits="userSpaceOnUse">
<stop stop-color="white"/>
<stop offset="1" stop-color="white" stop-opacity="0"/>
</linearGradient>
<linearGradient id="paint7_linear" x1="1539.82" y1="524.679" x2="1539.82" y2="718.403" gradientUnits="userSpaceOnUse">
<stop offset="0.422311" stop-color="#2CA77F"/>
<stop offset="1" stop-color="#1B8877"/>
</linearGradient>
<linearGradient id="paint8_linear" x1="1539.82" y1="524.679" x2="1539.82" y2="718.403" gradientUnits="userSpaceOnUse">
<stop offset="0.422311" stop-color="#2CA77F"/>
<stop offset="1" stop-color="#1B8877"/>
</linearGradient>
<linearGradient id="paint9_linear" x1="1538.84" y1="554.23" x2="1538.84" y2="712.493" gradientUnits="userSpaceOnUse">
<stop stop-color="white"/>
<stop offset="1" stop-color="white" stop-opacity="0"/>
</linearGradient>
<linearGradient id="paint10_linear" x1="1233.48" y1="473.457" x2="1233.48" y2="765.803" gradientUnits="userSpaceOnUse">
<stop offset="0.422311" stop-color="#2CA77F"/>
<stop offset="1" stop-color="#1B8877"/>
</linearGradient>
<linearGradient id="paint11_linear" x1="1233.48" y1="473.457" x2="1233.48" y2="765.803" gradientUnits="userSpaceOnUse">
<stop offset="0.422311" stop-color="#2CA77F"/>
<stop offset="1" stop-color="#1B8877"/>
</linearGradient>
<linearGradient id="paint12_linear" x1="1225.27" y1="531.897" x2="1225.27" y2="739.254" gradientUnits="userSpaceOnUse">
<stop stop-color="white"/>
<stop offset="1" stop-color="white" stop-opacity="0"/>
</linearGradient>
<linearGradient id="paint13_linear" x1="1407.16" y1="528.011" x2="1407.16" y2="587.03" gradientUnits="userSpaceOnUse">
<stop stop-color="#D3D86C"/>
<stop offset="1" stop-color="#82A637"/>
</linearGradient>
<linearGradient id="paint14_linear" x1="1313.59" y1="400.877" x2="1313.59" y2="508.918" gradientUnits="userSpaceOnUse">
<stop stop-color="#D3D86C"/>
<stop offset="1" stop-color="#82A637"/>
</linearGradient>
<linearGradient id="paint15_linear" x1="1134.78" y1="565.394" x2="1134.78" y2="713.547" gradientUnits="userSpaceOnUse">
<stop stop-color="#D3D86C"/>
<stop offset="1" stop-color="#82A637"/>
</linearGradient>
<linearGradient id="paint16_linear" x1="1134.84" y1="601.771" x2="1134.84" y2="713.547" gradientUnits="userSpaceOnUse">
<stop stop-color="#084F15" stop-opacity="0"/>
<stop offset="1" stop-color="#084F15"/>
</linearGradient>
<linearGradient id="paint17_linear" x1="1109.7" y1="608.158" x2="1109.7" y2="713.661" gradientUnits="userSpaceOnUse">
<stop stop-color="#084F15" stop-opacity="0"/>
<stop offset="1" stop-color="#084F15"/>
</linearGradient>
<linearGradient id="paint18_linear" x1="1086.79" y1="627.434" x2="1086.79" y2="713.547" gradientUnits="userSpaceOnUse">
<stop stop-color="#084F15" stop-opacity="0"/>
<stop offset="1" stop-color="#084F15"/>
</linearGradient>
<linearGradient id="paint19_linear" x1="1066.49" y1="656.176" x2="1066.49" y2="713.661" gradientUnits="userSpaceOnUse">
<stop stop-color="#084F15" stop-opacity="0"/>
<stop offset="1" stop-color="#084F15"/>
</linearGradient>
<linearGradient id="paint20_linear" x1="1045.97" y1="689.481" x2="1045.97" y2="713.547" gradientUnits="userSpaceOnUse">
<stop stop-color="#084F15" stop-opacity="0"/>
<stop offset="1" stop-color="#084F15"/>
</linearGradient>
<linearGradient id="paint21_linear" x1="1159.87" y1="608.158" x2="1159.87" y2="713.661" gradientUnits="userSpaceOnUse">
<stop stop-color="#084F15" stop-opacity="0"/>
<stop offset="1" stop-color="#084F15"/>
</linearGradient>
<linearGradient id="paint22_linear" x1="1182.84" y1="627.548" x2="1182.84" y2="713.661" gradientUnits="userSpaceOnUse">
<stop stop-color="#084F15" stop-opacity="0"/>
<stop offset="1" stop-color="#084F15"/>
</linearGradient>
<linearGradient id="paint23_linear" x1="1203.07" y1="656.176" x2="1203.07" y2="713.661" gradientUnits="userSpaceOnUse">
<stop stop-color="#084F15" stop-opacity="0"/>
<stop offset="1" stop-color="#084F15"/>
</linearGradient>
<linearGradient id="paint24_linear" x1="1258.2" y1="619.382" x2="1258.2" y2="713.661" gradientUnits="userSpaceOnUse">
<stop stop-color="#D3D86C"/>
<stop offset="1" stop-color="#82A637"/>
</linearGradient>
<linearGradient id="paint25_linear" x1="1258.31" y1="642.604" x2="1258.31" y2="713.661" gradientUnits="userSpaceOnUse">
<stop stop-color="#084F15" stop-opacity="0"/>
<stop offset="1" stop-color="#084F15"/>
</linearGradient>
<linearGradient id="paint26_linear" x1="1242.46" y1="646.482" x2="1242.46" y2="713.547" gradientUnits="userSpaceOnUse">
<stop stop-color="#084F15" stop-opacity="0"/>
<stop offset="1" stop-color="#084F15"/>
</linearGradient>
<linearGradient id="paint27_linear" x1="1227.87" y1="658.914" x2="1227.87" y2="713.661" gradientUnits="userSpaceOnUse">
<stop stop-color="#084F15" stop-opacity="0"/>
<stop offset="1" stop-color="#084F15"/>
</linearGradient>
<linearGradient id="paint28_linear" x1="1214.93" y1="677.049" x2="1214.93" y2="713.547" gradientUnits="userSpaceOnUse">
<stop stop-color="#084F15" stop-opacity="0"/>
<stop offset="1" stop-color="#084F15"/>
</linearGradient>
<linearGradient id="paint29_linear" x1="1201.93" y1="698.377" x2="1201.93" y2="713.661" gradientUnits="userSpaceOnUse">
<stop stop-color="#084F15" stop-opacity="0"/>
<stop offset="1" stop-color="#084F15"/>
</linearGradient>
<linearGradient id="paint30_linear" x1="1274.27" y1="646.71" x2="1274.27" y2="713.661" gradientUnits="userSpaceOnUse">
<stop stop-color="#084F15" stop-opacity="0"/>
<stop offset="1" stop-color="#084F15"/>
</linearGradient>
<linearGradient id="paint31_linear" x1="1288.87" y1="658.914" x2="1288.87" y2="713.661" gradientUnits="userSpaceOnUse">
<stop stop-color="#084F15" stop-opacity="0"/>
<stop offset="1" stop-color="#084F15"/>
</linearGradient>
<linearGradient id="paint32_linear" x1="1301.8" y1="677.163" x2="1301.8" y2="713.661" gradientUnits="userSpaceOnUse">
<stop stop-color="#084F15" stop-opacity="0"/>
<stop offset="1" stop-color="#084F15"/>
</linearGradient>
<linearGradient id="paint33_linear" x1="1314.8" y1="698.377" x2="1314.8" y2="713.661" gradientUnits="userSpaceOnUse">
<stop stop-color="#084F15" stop-opacity="0"/>
<stop offset="1" stop-color="#084F15"/>
</linearGradient>
<linearGradient id="paint34_linear" x1="642.869" y1="425.786" x2="642.869" y2="894.717" gradientUnits="userSpaceOnUse">
<stop offset="0.278352" stop-color="#EEEF99"/>
<stop offset="0.76976" stop-color="#B9D079"/>
</linearGradient>
<linearGradient id="paint35_linear" x1="642.869" y1="425.786" x2="642.869" y2="894.717" gradientUnits="userSpaceOnUse">
<stop offset="0.278352" stop-color="#EEEF99"/>
<stop offset="0.76976" stop-color="#B9D079"/>
</linearGradient>
<linearGradient id="paint36_linear" x1="1039.76" y1="710.737" x2="1039.76" y2="923.053" gradientUnits="userSpaceOnUse">
<stop stop-color="white"/>
<stop offset="1" stop-color="white" stop-opacity="0"/>
</linearGradient>
<linearGradient id="paint37_linear" x1="963.785" y1="647.774" x2="963.785" y2="857.992" gradientUnits="userSpaceOnUse">
<stop offset="0.164151" stop-color="#82A637"/>
<stop offset="0.890649" stop-color="#1B8877"/>
</linearGradient>
<linearGradient id="paint38_linear" x1="379.584" y1="-99.4676" x2="379.662" y2="256.265" gradientUnits="userSpaceOnUse">
<stop stop-color="white"/>
<stop offset="1" stop-color="white" stop-opacity="0"/>
</linearGradient>
<linearGradient id="paint39_linear" x1="409.848" y1="315.444" x2="409.848" y2="479.638" gradientUnits="userSpaceOnUse">
<stop stop-color="#D3D86C"/>
<stop offset="1" stop-color="#82A637"/>
</linearGradient>
<linearGradient id="paint40_linear" x1="440" y1="643.593" x2="440" y2="798.66" gradientUnits="userSpaceOnUse">
<stop stop-color="#D3D86C"/>
<stop offset="1" stop-color="#82A637"/>
</linearGradient>
<linearGradient id="paint41_linear" x1="533.075" y1="681.397" x2="533.075" y2="952.894" gradientUnits="userSpaceOnUse">
<stop stop-color="#084F15" stop-opacity="0"/>
<stop offset="1" stop-color="#084F15"/>
</linearGradient>
<linearGradient id="paint42_linear" x1="355.095" y1="635.912" x2="355.095" y2="770.859" gradientUnits="userSpaceOnUse">
<stop offset="0.422311" stop-color="#2CA77F"/>
<stop offset="1" stop-color="#1B8877"/>
</linearGradient>
<linearGradient id="paint43_linear" x1="1215.27" y1="461" x2="1215.27" y2="-231" gradientUnits="userSpaceOnUse">
<stop stop-color="#FFEDBA" stop-opacity="0"/>
<stop offset="1" stop-color="#EB2A24"/>
</linearGradient>
<linearGradient id="paint44_linear" x1="1297.55" y1="50.4384" x2="1297.71" y2="402.438" gradientUnits="userSpaceOnUse">
<stop stop-color="white"/>
<stop offset="1" stop-color="white" stop-opacity="0"/>
</linearGradient>
<linearGradient id="paint45_linear" x1="1059.45" y1="378.575" x2="1059.56" y2="636.011" gradientUnits="userSpaceOnUse">
<stop stop-color="white"/>
<stop offset="1" stop-color="white" stop-opacity="0"/>
</linearGradient>
<linearGradient id="paint46_linear" x1="609.931" y1="705.369" x2="609.931" y2="1043.04" gradientUnits="userSpaceOnUse">
<stop stop-color="#F4A984"/>
<stop offset="1" stop-color="#EE4D47"/>
</linearGradient>
<linearGradient id="paint47_linear" x1="505.868" y1="457.646" x2="505.868" y2="1042.57" gradientUnits="userSpaceOnUse">
<stop stop-color="#F4A984"/>
<stop offset="0.560769" stop-color="#EE4D47"/>
</linearGradient>
</defs>
</svg>
