<svg width="1330" height="899" viewBox="0 0 1330 899" fill="none" xmlns="http://www.w3.org/2000/svg">
<path d="M1334 -3H49V797H1234C1289.23 797 1334 752.228 1334 697V-3Z" fill="url(#paint0_linear)"/>
<mask id="mask0" mask-type="alpha" maskUnits="userSpaceOnUse" x="49" y="-3" width="1285" height="800">
<path d="M1334 -3H49V797H1234C1289.23 797 1334 752.228 1334 697V-3Z" fill="url(#paint1_linear)"/>
</mask>
<g mask="url(#mask0)">
<path d="M1374.57 341.525H1363.74C1361.5 341.525 1359.68 343.343 1359.68 345.586V589.864C1359.68 592.948 1357.18 595.448 1354.09 595.448C1351.01 595.448 1348.51 592.948 1348.51 589.864V433.796C1348.51 428.273 1344.03 423.796 1338.51 423.796H1328.05C1322.53 423.796 1318.05 428.273 1318.05 433.796V443.59C1318.05 449.113 1313.57 453.59 1308.05 453.59H1242.07C1237.86 453.59 1234.45 457 1234.45 461.207V465.441C1234.45 467.31 1232.94 468.825 1231.07 468.825C1229.2 468.825 1227.68 470.34 1227.68 472.21V526.553C1227.68 531.133 1223.97 534.845 1219.39 534.845C1214.81 534.845 1211.1 538.558 1211.1 543.137V579.354C1211.1 584.877 1206.62 589.354 1201.1 589.354H1200.11C1194.59 589.354 1190.11 593.831 1190.11 599.354V652.329C1190.11 654.385 1188.45 656.052 1186.39 656.052C1184.33 656.052 1182.67 654.385 1182.67 652.329V345.248C1182.67 343.566 1181.3 342.202 1179.62 342.202C1177.94 342.202 1176.57 340.838 1176.57 339.156V312.237C1176.57 309.34 1174.23 306.991 1171.33 306.991C1168.43 306.991 1166.08 304.642 1166.08 301.745V275.673C1166.08 273.71 1164.49 272.119 1162.53 272.119C1160.57 272.119 1158.98 270.528 1158.98 268.565V247.247C1158.98 241.724 1154.5 237.247 1148.98 237.247H1123.62C1118.1 237.247 1113.62 241.724 1113.62 247.247V268.565C1113.62 270.528 1112.03 272.119 1110.07 272.119C1108.11 272.119 1106.51 273.71 1106.51 275.673V301.745C1106.51 304.642 1104.17 306.991 1101.27 306.991C1098.37 306.991 1096.02 309.34 1096.02 312.237V339.325C1096.02 340.727 1094.89 341.863 1093.48 341.863C1092.08 341.863 1090.95 343 1090.95 344.402V553.638C1090.95 556.909 1088.29 559.561 1085.02 559.561C1081.75 559.561 1079.1 562.212 1079.1 565.484V648.775C1079.1 652.794 1075.84 656.052 1071.82 656.052H1065.22C1064.85 656.052 1064.55 655.748 1064.55 655.374C1064.55 655 1064.24 654.697 1063.87 654.697H1061.67C1061.02 654.697 1060.49 654.167 1060.49 653.512C1060.49 652.858 1061.02 652.327 1061.67 652.327H1062.85C1063.79 652.327 1064.55 651.569 1064.55 650.635C1064.55 649.7 1063.79 648.942 1062.85 648.942H1061.84C1061.09 648.942 1060.49 648.335 1060.49 647.587C1060.49 646.84 1061.09 646.233 1061.84 646.233H1062.85C1063.79 646.233 1064.55 645.475 1064.55 644.54C1064.55 643.605 1063.79 642.848 1062.85 642.848H1061.67C1061.02 642.848 1060.49 642.317 1060.49 641.663C1060.49 641.008 1061.02 640.478 1061.67 640.478H1062.85C1063.79 640.478 1064.55 639.72 1064.55 638.785C1064.55 637.85 1063.79 637.092 1062.85 637.092H1061.67C1061.02 637.092 1060.49 636.561 1060.49 635.907C1060.49 635.253 1061.02 634.722 1061.67 634.722H1062.85C1063.79 634.722 1064.55 633.964 1064.55 633.029C1064.55 632.094 1063.79 631.336 1062.85 631.336H1061.67C1061.02 631.336 1060.49 630.806 1060.49 630.151C1060.49 629.497 1061.02 628.966 1061.67 628.966H1062.85C1063.79 628.966 1064.55 628.208 1064.55 627.274C1064.55 626.339 1063.79 625.581 1062.85 625.581H1061.67C1061.02 625.581 1060.49 625.05 1060.49 624.396C1060.49 623.741 1061.02 623.211 1061.67 623.211H1062.85C1063.79 623.211 1064.55 622.453 1064.55 621.518C1064.55 620.583 1063.79 619.825 1062.85 619.825H1061.67C1061.02 619.825 1060.49 619.295 1060.49 618.64C1060.49 617.986 1061.02 617.455 1061.67 617.455H1062.85C1063.79 617.455 1064.55 616.697 1064.55 615.762C1064.55 614.827 1063.79 614.07 1062.85 614.07H1061.67C1061.02 614.07 1060.49 613.539 1060.49 612.885C1060.49 612.23 1061.02 611.7 1061.67 611.7H1062.85C1063.79 611.7 1064.55 610.942 1064.55 610.007C1064.55 609.072 1063.79 608.314 1062.85 608.314H1061.67C1061.02 608.314 1060.49 607.783 1060.49 607.129C1060.49 606.475 1061.02 605.944 1061.67 605.944H1062.85C1063.79 605.944 1064.55 605.186 1064.55 604.251C1064.55 603.316 1063.79 602.558 1062.85 602.558H1061.67C1061.02 602.558 1060.49 602.028 1060.49 601.373C1060.49 600.719 1061.02 600.188 1061.67 600.188H1062.85C1063.79 600.188 1064.55 599.43 1064.55 598.496C1064.55 597.561 1063.79 596.803 1062.85 596.803H1062.52C1061.39 596.803 1060.49 595.893 1060.49 594.772V594.094C1060.49 592.972 1061.39 592.063 1062.52 592.063H1062.85C1063.79 592.063 1064.55 591.305 1064.55 590.37C1064.55 589.435 1063.79 588.677 1062.85 588.677H1061.67C1061.02 588.677 1060.49 588.147 1060.49 587.492C1060.49 586.838 1061.02 586.307 1061.67 586.307H1062.85C1063.79 586.307 1064.55 585.549 1064.55 584.614C1064.55 583.679 1063.79 582.922 1062.85 582.922H1061.67C1061.02 582.922 1060.49 582.391 1060.49 581.737C1060.49 581.082 1061.02 580.552 1061.67 580.552H1062.85C1063.79 580.552 1064.55 579.794 1064.55 578.859C1064.55 577.924 1063.79 577.166 1062.85 577.166H1061.67C1061.02 577.166 1060.49 576.635 1060.49 575.981C1060.49 575.327 1061.02 574.796 1061.67 574.796H1062.85C1063.79 574.796 1064.55 574.038 1064.55 573.103C1064.55 572.168 1063.79 571.41 1062.85 571.41H1061.67C1061.02 571.41 1060.49 570.88 1060.49 570.225C1060.49 569.571 1061.02 569.04 1061.67 569.04H1062.85C1063.79 569.04 1064.55 568.282 1064.55 567.348C1064.55 566.413 1063.79 565.655 1062.85 565.655H1061.67C1061.02 565.655 1060.49 565.124 1060.49 564.47C1060.49 563.815 1061.02 563.285 1061.67 563.285H1062.85C1063.79 563.285 1064.55 562.527 1064.55 561.592C1064.55 560.657 1063.79 559.899 1062.85 559.899H1061.67C1061.02 559.899 1060.49 559.369 1060.49 558.714C1060.49 558.06 1061.02 557.529 1061.67 557.529H1062.85C1063.79 557.529 1064.55 556.771 1064.55 555.836C1064.55 554.901 1063.79 554.144 1062.85 554.144H1061.67C1061.02 554.144 1060.49 553.613 1060.49 552.959C1060.49 552.304 1061.02 551.774 1061.67 551.774H1062.85C1063.79 551.774 1064.55 551.016 1064.55 550.081C1064.55 549.146 1063.79 548.388 1062.85 548.388H1061.67C1061.02 548.388 1060.49 547.857 1060.49 547.203C1060.49 546.548 1061.02 546.018 1061.67 546.018H1062.85C1063.79 546.018 1064.55 545.26 1064.55 544.325C1064.55 543.39 1063.79 542.632 1062.85 542.632H1061.67C1061.02 542.632 1060.49 542.102 1060.49 541.447C1060.49 540.793 1061.02 540.262 1061.67 540.262H1062.85C1063.79 540.262 1064.55 539.504 1064.55 538.57C1064.55 537.635 1063.79 536.877 1062.85 536.877H1061.67C1061.02 536.877 1060.49 536.346 1060.49 535.692C1060.49 535.037 1061.02 534.507 1061.67 534.507H1062.85C1063.79 534.507 1064.55 533.749 1064.55 532.814C1064.55 531.879 1063.79 531.121 1062.85 531.121H1061.67C1061.02 531.121 1060.49 530.591 1060.49 529.936C1060.49 529.282 1061.02 528.751 1061.67 528.751H1062.85C1063.79 528.751 1064.55 527.993 1064.55 527.058C1064.55 526.123 1063.79 525.366 1062.85 525.366H1061.67C1061.02 525.366 1060.49 524.835 1060.49 524.181C1060.49 523.526 1061.02 522.996 1061.67 522.996H1062.85C1063.79 522.996 1064.55 522.238 1064.55 521.303C1064.55 520.368 1063.79 519.61 1062.85 519.61H1062.52C1061.39 519.61 1060.49 518.701 1060.49 517.579V516.224C1060.49 515.102 1061.39 514.193 1062.52 514.193H1062.85C1063.79 514.193 1064.55 513.435 1064.55 512.5C1064.55 511.565 1063.79 510.807 1062.85 510.807H1061.67C1061.02 510.807 1060.49 510.277 1060.49 509.622C1060.49 508.968 1061.02 508.437 1061.67 508.437H1062.85C1063.79 508.437 1064.55 507.679 1064.55 506.744C1064.55 505.81 1063.79 505.052 1062.85 505.052H1061.67C1061.02 505.052 1060.49 504.521 1060.49 503.867C1060.49 503.212 1061.02 502.682 1061.67 502.682H1062.85C1063.79 502.682 1064.55 501.924 1064.55 500.989C1064.55 500.054 1063.79 499.296 1062.85 499.296H1061.67C1061.02 499.296 1060.49 498.765 1060.49 498.111C1060.49 497.457 1061.02 496.926 1061.67 496.926H1062.85C1063.79 496.926 1064.55 496.168 1064.55 495.233C1064.55 494.298 1063.79 493.54 1062.85 493.54H1062.52C1061.39 493.54 1060.49 492.631 1060.49 491.51V489.308C1060.49 488.467 1059.8 487.785 1058.96 487.785C1058.12 487.785 1057.44 487.103 1057.44 486.262V484.061C1057.44 482.004 1055.77 480.336 1053.72 480.336H1053.38C1051.13 480.336 1049.32 478.518 1049.32 476.275V465.438C1049.32 463.756 1047.95 462.392 1046.27 462.392C1044.59 462.392 1043.22 461.029 1043.22 459.346V447.761C1043.22 443.06 1039.95 438.994 1035.36 437.991L1024.61 435.646C1022.03 435.051 1020.21 432.758 1020.21 430.114V398.572C1020.21 397.918 1019.68 397.388 1019.02 397.388C1018.37 397.388 1017.84 397.918 1017.84 398.572V430.473C1017.84 432.429 1016.02 433.879 1014.12 433.445C1012.21 433.012 1010.39 434.461 1010.39 436.417V459.854C1010.39 461.256 1009.26 462.392 1007.86 462.392C1006.45 462.392 1005.32 463.529 1005.32 464.931V476.275C1005.32 478.518 1003.5 480.336 1001.26 480.336H1000.41C998.635 480.336 997.195 481.776 997.195 483.553V485.246C997.195 486.087 996.513 486.769 995.672 486.769C994.831 486.769 994.149 487.451 994.149 488.292V489.647C994.149 491.236 992.86 492.525 991.271 492.525H961.503C955.981 492.525 951.503 497.002 951.503 502.525V520.105C951.503 525.628 947.026 530.105 941.503 530.105H916.83C915.588 530.105 914.357 530.337 913.2 530.788L882.797 542.632C881.775 543.041 881.105 544.031 881.105 545.132V556.853C881.105 558.348 882.318 559.561 883.813 559.561H884.489C885.611 559.561 886.52 560.47 886.52 561.592C886.52 562.714 885.611 563.623 884.489 563.623H883.137C882.015 563.623 881.105 564.533 881.105 565.655C881.105 566.777 882.015 567.686 883.137 567.686H884.489C885.611 567.686 886.52 568.596 886.52 569.718C886.52 570.839 885.611 571.749 884.489 571.749H883.137C882.015 571.749 881.105 572.658 881.105 573.78C881.105 574.902 882.015 575.812 883.137 575.812H884.489C885.611 575.812 886.52 576.721 886.52 577.843C886.52 578.965 885.611 579.874 884.489 579.874H883.137C882.015 579.874 881.105 580.784 881.105 581.906C881.105 583.028 882.015 583.937 883.137 583.937H884.489C885.611 583.937 886.52 584.847 886.52 585.969C886.52 587.091 885.611 588 884.489 588H883.137C882.015 588 881.105 588.91 881.105 590.031C881.105 591.153 882.015 592.063 883.137 592.063H884.997C885.838 592.063 886.52 592.745 886.52 593.586C886.52 594.428 885.838 595.11 884.997 595.11H854.219C850.036 595.11 846.295 592.507 844.842 588.585L836.79 566.855C835.389 563.076 830.041 563.082 828.65 566.865C826.954 571.477 819.828 570.154 819.838 565.24C819.845 561.879 819.845 558.519 819.845 555.159C819.845 550.419 819.845 545.679 819.845 540.939C819.845 527.397 819.845 513.854 819.507 500.312C819.507 494.556 819.168 488.462 819.168 482.706C818.83 470.179 818.491 457.652 817.814 444.787C817.476 438.693 817.476 432.599 817.137 426.504C816.461 414.655 816.122 403.143 815.445 391.294C815.445 389.939 815.107 388.585 815.107 387.231C814.43 376.735 813.753 366.578 813.076 356.083C811.722 337.123 810.03 318.164 808.338 299.204C808.214 297.475 808.046 295.701 807.865 293.915C807.337 288.695 802.919 284.646 797.672 284.646H734.252C729.398 284.646 725.078 288.256 725.078 293.11C724.74 297.173 724.401 301.235 724.063 305.298C723.724 308.684 723.386 312.408 723.047 315.794C722.371 322.226 722.032 328.659 721.355 335.092C721.017 338.139 721.017 340.848 720.678 343.895C720.34 349.312 720.001 354.729 719.325 360.146C718.986 362.516 718.986 364.886 718.986 366.917C718.648 374.027 717.971 381.137 717.632 387.908C717.632 390.278 717.294 392.648 717.294 395.018C716.955 402.466 716.617 409.576 716.278 417.025C716.278 418.717 715.94 420.072 715.94 421.765C715.602 428.536 715.263 435.646 714.925 442.417C714.925 443.771 714.925 445.126 714.925 446.48C714.586 454.267 714.248 462.054 714.248 469.841C714.248 471.534 714.248 472.888 714.248 474.581C713.909 482.706 713.909 490.832 713.571 498.619V499.635C713.571 507.76 713.233 515.886 713.233 523.673C713.233 524.688 713.233 525.704 713.233 526.72C713.233 534.845 713.233 542.971 713.233 551.096C713.233 552.112 713.233 553.466 713.233 554.482C713.233 556.894 713.233 559.307 713.233 561.763C713.233 565.782 709.975 569.04 705.956 569.04C701.937 569.04 698.679 572.298 698.679 576.317V657.578C698.679 662.344 694.815 666.208 690.048 666.208H682.264C681.797 666.208 681.418 665.83 681.418 665.362C681.418 664.895 681.797 664.516 682.264 664.516H682.941C683.782 664.516 684.464 663.834 684.464 662.993V662.315C684.464 661.473 683.782 660.792 682.941 660.792C682.1 660.792 681.418 660.11 681.418 659.268V657.913C681.418 657.072 682.1 656.39 682.941 656.39C683.782 656.39 684.464 655.708 684.464 654.867V654.189C684.464 653.348 683.782 652.666 682.941 652.666C682.1 652.666 681.418 651.984 681.418 651.143V649.449C681.418 648.608 682.1 647.926 682.941 647.926C683.782 647.926 684.464 647.244 684.464 646.403V645.725C684.464 644.884 683.782 644.202 682.941 644.202C682.1 644.202 681.418 643.52 681.418 642.679V640.985C681.418 640.144 682.1 639.462 682.941 639.462C683.782 639.462 684.464 638.78 684.464 637.939V637.261C684.464 636.42 683.782 635.738 682.941 635.738C682.1 635.738 681.418 635.056 681.418 634.215V632.521C681.418 631.68 682.1 630.998 682.941 630.998C683.782 630.998 684.464 630.316 684.464 629.475V628.797C684.464 627.955 683.782 627.274 682.941 627.274C682.1 627.274 681.418 626.592 681.418 625.75V624.057C681.418 623.216 682.1 622.534 682.941 622.534C683.782 622.534 684.464 621.852 684.464 621.011V620.332C684.464 619.491 683.782 618.809 682.941 618.809C682.1 618.809 681.418 618.128 681.418 617.286V615.593C681.418 614.751 682.1 614.07 682.941 614.07C683.782 614.07 684.464 613.388 684.464 612.546V611.868C684.464 611.027 683.782 610.345 682.941 610.345C682.1 610.345 681.418 609.663 681.418 608.822V607.128C681.418 606.287 682.1 605.605 682.941 605.605C683.782 605.605 684.464 604.923 684.464 604.082V603.404C684.464 602.563 683.782 601.881 682.941 601.881C682.1 601.881 681.418 601.199 681.418 600.358V598.664C681.418 597.823 682.1 597.141 682.941 597.141C683.782 597.141 684.464 596.459 684.464 595.618V594.94C684.464 594.099 683.782 593.417 682.941 593.417C682.1 593.417 681.418 592.735 681.418 591.894V590.2C681.418 589.359 682.1 588.677 682.941 588.677C683.782 588.677 684.464 587.995 684.464 587.154V586.476C684.464 585.635 683.782 584.953 682.941 584.953C682.1 584.953 681.418 584.271 681.418 583.43V581.736C681.418 580.895 682.1 580.213 682.941 580.213C683.782 580.213 684.464 579.531 684.464 578.69V576.658C684.464 575.816 683.782 575.135 682.941 575.135C682.1 575.135 681.418 574.453 681.418 573.611V571.918C681.418 571.077 682.1 570.395 682.941 570.395C683.782 570.395 684.464 569.713 684.464 568.872V568.194C684.464 567.352 683.782 566.67 682.941 566.67C682.1 566.67 681.418 565.989 681.418 565.147V563.115C681.418 562.274 682.1 561.592 682.941 561.592C683.782 561.592 684.464 560.91 684.464 560.069V559.391C684.464 558.55 683.782 557.868 682.941 557.868C682.1 557.868 681.418 557.186 681.418 556.345V554.651C681.418 553.81 682.1 553.128 682.941 553.128C683.782 553.128 684.464 552.446 684.464 551.605V550.927C684.464 550.086 683.782 549.404 682.941 549.404C682.1 549.404 681.418 548.722 681.418 547.881V546.187C681.418 545.346 682.1 544.664 682.941 544.664C683.782 544.664 684.464 543.982 684.464 543.141V542.463C684.464 541.621 683.782 540.939 682.941 540.939C682.1 540.939 681.418 540.258 681.418 539.416V537.723C681.418 536.882 682.1 536.2 682.941 536.2C683.782 536.2 684.464 535.518 684.464 534.677V533.998C684.464 533.157 683.782 532.475 682.941 532.475C682.1 532.475 681.418 531.793 681.418 530.952V529.259C681.418 528.417 682.1 527.735 682.941 527.735C683.782 527.735 684.464 527.054 684.464 526.212V525.534C684.464 524.693 683.782 524.011 682.941 524.011C682.1 524.011 681.418 523.329 681.418 522.488V520.794C681.418 519.953 682.1 519.271 682.941 519.271C683.782 519.271 684.464 518.589 684.464 517.748V517.07C684.464 516.229 683.782 515.547 682.941 515.547C682.1 515.547 681.418 514.865 681.418 514.024V512.33C681.418 511.489 682.1 510.807 682.941 510.807C683.782 510.807 684.464 510.125 684.464 509.284V508.606C684.464 507.765 683.782 507.083 682.941 507.083C682.1 507.083 681.418 506.401 681.418 505.56V503.866C681.418 503.025 682.1 502.343 682.941 502.343C683.782 502.343 684.464 501.661 684.464 500.82V498.788C684.464 497.947 683.782 497.265 682.941 497.265C682.1 497.265 681.418 496.583 681.418 495.742V494.048C681.418 493.207 682.1 492.525 682.941 492.525C683.782 492.525 684.464 491.843 684.464 491.002V490.324C684.464 489.482 683.782 488.8 682.941 488.8C682.1 488.8 681.418 488.119 681.418 487.277V485.584C681.418 484.742 682.1 484.061 682.941 484.061C683.782 484.061 684.464 483.379 684.464 482.537V481.859C684.464 481.018 683.782 480.336 682.941 480.336C682.1 480.336 681.418 479.654 681.418 478.813V477.12C681.418 476.278 682.1 475.596 682.941 475.596C683.782 475.596 684.464 474.915 684.464 474.073V473.395C684.464 472.554 683.782 471.872 682.941 471.872C682.1 471.872 681.418 471.19 681.418 470.349V464.931C681.418 464.09 682.1 463.408 682.941 463.408C683.782 463.408 684.464 462.726 684.464 461.885V460.869C684.464 459.466 683.327 458.33 681.925 458.33H677.019C675.71 458.33 674.649 457.269 674.649 455.96V455.402C674.649 454.401 675.46 453.59 676.461 453.59C677.951 453.59 678.805 451.893 677.917 450.697L665.776 434.337C664.331 432.392 662.051 431.244 659.628 431.244H659.421C655.307 431.244 651.972 427.91 651.972 423.796C651.972 423.048 651.295 422.174 651.295 421.426V401.958C651.295 401.304 650.765 400.774 650.111 400.774C649.457 400.774 648.926 401.304 648.926 401.958V421.479C648.926 422.198 648.25 423.077 648.25 423.796C648.25 427.91 644.915 431.244 640.801 431.244H640.594C638.171 431.244 635.891 432.392 634.446 434.338L621.634 451.601C621.024 452.423 621.611 453.59 622.635 453.59C623.323 453.59 623.881 454.148 623.881 454.836V455.96C623.881 457.269 622.82 458.33 621.511 458.33H616.605C615.203 458.33 614.066 459.466 614.066 460.869V461.547C614.066 462.575 614.899 463.408 615.927 463.408C616.955 463.408 617.789 464.242 617.789 465.27V470.011C617.789 471.039 616.955 471.872 615.927 471.872C614.899 471.872 614.066 472.706 614.066 473.734C614.066 474.762 614.899 475.596 615.927 475.596C616.955 475.596 617.789 476.43 617.789 477.458V478.475C617.789 479.503 616.955 480.336 615.927 480.336C614.899 480.336 614.066 481.17 614.066 482.198C614.066 483.227 614.899 484.061 615.927 484.061C616.955 484.061 617.789 484.894 617.789 485.922V486.939C617.789 487.967 616.955 488.8 615.927 488.8C614.899 488.8 614.066 489.634 614.066 490.663C614.066 491.691 614.899 492.525 615.927 492.525C616.955 492.525 617.789 493.358 617.789 494.386V495.403C617.789 496.431 616.955 497.265 615.927 497.265C614.899 497.265 614.066 498.099 614.066 499.127C614.066 500.155 614.899 500.989 615.927 500.989C616.955 500.989 617.789 501.822 617.789 502.85V503.867C617.789 504.895 616.955 505.729 615.927 505.729C614.899 505.729 614.066 506.563 614.066 507.591C614.066 508.619 614.899 509.453 615.927 509.453C616.955 509.453 617.789 510.286 617.789 511.314V512.331C617.789 513.359 616.955 514.193 615.927 514.193C614.899 514.193 614.066 515.027 614.066 516.055C614.066 517.083 614.899 517.917 615.927 517.917C616.955 517.917 617.789 518.75 617.789 519.779V520.795C617.789 521.824 616.955 522.657 615.927 522.657C614.899 522.657 614.066 523.491 614.066 524.519C614.066 525.547 614.899 526.381 615.927 526.381C616.955 526.381 617.789 527.215 617.789 528.243V529.26C617.789 530.288 616.955 531.121 615.927 531.121C614.899 531.121 614.066 531.955 614.066 532.983C614.066 534.011 614.899 534.845 615.927 534.845C616.955 534.845 617.789 535.679 617.789 536.707V537.724C617.789 538.752 616.955 539.585 615.927 539.585C614.899 539.585 614.066 540.419 614.066 541.447C614.066 542.475 614.899 543.309 615.927 543.309C616.955 543.309 617.789 544.143 617.789 545.171V546.188C617.789 547.216 616.955 548.049 615.927 548.049C614.899 548.049 614.066 548.883 614.066 549.911C614.066 550.94 614.899 551.774 615.927 551.774C616.955 551.774 617.789 552.607 617.789 553.635V554.652C617.789 555.68 616.955 556.513 615.927 556.513C614.899 556.513 614.066 557.348 614.066 558.376C614.066 559.404 614.899 560.238 615.927 560.238C616.955 560.238 617.789 561.071 617.789 562.099V563.116C617.789 564.144 616.955 564.978 615.927 564.978C614.899 564.978 614.066 565.812 614.066 566.84C614.066 567.868 614.899 568.702 615.927 568.702C616.955 568.702 617.789 569.535 617.789 570.563V571.58C617.789 572.608 616.955 573.442 615.927 573.442C614.899 573.442 614.066 574.276 614.066 575.304C614.066 576.332 614.899 577.166 615.927 577.166C616.955 577.166 617.789 577.999 617.789 579.027V580.044C617.789 581.072 616.955 581.906 615.927 581.906C614.899 581.906 614.066 582.74 614.066 583.768C614.066 584.796 614.899 585.63 615.927 585.63H617.281C617.561 585.63 617.789 585.857 617.789 586.138C617.789 586.418 617.561 586.646 617.281 586.646H599.514C597.083 586.646 595.112 584.675 595.112 582.244V578.52V573.78V570.056V565.316V561.592V556.852V553.128V548.388V544.664V539.924V536.2V531.46V527.735V522.996V519.271V514.531V510.807V506.067V502.343V497.603V493.879V489.139V485.415V481.013V477.289V472.549V468.825V464.085V460.361V455.621V451.897V447.496V443.771V439.031V435.307V430.567V426.843V422.103V418.379V413.639V409.915V405.175V401.451V396.711V392.987V388.247V384.522V379.783V376.058V371.318V367.594V362.854V359.13V354.39V350.666V345.926L594.939 338.635C594.839 334.468 592.165 330.799 588.228 329.429L578.149 325.922C574.858 324.777 571.421 327.22 571.421 330.705V332.251C571.421 334.194 569.846 335.769 567.903 335.769C565.932 335.769 564.346 334.15 564.385 332.18L564.829 310.22C564.923 305.558 561.782 301.449 557.257 300.317L535.87 294.969C529.861 293.466 523.945 297.732 523.473 303.908L520.314 345.249L519.976 349.989L519.637 353.713L519.299 358.453L518.96 362.177L518.622 366.917L518.283 370.641L517.945 375.381L517.607 379.105L517.268 383.845L516.93 387.57L516.591 392.309L516.253 396.034L515.914 400.774L515.576 404.498L515.237 409.238L514.899 412.962L514.56 417.702L514.222 421.426L513.884 426.166L513.545 429.89L513.207 434.63L512.868 438.354L512.849 438.618C512.646 441.465 511.235 444.09 508.973 445.831L507.228 447.173C505.001 448.887 503.607 451.465 503.391 454.267L503.053 457.991L502.715 462.731L502.376 466.455L502.038 471.195L501.699 474.919L501.361 479.659L501.022 483.383L500.684 487.785C500.684 488.72 499.926 489.478 498.991 489.478H471.085C465.562 489.478 461.085 493.955 461.085 499.478V538.063C461.085 540.961 458.736 543.309 455.839 543.309C452.942 543.309 450.593 545.658 450.593 548.555V652.668C450.593 656.594 447.411 659.776 443.485 659.776C439.56 659.776 436.378 656.594 436.378 652.668V236.569C436.378 235.073 435.166 233.861 433.67 233.861C432.175 233.861 430.963 232.649 430.963 231.153V194.092C430.963 188.569 426.485 184.092 420.963 184.092H363.457C357.934 184.092 353.457 188.569 353.457 194.092V231.492C353.457 232.987 352.245 234.2 350.749 234.2C349.254 234.2 348.042 235.412 348.042 236.907V417.196C348.042 419.906 345.844 422.103 343.134 422.103H339.242C338.681 422.103 338.226 422.558 338.226 423.119V423.458C338.226 423.832 337.923 424.135 337.549 424.135C337.176 424.135 336.873 424.438 336.873 424.811V428.536C336.873 428.91 337.176 429.213 337.549 429.213C337.923 429.213 338.226 429.516 338.226 429.89V430.229C338.226 430.603 337.923 430.906 337.549 430.906C337.176 430.906 336.873 431.209 336.873 431.583V435.307C336.873 435.681 337.176 435.984 337.549 435.984C337.923 435.984 338.226 436.287 338.226 436.661V437C338.226 437.374 337.923 437.677 337.549 437.677C337.176 437.677 336.873 437.98 336.873 438.354V442.079C336.873 442.453 337.176 442.756 337.549 442.756C337.923 442.756 338.226 443.059 338.226 443.432V443.772C338.226 444.145 337.923 444.448 337.549 444.448C337.176 444.448 336.873 444.751 336.873 445.125V448.85C336.873 449.224 337.176 449.527 337.549 449.527C337.923 449.527 338.226 449.83 338.226 450.204V450.543C338.226 450.917 337.923 451.22 337.549 451.22C337.176 451.22 336.873 451.523 336.873 451.897V455.621C336.873 455.995 337.176 456.298 337.549 456.298C337.923 456.298 338.226 456.601 338.226 456.975V457.314C338.226 457.688 337.923 457.991 337.549 457.991C337.176 457.991 336.873 458.294 336.873 458.668V462.393C336.873 462.766 337.176 463.07 337.549 463.07C337.923 463.07 338.226 463.373 338.226 463.746V464.085C338.226 464.459 337.923 464.762 337.549 464.762C337.176 464.762 336.873 465.065 336.873 465.439V469.164C336.873 469.538 337.176 469.841 337.549 469.841C337.923 469.841 338.226 470.144 338.226 470.518V470.857C338.226 471.231 337.923 471.534 337.549 471.534C337.176 471.534 336.873 471.837 336.873 472.211V475.935C336.873 476.309 337.176 476.612 337.549 476.612C337.923 476.612 338.226 476.915 338.226 477.289V477.628C338.226 478.002 337.923 478.305 337.549 478.305C337.176 478.305 336.873 478.608 336.873 478.982V482.707C336.873 483.08 337.176 483.383 337.549 483.383C337.923 483.383 338.226 483.686 338.226 484.06V484.399C338.226 484.773 337.923 485.076 337.549 485.076C337.176 485.076 336.873 485.379 336.873 485.753V489.478C336.873 489.852 337.176 490.155 337.549 490.155C337.923 490.155 338.226 490.458 338.226 490.832V491.171C338.226 491.545 337.923 491.848 337.549 491.848C337.176 491.848 336.873 492.151 336.873 492.524V496.249C336.873 496.623 337.176 496.926 337.549 496.926C337.923 496.926 338.226 497.229 338.226 497.603V497.942C338.226 498.316 337.923 498.619 337.549 498.619C337.176 498.619 336.873 498.922 336.873 499.296V503.02C336.873 503.394 337.176 503.697 337.549 503.697C337.923 503.697 338.226 504 338.226 504.374V504.713C338.226 505.087 337.923 505.39 337.549 505.39C337.176 505.39 336.873 505.693 336.873 506.067V509.792C336.873 510.166 337.176 510.469 337.549 510.469C337.923 510.469 338.226 510.772 338.226 511.146V511.485C338.226 511.858 337.923 512.161 337.549 512.161C337.176 512.161 336.873 512.465 336.873 512.838V516.563C336.873 516.937 337.176 517.24 337.549 517.24C337.923 517.24 338.226 517.543 338.226 517.917V518.256C338.226 518.63 337.923 518.933 337.549 518.933C337.176 518.933 336.873 519.236 336.873 519.61V523.334C336.873 523.708 337.176 524.011 337.549 524.011C337.923 524.011 338.226 524.314 338.226 524.688V531.798C338.226 532.172 337.923 532.475 337.549 532.475C337.176 532.475 336.873 532.778 336.873 533.152V536.877C336.873 537.251 337.176 537.554 337.549 537.554C337.923 537.554 338.226 537.857 338.226 538.231V538.57C338.226 538.944 337.923 539.247 337.549 539.247C337.176 539.247 336.873 539.55 336.873 539.924V540.77C336.873 541.612 336.19 542.294 335.349 542.294H324.196C318.673 542.294 314.196 537.817 314.196 532.294V440.906C314.196 435.383 309.719 430.906 304.196 430.906H264.628C259.106 430.906 254.628 435.383 254.628 440.906V494.051C254.628 498.818 250.764 502.682 245.998 502.682H239.399C238.277 502.682 237.367 501.772 237.367 500.65C237.367 499.528 236.458 498.619 235.336 498.619H233.813C231.851 498.619 230.26 497.028 230.26 495.065V367.933V224.042C230.26 222.546 229.047 221.334 227.552 221.334C226.057 221.334 224.844 220.122 224.844 218.626V145C224.844 139.477 220.367 135 214.844 135H141.093C135.57 135 131.093 139.477 131.093 145V218.627C131.093 220.122 129.881 221.334 128.385 221.334C126.89 221.334 125.678 222.546 125.678 224.042V582.247C125.678 585.798 122.799 588.677 119.247 588.677C115.696 588.677 112.817 585.798 112.817 582.247V453.771C112.817 448.248 108.339 443.771 102.817 443.771H100.14C94.6173 443.771 90.1401 439.294 90.1401 433.771V383.167C90.1401 381.111 88.4733 379.444 86.4172 379.444C84.3611 379.444 82.6942 377.777 82.6942 375.721V360.327C82.6942 354.805 78.217 350.327 72.6942 350.327H-12.9032C-18.426 350.327 -22.9032 354.805 -22.9032 360.327V375.721C-22.9032 377.777 -24.5701 379.444 -26.6262 379.444C-28.6823 379.444 -30.3491 381.111 -30.3491 383.167V603.392C-30.3491 608.915 -34.8263 613.392 -40.3491 613.392H-44.7178C-50.2406 613.392 -54.7178 608.915 -54.7178 603.392V472.054C-54.7178 466.531 -59.1949 462.054 -64.7178 462.054H-134.408C-139.931 462.054 -144.408 466.531 -144.408 472.054V547.714C-144.408 553.135 -148.802 557.529 -154.223 557.529C-159.644 557.529 -164.038 561.924 -164.038 567.344V644.542C-164.038 647.72 -166.614 650.296 -169.792 650.296C-172.97 650.296 -175.546 647.72 -175.546 644.542V382.83V378.427C-175.546 377.119 -176.606 376.058 -177.915 376.058H-179.268C-179.829 376.058 -180.284 375.604 -180.284 375.043C-180.284 374.482 -179.829 374.027 -179.268 374.027H-177.915C-176.606 374.027 -175.546 372.966 -175.546 371.658V369.625C-175.546 368.316 -176.606 367.256 -177.915 367.256H-179.268C-179.829 367.256 -180.284 366.801 -180.284 366.24C-180.284 365.679 -179.829 365.224 -179.268 365.224H-177.915C-176.606 365.224 -175.546 364.164 -175.546 362.855V360.822C-175.546 359.514 -176.606 358.453 -177.915 358.453H-179.268C-179.829 358.453 -180.284 357.998 -180.284 357.437C-180.284 356.876 -179.829 356.422 -179.268 356.422H-177.915C-176.606 356.422 -175.546 355.361 -175.546 354.052V352.019C-175.546 350.711 -176.606 349.65 -177.915 349.65H-179.607C-179.981 349.65 -180.284 349.347 -180.284 348.973C-180.284 348.599 -179.981 348.296 -179.607 348.296H-177.746C-176.344 348.296 -175.207 347.159 -175.207 345.758V344.063C-175.207 342.661 -176.344 341.525 -177.746 341.525H-179.268C-179.829 341.525 -180.284 341.07 -180.284 340.509C-180.284 339.948 -179.829 339.493 -179.268 339.493H-177.746C-176.344 339.493 -175.207 338.357 -175.207 336.955V335.26C-175.207 333.858 -176.344 332.722 -177.746 332.722H-179.268C-179.829 332.722 -180.284 332.267 -180.284 331.706C-180.284 331.145 -179.829 330.691 -179.268 330.691H-177.746C-176.344 330.691 -175.207 329.554 -175.207 328.152V326.458C-175.207 325.056 -176.344 323.919 -177.746 323.919H-179.268C-179.829 323.919 -180.284 323.465 -180.284 322.904C-180.284 322.343 -179.829 321.888 -179.268 321.888H-177.746C-176.344 321.888 -175.207 320.751 -175.207 319.349V301.407C-175.207 298.12 -176.858 295.081 -179.324 292.908C-189.463 283.978 -203.68 264.9 -203.976 238.601V237.924V237.076C-203.976 235.488 -205.264 234.2 -206.853 234.2H-207.867C-208.896 234.2 -209.729 235.033 -209.729 236.062C-209.729 237.09 -210.563 237.924 -211.591 237.924H-213.791C-216.034 237.924 -217.852 236.105 -217.852 233.862V180.536C-217.852 179.695 -218.534 179.013 -219.375 179.013C-220.216 179.013 -220.898 179.695 -220.898 180.536V237.416C-220.898 237.884 -221.277 238.262 -221.745 238.262C-222.212 238.262 -222.591 237.884 -222.591 237.416V236.4C-222.591 235.372 -223.424 234.538 -224.453 234.538H-226.821C-227.849 234.538 -228.683 235.372 -228.683 236.4C-228.683 237.429 -229.516 238.262 -230.545 238.262H-237.651C-238.68 238.262 -239.513 237.429 -239.513 236.4C-239.513 235.372 -240.347 234.538 -241.375 234.538H-242.559C-244.242 234.538 -245.605 235.902 -245.605 237.584V238.262C-245.605 264.941 -252.965 284.257 -261.531 293.354C-263.823 295.788 -265.574 298.842 -265.574 302.185V315.624C-265.574 315.718 -265.498 315.794 -265.405 315.794C-265.311 315.794 -265.236 315.87 -265.236 315.963V319.519C-265.236 321.201 -263.872 322.565 -262.19 322.565H-260.159C-259.598 322.565 -259.143 323.02 -259.143 323.581C-259.143 324.142 -259.598 324.596 -260.159 324.596H-262.19C-263.872 324.596 -265.236 325.96 -265.236 327.643V328.322C-265.236 330.004 -263.872 331.368 -262.19 331.368H-260.159C-259.598 331.368 -259.143 331.822 -259.143 332.383C-259.143 332.944 -259.598 333.399 -260.159 333.399H-262.359C-264.135 333.399 -265.574 334.839 -265.574 336.614V336.955C-265.574 338.731 -264.135 340.17 -262.359 340.17H-259.821C-259.447 340.17 -259.143 340.474 -259.143 340.848C-259.143 341.222 -259.447 341.525 -259.821 341.525H-262.359C-264.135 341.525 -265.574 342.964 -265.574 344.74V345.081C-265.574 346.856 -264.135 348.296 -262.359 348.296H-260.159C-259.598 348.296 -259.143 348.751 -259.143 349.312C-259.143 349.873 -259.598 350.327 -260.159 350.327H-262.359C-264.135 350.327 -265.574 351.767 -265.574 353.543V353.883C-265.574 355.659 -264.135 357.099 -262.359 357.099H-260.159C-259.598 357.099 -259.143 357.553 -259.143 358.114C-259.143 358.675 -259.598 359.13 -260.159 359.13H-262.359C-264.135 359.13 -265.574 360.57 -265.574 362.345V362.686C-265.574 364.462 -264.135 365.901 -262.359 365.901H-260.159C-259.598 365.901 -259.143 366.356 -259.143 366.917C-259.143 367.478 -259.598 367.933 -260.159 367.933H-262.359C-264.135 367.933 -265.574 369.372 -265.574 371.148V371.489C-265.574 373.264 -264.135 374.704 -262.359 374.704H-260.159C-259.598 374.704 -259.143 375.159 -259.143 375.72C-259.143 376.281 -259.598 376.735 -260.159 376.735H-262.528C-264.397 376.735 -265.913 378.251 -265.913 380.12V513.519C-265.913 518.753 -270.155 522.996 -275.389 522.996C-280.623 522.996 -284.866 527.238 -284.866 532.472V589.864C-284.866 592.761 -287.215 595.11 -290.112 595.11C-293.009 595.11 -295.358 597.459 -295.358 600.356V653.193C-295.358 655.345 -297.787 656.474 -299.938 656.393C-300.069 656.388 -300.161 656.381 -300.291 656.362C-300.413 656.345 -300.536 656.328 -300.66 656.31C-304.607 655.758 -307.542 652.414 -307.542 648.429V526.134C-307.542 522.169 -309.885 518.579 -313.514 516.982L-315.694 516.022C-315.898 515.932 -316.119 515.886 -316.342 515.886H-316.849C-318.251 515.886 -319.388 514.749 -319.388 513.346V511.992C-319.388 511.338 -319.919 510.807 -320.573 510.807C-321.227 510.807 -321.757 511.338 -321.757 511.992C-321.757 512.646 -322.288 513.177 -322.942 513.177H-323.086C-323.66 513.177 -324.127 513.643 -324.127 514.218C-324.127 514.773 -324.562 515.23 -325.116 515.258L-328.979 515.451C-330.022 515.503 -330.896 514.672 -330.896 513.628C-330.896 512.937 -331.286 512.305 -331.904 511.995L-332.819 511.538C-333.334 511.281 -333.904 511.155 -334.48 511.172L-354.279 511.763C-355.394 511.796 -356.28 512.709 -356.28 513.824C-356.28 514.963 -357.203 515.886 -358.341 515.886H-358.649C-359.957 515.886 -361.018 516.946 -361.018 518.255V540.758C-361.018 546.281 -365.495 550.758 -371.018 550.758H-388.586C-394.109 550.758 -398.586 546.281 -398.586 540.758V382.49C-398.586 380.06 -400.556 378.09 -402.986 378.09C-405.416 378.09 -407.386 376.12 -407.386 373.69V344.415C-407.386 338.892 -411.863 334.415 -417.386 334.415H-432.43C-435.608 334.415 -438.185 331.838 -438.185 328.659C-438.185 325.48 -440.762 322.904 -443.941 322.904H-447.828C-452.97 322.904 -457.139 318.735 -457.139 313.593C-457.139 308.451 -461.307 304.283 -466.449 304.283H-523.968C-529.49 304.283 -533.968 308.76 -533.968 314.283V324.415C-533.968 329.938 -538.445 334.415 -543.968 334.415H-562.551C-568.074 334.415 -572.551 338.892 -572.551 344.415V636.233C-572.551 641.756 -577.028 646.233 -582.551 646.233H-583.535C-589.058 646.233 -593.535 650.71 -593.535 656.233V665.873C-593.535 671.294 -597.93 675.688 -603.35 675.688C-608.771 675.688 -613.166 671.294 -613.166 665.873V591.906C-613.166 586.383 -617.643 581.906 -623.166 581.906H-633.626C-639.149 581.906 -643.626 577.429 -643.626 571.906V551.475C-643.626 551.243 -643.757 551.031 -643.965 550.927C-644.172 550.823 -644.303 550.611 -644.303 550.379V546.834C-644.303 545.427 -644.77 544.06 -645.632 542.947L-650.334 536.871C-651.69 535.119 -652.426 532.966 -652.426 530.75V524.77C-652.426 523.851 -652.791 522.969 -653.441 522.318C-654.092 521.668 -654.457 520.786 -654.457 519.867V505.221C-654.457 504.94 -654.684 504.713 -654.965 504.713C-655.245 504.713 -655.472 504.94 -655.472 505.221V520.106C-655.472 520.872 -655.777 521.607 -656.318 522.149C-656.86 522.691 -657.164 523.426 -657.164 524.192V531.694C-657.164 533.745 -657.795 535.747 -658.971 537.427L-663.193 543.46C-663.895 544.464 -664.272 545.659 -664.272 546.885V548.86C-664.272 549.623 -664.653 550.335 -665.287 550.758C-665.922 551.181 -666.303 551.893 -666.303 552.655V553.524C-666.303 554.749 -666.945 555.883 -667.995 556.513L-668.412 556.764C-669.203 557.239 -669.687 558.094 -669.687 559.017C-669.687 559.978 -670.212 560.863 -671.056 561.323L-671.549 561.592C-672.696 562.218 -673.41 563.421 -673.41 564.728V595.757C-673.41 599.586 -676.706 602.583 -680.518 602.22C-683.882 602.22 -686.61 599.492 -686.61 596.128V534.35C-686.61 528.827 -691.087 524.35 -696.61 524.35H-718.24C-723.762 524.35 -728.24 528.827 -728.24 534.35V562.087C-728.24 567.61 -732.717 572.087 -738.24 572.087H-744.639C-750.162 572.087 -754.639 576.565 -754.639 582.087V602.39C-754.639 604.166 -756.079 605.605 -757.854 605.605C-759.63 605.605 -761.07 607.045 -761.07 608.821V646.742C-761.07 648.144 -762.206 649.28 -763.608 649.28C-765.01 649.28 -766.146 648.144 -766.146 646.742V630.658C-766.146 628.789 -767.662 627.274 -769.531 627.274C-771.4 627.274 -772.915 625.758 -772.915 623.889V452.078C-772.915 446.556 -777.393 442.078 -782.915 442.078H-830.791C-873.098 442.078 -907.281 471.872 -907.281 514.193V538.049C-907.281 543.572 -911.759 548.049 -917.281 548.049H-921.158C-933.342 548.049 -943.157 569.04 -943.157 580.552V620.321C-943.157 625.844 -947.635 630.321 -953.157 630.321H-969.033C-974.556 630.321 -979.033 625.844 -979.033 620.321V582.765C-979.033 577.242 -983.511 572.765 -989.033 572.765H-993.064C-998.586 572.765 -1003.06 577.242 -1003.06 582.765V669.765C-1003.06 672.663 -1005.41 675.011 -1008.31 675.011C-1011.21 675.011 -1013.56 672.663 -1013.56 669.765V621.009C-1013.56 619.42 -1014.84 618.132 -1016.43 618.132C-1018.02 618.132 -1019.31 616.844 -1019.31 615.255V582.765C-1019.31 577.242 -1023.79 572.765 -1029.31 572.765H-1030.63C-1036.15 572.765 -1040.63 568.287 -1040.63 562.765V527.24C-1040.63 521.717 -1045.11 517.24 -1050.63 517.24H-1077C-1082.52 517.24 -1087 521.717 -1087 527.24V729C-1087 734.523 -1082.52 739 -1077 739H1393C1398.52 739 1403 734.523 1403 729V351.525C1403 346.002 1398.52 341.525 1393 341.525H1374.57ZM994.149 533.322C994.149 533.976 993.618 534.507 992.964 534.507H990.764C990.577 534.507 990.426 534.355 990.426 534.168V533.322C990.426 532.667 990.956 532.137 991.611 532.137H992.964C993.618 532.137 994.149 532.667 994.149 533.322ZM994.149 527.566C994.149 528.221 993.618 528.751 992.964 528.751H991.611C990.956 528.751 990.426 528.221 990.426 527.566C990.426 526.912 990.956 526.381 991.611 526.381H992.964C993.618 526.381 994.149 526.912 994.149 527.566ZM994.149 521.472C994.149 522.126 993.618 522.657 992.964 522.657H991.611C990.956 522.657 990.426 522.126 990.426 521.472C990.426 520.818 990.956 520.287 991.611 520.287H992.964C993.618 520.287 994.149 520.818 994.149 521.472ZM994.149 515.378C994.149 516.032 993.618 516.563 992.964 516.563H991.611C990.956 516.563 990.426 516.032 990.426 515.378C990.426 514.723 990.956 514.193 991.611 514.193H992.964C993.618 514.193 994.149 514.723 994.149 515.378ZM994.149 509.284C994.149 509.938 993.618 510.469 992.964 510.469H991.611C990.956 510.469 990.426 509.938 990.426 509.284C990.426 508.629 990.956 508.099 991.611 508.099H992.964C993.618 508.099 994.149 508.629 994.149 509.284ZM994.149 503.189C994.149 503.844 993.618 504.374 992.964 504.374H991.611C990.956 504.374 990.426 503.844 990.426 503.189C990.426 502.535 990.956 502.005 991.611 502.005H992.964C993.618 502.005 994.149 502.535 994.149 503.189ZM994.149 497.434C994.149 498.088 993.618 498.619 992.964 498.619H991.611C990.956 498.619 990.426 498.088 990.426 497.434C990.426 496.779 990.956 496.249 991.611 496.249H992.964C993.618 496.249 994.149 496.779 994.149 497.434Z" fill="url(#paint2_linear)"/>
<path d="M1147.89 492.501C1089.11 492.501 1041.56 593.395 1041.56 717.746H1254.33C1254.33 593.269 1206.66 492.501 1147.89 492.501Z" fill="url(#paint3_linear)"/>
<path d="M1147.89 492.501C1089.11 492.501 1041.56 593.395 1041.56 717.746H1254.33C1254.33 593.269 1206.66 492.501 1147.89 492.501Z" fill="url(#paint4_linear)"/>
<mask id="mask1" mask-type="alpha" maskUnits="userSpaceOnUse" x="1041" y="492" width="214" height="226">
<path d="M1147.89 492.501C1089.11 492.501 1041.56 593.395 1041.56 717.746H1254.33C1254.33 593.269 1206.66 492.501 1147.89 492.501Z" fill="url(#paint5_linear)"/>
</mask>
<g mask="url(#mask1)">
<path opacity="0.2" d="M1058.25 512.899C1091.94 497.553 1159.97 472.451 1162.6 494.812C1165.89 522.764 971.149 642.793 1037.7 617.307C1104.26 591.822 1161.78 521.942 1176.57 546.605C1191.36 571.269 1046.74 673.211 1095.22 668.279C1143.7 663.346 1203.68 549.894 1222.58 567.981C1241.48 586.067 1098.51 711.851 1130.56 722.538C1162.6 733.226 1250.52 554.827 1285.85 550.716" stroke="url(#paint6_linear)" stroke-width="2"/>
</g>
<path opacity="0.3" d="M1240.54 717.746H1254.33C1254.33 593.269 1206.66 492.501 1147.89 492.501C1145.57 492.501 1143.27 492.658 1140.99 492.966C1196.55 500.484 1240.54 598.176 1240.54 717.746Z" fill="#C9D983"/>
<path d="M1265.82 553.573C1222.82 553.573 1188.01 627.406 1188.01 718.403H1343.64C1343.52 627.406 1308.71 553.573 1265.82 553.573Z" fill="url(#paint7_linear)"/>
<mask id="mask2" mask-type="alpha" maskUnits="userSpaceOnUse" x="1188" y="553" width="156" height="166">
<path d="M1265.82 553.573C1222.82 553.573 1188.01 627.406 1188.01 718.403H1343.64C1343.52 627.406 1308.71 553.573 1265.82 553.573Z" fill="url(#paint8_linear)"/>
</mask>
<g mask="url(#mask2)">
<path opacity="0.2" d="M1241.37 516.142C1210.84 565.873 1161.92 655.132 1210.51 614.321C1271.25 563.306 1329.1 579.669 1305 614.321C1280.89 648.972 1210.51 630.684 1217.26 667.26C1222.66 696.521 1301.14 653.143 1339.7 627.796" stroke="url(#paint9_linear)" stroke-width="2"/>
</g>
<path opacity="0.3" fill-rule="evenodd" clip-rule="evenodd" d="M1327.23 718.403H1343.64C1343.52 627.406 1308.71 553.573 1265.82 553.573C1263.05 553.573 1260.31 553.881 1257.6 554.481C1296.64 563.178 1327.11 633.281 1327.23 718.403Z" fill="#C9D983"/>
<path d="M959.478 473.457C891.311 473.457 836.02 582.247 836.02 716.433H1082.94C1082.81 582.247 1027.64 473.457 959.478 473.457Z" fill="url(#paint10_linear)"/>
<mask id="mask3" mask-type="alpha" maskUnits="userSpaceOnUse" x="836" y="473" width="247" height="244">
<path d="M959.478 473.457C891.311 473.457 836.02 582.247 836.02 716.433H1082.94C1082.81 582.247 1027.64 473.457 959.478 473.457Z" fill="url(#paint11_linear)"/>
</mask>
<g mask="url(#mask3)">
<path opacity="0.2" d="M846.526 522.485C859.538 507.129 888.768 479.768 901.594 493.169C917.627 509.921 883.471 567.853 905.777 574.833C928.083 581.813 959.45 472.23 986.636 482.7C1013.82 493.169 869.529 662.779 919.718 669.061C969.906 675.343 992.909 523.881 1014.52 534.35C1036.13 544.82 965.724 626.484 990.121 650.215C1014.52 673.947 1027.07 562.27 1046.58 574.833C1066.1 587.397 1052.16 650.215 1033.34 692.792" stroke="url(#paint12_linear)" stroke-width="2"/>
</g>
<path opacity="0.2" d="M1055.35 716.433H1082.94C1082.81 582.247 1027.64 473.457 959.478 473.457C954.816 473.457 950.214 473.966 945.687 474.957C1007.35 488.456 1055.24 591.423 1055.35 716.433Z" fill="#C9D983"/>
<path d="M1135.41 567.526H1133.12V715.23H1135.41V567.526Z" fill="#0C5E59"/>
<path d="M1150.91 558.174C1146.01 558.174 1141.45 561.709 1138.26 564.903C1140.42 561.823 1143.39 558.06 1145.67 557.375C1149.66 556.121 1152.85 556.691 1152.85 556.691C1152.85 556.691 1149.2 551.558 1143.73 553.954C1141.33 554.98 1139.28 558.402 1137.8 561.709C1138.6 558.63 1139.28 554.98 1138.71 551.672C1137.34 543.232 1128 542.548 1128 542.548C1128 542.548 1133.24 549.848 1134.15 558.402C1134.27 559.542 1134.38 560.683 1134.49 561.709C1133.7 556.805 1131.76 550.874 1126.97 547.68C1115.11 539.81 1107.7 553.611 1107.7 553.611C1107.7 553.611 1114.43 549.391 1123.32 553.84C1130.39 557.375 1133.35 564.903 1134.27 567.983C1133.13 565.701 1128.22 557.033 1120.47 555.778C1108.73 553.84 1105.76 568.667 1105.76 568.667C1105.76 568.667 1112.49 563.306 1120.81 563.648C1127.31 563.991 1131.87 566.614 1134.15 568.667C1132.9 568.325 1130.28 567.754 1127.08 567.64C1116.71 567.526 1114.54 581.441 1114.54 581.441L1134.27 569.351C1133.35 570.948 1131.64 574.37 1130.73 576.651C1129.36 579.845 1130.28 587.03 1130.28 587.03C1130.28 587.03 1133.47 581.555 1134.38 578.02C1135.29 574.598 1135.06 571.062 1134.95 569.351L1148.29 583.837C1148.29 583.837 1151.59 575.054 1141.45 570.834C1140.08 570.264 1138.94 569.807 1138.03 569.465C1140.42 569.807 1143.39 570.834 1146.46 572.773C1152.28 576.537 1156.04 581.783 1156.04 581.783C1156.04 581.783 1159.69 571.176 1150.8 566.842C1147.83 565.473 1144.53 565.587 1141.68 566.272C1143.84 565.017 1146.69 564.105 1150 564.561C1158.09 565.587 1160.37 571.29 1160.37 571.29C1160.37 571.29 1162.65 558.174 1150.91 558.174Z" fill="url(#paint13_linear)"/>
<path d="M1048.42 476.744H1044.77V717.975H1048.42V476.744Z" fill="#0C5E59"/>
<path d="M1071.99 455.951C1063.09 455.951 1054.69 462.332 1048.84 468.203C1052.78 462.588 1058.26 455.823 1062.45 454.419C1069.58 452.122 1075.56 453.27 1075.56 453.27C1075.56 453.27 1068.81 443.826 1058.89 448.293C1054.44 450.207 1050.75 456.461 1048.08 462.46C1049.6 456.844 1050.62 450.207 1049.73 444.081C1047.31 428.765 1030.14 427.488 1030.14 427.488C1030.14 427.488 1039.68 440.762 1041.46 456.461C1041.72 458.503 1041.84 460.545 1041.97 462.46C1040.44 453.398 1036.88 442.549 1028.23 436.806C1006.73 422.511 993.248 447.782 993.248 447.782C993.248 447.782 1005.59 440.124 1021.74 448.293C1034.47 454.674 1039.94 468.586 1041.72 474.074C1039.55 469.863 1030.78 454.164 1016.53 451.739C995.156 448.165 989.686 475.351 989.686 475.351C989.686 475.351 1001.9 465.523 1017.04 466.161C1028.74 466.672 1037.26 471.522 1041.46 475.351C1039.3 474.713 1034.34 473.564 1028.61 473.564C1009.66 473.309 1005.71 498.708 1005.71 498.708L1041.72 476.627C1040.19 479.563 1037.01 485.689 1035.23 490.029C1032.81 495.9 1034.34 508.918 1034.34 508.918C1034.34 508.918 1040.19 498.963 1041.84 492.454C1043.5 486.2 1043.12 479.69 1042.86 476.627L1067.29 503.047C1067.29 503.047 1073.27 486.965 1054.95 479.18C1052.53 478.159 1050.37 477.265 1048.71 476.627C1053.17 477.265 1058.51 479.052 1063.98 482.626C1074.67 489.518 1081.41 498.963 1081.41 498.963C1081.41 498.963 1088.02 479.435 1071.74 471.777C1066.4 469.224 1060.29 469.607 1055.07 470.756C1059.02 468.459 1064.11 466.799 1070.34 467.565C1085.1 469.352 1089.17 479.946 1089.17 479.946C1089.17 479.946 1093.37 455.823 1071.99 455.951Z" fill="url(#paint14_linear)"/>
<path d="M970.06 689.595C967.78 679.102 964.018 669.179 959.001 660.054C958.317 658.8 957.519 657.431 956.721 656.176C950.907 646.482 943.724 637.813 935.402 630.285C934.376 629.259 933.236 628.346 932.096 627.434C923.203 620.02 913.056 613.975 902.112 609.641C900.744 609.071 899.376 608.615 898.007 608.158C887.063 604.28 875.206 602.113 863.007 601.885C862.323 601.885 861.525 601.885 860.841 601.885C860.157 601.885 859.359 601.885 858.675 601.885C846.362 602.113 834.619 604.28 823.675 608.158C822.307 608.615 820.939 609.185 819.57 609.641C808.626 613.975 798.479 620.02 789.587 627.434C788.447 628.346 787.306 629.373 786.28 630.285C777.958 637.813 770.661 646.482 764.961 656.176C764.163 657.431 763.479 658.8 762.681 660.054C757.665 669.179 753.902 679.102 751.622 689.595C751.28 691.078 751.052 692.561 750.71 694.043C749.57 700.431 749 706.932 749 713.547H972.568C972.568 706.932 971.998 700.316 970.858 694.043C970.63 692.561 970.402 691.078 970.06 689.595Z" fill="url(#paint15_linear)"/>
<path opacity="0.3" d="M858.676 601.771V713.547H863.008V601.771C862.324 601.771 861.526 601.771 860.842 601.771C860.044 601.771 859.36 601.771 858.676 601.771Z" fill="url(#paint16_linear)"/>
<path opacity="0.3" d="M819.57 609.641L847.388 713.661H851.834L823.561 608.158C822.306 608.615 820.938 609.071 819.57 609.641Z" fill="url(#paint17_linear)"/>
<path opacity="0.3" d="M786.28 630.285L834.391 713.547H839.294L789.586 627.434C788.446 628.346 787.306 629.373 786.28 630.285Z" fill="url(#paint18_linear)"/>
<path opacity="0.3" d="M762.681 660.054L816.264 713.661H822.307L764.847 656.176C764.163 657.431 763.365 658.8 762.681 660.054Z" fill="url(#paint19_linear)"/>
<path opacity="0.3" d="M750.71 694.043L784.57 713.547H793.235L751.622 689.481C751.28 691.078 751.052 692.561 750.71 694.043Z" fill="url(#paint20_linear)"/>
<path opacity="0.3" d="M869.734 713.661H874.181L901.998 609.641C900.63 609.071 899.262 608.615 897.894 608.158L869.734 713.661Z" fill="url(#paint21_linear)"/>
<path opacity="0.3" d="M882.274 713.661H887.291L935.402 630.399C934.376 629.373 933.236 628.461 932.096 627.548L882.274 713.661Z" fill="url(#paint22_linear)"/>
<g opacity="0.3">
<path d="M899.262 713.661H905.304L958.888 660.054C958.204 658.8 957.406 657.431 956.607 656.176L899.262 713.661Z" fill="url(#paint23_linear)"/>
</g>
<path d="M928.447 713.661H937.112L970.972 694.157C970.744 692.675 970.402 691.192 970.06 689.709L928.447 713.661Z" fill="#084F15"/>
<path d="M1053.74 698.378C1052.26 691.762 1049.87 685.375 1046.67 679.558C1046.22 678.76 1045.76 677.961 1045.31 677.049C1041.66 670.89 1037.1 665.415 1031.74 660.625C1031.05 660.054 1030.37 659.37 1029.57 658.8C1023.87 654.123 1017.49 650.245 1010.53 647.508C1009.74 647.166 1008.82 646.824 1007.91 646.596C1000.96 644.086 993.432 642.718 985.68 642.604C985.223 642.604 984.767 642.604 984.311 642.604C983.855 642.604 983.399 642.604 982.943 642.604C975.191 642.718 967.666 644.2 960.712 646.596C959.8 646.938 959.002 647.166 958.09 647.508C951.135 650.245 944.751 654.123 939.051 658.8C938.367 659.37 937.682 660.054 936.884 660.625C931.526 665.415 926.966 670.89 923.318 677.049C922.862 677.847 922.405 678.646 921.949 679.558C918.757 685.375 916.363 691.648 914.881 698.378C914.653 699.29 914.539 700.316 914.311 701.229C913.627 705.221 913.171 709.441 913.171 713.661H1055.22C1055.22 709.441 1054.88 705.221 1054.08 701.229C1054.2 700.202 1053.97 699.29 1053.74 698.378Z" fill="url(#paint24_linear)"/>
<path opacity="0.3" d="M982.942 642.604V713.661H985.679V642.604C985.223 642.604 984.767 642.604 984.31 642.604C983.854 642.604 983.398 642.604 982.942 642.604Z" fill="url(#paint25_linear)"/>
<path opacity="0.3" d="M958.203 647.508L975.874 713.547H978.724L960.825 646.482C959.913 646.938 959.001 647.166 958.203 647.508Z" fill="url(#paint26_linear)"/>
<path opacity="0.3" d="M936.998 660.739L967.552 713.661H970.744L939.164 658.914C938.366 659.484 937.682 660.054 936.998 660.739Z" fill="url(#paint27_linear)"/>
<path opacity="0.3" d="M921.949 679.558L956.037 713.547H959.914L923.431 677.049C922.975 677.961 922.405 678.76 921.949 679.558Z" fill="url(#paint28_linear)"/>
<path opacity="0.3" d="M914.425 701.229L935.972 713.661H941.444L914.995 698.377C914.767 699.29 914.539 700.202 914.425 701.229Z" fill="url(#paint29_linear)"/>
<path opacity="0.3" d="M990.011 713.661H992.861L1010.53 647.622C1009.73 647.28 1008.82 646.938 1007.91 646.71L990.011 713.661Z" fill="url(#paint30_linear)"/>
<path opacity="0.3" d="M997.992 713.661H1001.18L1031.74 660.739C1031.05 660.168 1030.37 659.484 1029.57 658.914L997.992 713.661Z" fill="url(#paint31_linear)"/>
<path opacity="0.3" d="M1008.82 713.661H1012.7L1046.79 679.672C1046.33 678.874 1045.87 678.075 1045.42 677.163L1008.82 713.661Z" fill="url(#paint32_linear)"/>
<path opacity="0.3" d="M1027.29 713.661H1032.76L1054.31 701.229C1054.2 700.316 1053.97 699.29 1053.74 698.377L1027.29 713.661Z" fill="url(#paint33_linear)"/>
<path d="M1339 706H43V801.58H1339V706Z" fill="url(#paint34_linear)"/>
<mask id="mask4" mask-type="alpha" maskUnits="userSpaceOnUse" x="43" y="706" width="1296" height="96">
<path d="M1339 706H43V801.58H1339V706Z" fill="url(#paint35_linear)"/>
</mask>
<g mask="url(#mask4)">
<path opacity="0.7" fill-rule="evenodd" clip-rule="evenodd" d="M593.791 744.025C585.187 753.086 576.408 759.265 567.025 758.839C564.698 758.733 562.829 758.254 561.43 757.366C560.001 756.458 559.13 755.165 558.754 753.599C558.386 752.066 558.501 750.313 558.938 748.437C559.376 746.553 560.154 744.482 561.177 742.282C564.923 734.224 572.178 723.992 579.203 714.085L579.203 714.084L579.204 714.084C579.817 713.218 580.429 712.356 581.036 711.497C584.834 706.13 588.475 700.913 591.39 696.215C594.318 691.496 596.458 687.388 597.315 684.223C597.744 682.64 597.823 681.395 597.6 680.466C597.39 679.592 596.904 678.95 596.02 678.516C595.086 678.057 593.656 677.81 591.564 677.929C589.484 678.048 586.837 678.524 583.533 679.425C577.026 681.199 569.777 685.292 561.941 691.133C554.114 696.967 545.76 704.5 537.043 713.091C524.755 725.201 511.797 739.36 498.618 753.761L498.618 753.761L498.617 753.762C493.087 759.805 487.517 765.891 481.942 771.886C463.111 792.134 444.221 811.336 426.669 824.156C409.188 836.925 392.682 843.626 378.784 838.15C371.913 835.444 368.453 831.555 368.041 826.647C367.642 821.885 370.166 816.516 374.295 810.91C382.583 799.654 397.982 786.61 412.933 774.083C413.261 773.809 413.588 773.534 413.916 773.26L414.607 772.681L414.637 772.656C421.548 766.868 428.316 761.2 434.23 755.858C440.638 750.069 445.992 744.708 449.421 740.036C451.136 737.7 452.337 735.58 452.96 733.703C453.581 731.831 453.607 730.273 453.085 728.979C452.564 727.689 451.431 726.497 449.399 725.491C447.359 724.481 444.474 723.691 440.583 723.192C428.21 721.606 412.336 725.338 394.656 732.592C377.006 739.835 357.681 750.534 338.457 762.734C300.01 787.134 262.063 817.475 238.872 837.969L237.548 836.471C260.797 815.925 298.828 785.516 337.385 761.046C356.663 748.811 376.097 738.045 393.897 730.742C411.668 723.45 427.938 719.554 440.837 721.208C444.843 721.722 447.971 722.552 450.287 723.699C452.613 724.851 454.182 726.355 454.939 728.229C455.694 730.1 455.575 732.173 454.858 734.333C454.143 736.486 452.812 738.797 451.034 741.219C447.477 746.064 441.997 751.537 435.571 757.342C429.628 762.71 422.833 768.401 415.93 774.182L415.928 774.184L415.928 774.184L415.905 774.203C415.343 774.673 414.78 775.145 414.217 775.617C399.198 788.2 384.019 801.076 375.905 812.095C371.832 817.626 369.699 822.483 370.034 826.48C370.357 830.33 373.022 833.731 379.517 836.29C392.348 841.344 408.04 835.287 425.49 822.541C442.869 809.847 461.644 790.776 480.478 770.524C486.026 764.558 491.58 758.489 497.102 752.455L497.102 752.455C510.297 738.036 523.312 723.815 535.639 711.667C544.387 703.045 552.815 695.441 560.745 689.53C568.666 683.626 576.149 679.366 583.007 677.495C586.386 676.574 589.181 676.062 591.449 675.933C593.705 675.804 595.529 676.047 596.902 676.721C598.325 677.42 599.197 678.552 599.545 679.999C599.88 681.392 599.715 683.012 599.246 684.746C598.306 688.213 596.028 692.533 593.09 697.269C590.139 702.025 586.465 707.288 582.669 712.653C582.113 713.438 581.554 714.226 580.995 715.015L580.891 715.162L580.869 715.194C573.803 725.16 566.655 735.243 562.99 743.125C562.001 745.252 561.282 747.187 560.886 748.89C560.488 750.6 560.43 752.014 560.699 753.133C560.959 754.218 561.532 755.061 562.502 755.677C563.502 756.312 564.987 756.744 567.115 756.841C575.552 757.225 583.783 751.659 592.341 742.647C599.284 735.336 606.277 725.94 613.624 716.067L613.624 716.067L613.625 716.067L613.629 716.06L613.646 716.038C615.317 713.792 617.007 711.522 618.718 709.246C627.932 696.995 637.76 684.613 648.661 675.295C659.567 665.972 671.637 659.64 685.33 659.64V661.64C672.293 661.64 660.67 667.66 649.96 676.815C639.244 685.976 629.53 698.198 620.317 710.449C618.617 712.709 616.933 714.972 615.263 717.216L615.261 717.218L615.261 717.219C607.91 727.097 600.825 736.617 593.791 744.025ZM979.118 690.721C977.124 687.595 973.504 685.744 967.241 685.939C954.784 686.329 942.887 696.391 931.226 711.694C919.611 726.938 908.459 747.067 897.413 767.032L897.26 767.307L897.259 767.309C886.288 787.138 875.414 806.792 864.346 821.1C858.785 828.29 853.134 834.187 847.348 838.084C841.55 841.989 835.56 843.924 829.373 843.071C823.271 842.229 819.219 839.668 816.888 835.716C814.59 831.818 814.065 826.733 814.618 821.025C815.723 809.619 821.202 795.103 826.757 780.964C827.204 779.825 827.652 778.689 828.098 777.557C833.229 764.538 838.146 752.064 839.686 742.593C840.525 737.432 840.318 733.391 838.803 730.673C837.35 728.067 834.546 726.44 829.51 726.44C824.557 726.44 819.739 728.628 814.95 732.613C810.156 736.601 805.459 742.335 800.774 749.286C792.923 760.937 785.21 775.845 777.19 791.348L777.189 791.349L777.189 791.35C775.632 794.358 774.064 797.389 772.482 800.423C762.765 819.046 752.496 837.763 740.981 851.826C729.48 865.872 716.568 875.48 701.53 875.48C694.101 875.48 689.24 873.546 686.625 869.821C684.041 866.141 683.879 861.019 685.059 855.196C686.246 849.339 688.839 842.537 692.074 835.287C694.814 829.146 698.036 822.636 701.291 816.061L701.292 816.06L701.292 816.06L701.325 815.994C701.904 814.823 702.484 813.65 703.063 812.477C710.782 796.837 718.18 781.207 719.674 769.108C720.418 763.081 719.671 758.107 716.942 754.459C714.223 750.823 709.374 748.289 701.431 747.495C675.854 744.937 649.905 756.128 627.778 771.301C605.669 786.461 587.518 805.501 577.582 818.39L575.998 817.169C586.042 804.139 604.341 784.947 626.647 769.651C648.935 754.368 675.366 742.879 701.63 745.505C709.886 746.331 715.365 749.011 718.544 753.261C721.712 757.497 722.433 763.079 721.659 769.353C720.115 781.858 712.528 797.818 704.857 813.363C704.265 814.563 703.672 815.76 703.08 816.955L703.08 816.956C699.824 823.533 696.623 830.001 693.9 836.102C690.68 843.319 688.161 849.958 687.019 855.593C685.87 861.262 686.163 865.683 688.262 868.672C690.33 871.618 694.38 873.48 701.53 873.48C715.652 873.48 728.052 864.458 739.434 850.559C750.801 836.677 760.985 818.134 770.708 799.497C772.282 796.482 773.844 793.463 775.396 790.462C783.415 774.961 791.193 759.925 799.116 748.169C803.847 741.148 808.668 735.238 813.67 731.075C818.677 726.91 823.933 724.44 829.51 724.44C835.004 724.44 838.63 726.256 840.55 729.699C842.407 733.031 842.517 737.646 841.66 742.914C840.083 752.611 835.084 765.29 829.985 778.225C829.529 779.381 829.073 780.538 828.618 781.696C823.035 795.907 817.681 810.146 816.609 821.218C816.073 826.748 816.625 831.332 818.611 834.7C820.564 838.012 824.004 840.311 829.647 841.089C835.206 841.856 840.706 840.146 846.23 836.425C851.765 832.698 857.264 826.988 862.764 819.877C873.738 805.689 884.552 786.143 895.569 766.233L895.663 766.063C906.689 746.136 917.913 725.866 929.636 710.482C941.313 695.157 953.716 684.361 967.179 683.94C973.876 683.731 978.305 685.728 980.804 689.645C983.24 693.463 983.676 698.872 983.038 705.115C982.396 711.392 980.643 718.719 978.482 726.526C977.401 730.435 976.214 734.477 975.008 738.58L974.953 738.765L974.95 738.776L974.948 738.783C973.761 742.823 972.556 746.921 971.413 751.021C969.088 759.362 967.026 767.679 965.89 775.466C964.753 783.26 964.553 790.458 965.908 796.58C967.258 802.677 970.141 807.682 975.178 811.184C980.238 814.702 987.581 816.78 997.99 816.78V818.78C987.339 818.78 979.546 816.656 974.037 812.827C968.506 808.982 965.391 803.495 963.956 797.012C962.526 790.553 962.757 783.083 963.911 775.177C965.065 767.264 967.155 758.85 969.487 750.484C970.634 746.367 971.843 742.255 973.03 738.216L973.089 738.016C974.296 733.911 975.478 729.884 976.555 725.993C978.71 718.201 980.425 711.011 981.048 704.911C981.676 698.775 981.175 693.946 979.118 690.721ZM1292.17 785.093C1290.3 778.859 1286.38 772.044 1281.16 764.961C1275.94 757.869 1269.39 750.455 1262.21 743.021C1250.25 730.633 1236.48 718.138 1224.15 706.943L1224.15 706.942C1221.69 704.706 1219.28 702.522 1216.96 700.402C1209.97 694.023 1203.74 688.219 1198.94 683.275C1194.09 678.294 1190.82 674.301 1189.61 671.53C1189 670.13 1189.04 669.328 1189.3 668.885C1189.55 668.45 1190.23 667.963 1191.95 667.792C1195.36 667.453 1201.62 668.483 1211.56 671.322L1212.11 669.398C1202.2 666.567 1195.59 665.42 1191.75 665.802C1189.85 665.992 1188.31 666.59 1187.56 667.891C1186.82 669.184 1187.1 670.768 1187.78 672.329C1189.15 675.481 1192.69 679.715 1197.5 684.669C1202.35 689.66 1208.63 695.5 1215.61 701.878C1217.94 704.001 1220.34 706.183 1222.8 708.415L1222.82 708.436C1235.15 719.633 1248.86 732.074 1260.77 744.41C1267.92 751.81 1274.41 759.153 1279.55 766.147C1284.71 773.15 1288.48 779.751 1290.25 785.667C1291.15 788.673 1291.68 791.087 1291.88 792.979C1292.07 794.891 1291.92 796.163 1291.57 796.959C1291.26 797.679 1290.77 798.042 1290.05 798.171C1289.25 798.315 1288.11 798.17 1286.57 797.647C1283.52 796.604 1279.38 794.228 1274.34 790.869C1269.31 787.524 1263.46 783.26 1256.97 778.499C1256.17 777.91 1255.36 777.313 1254.54 776.71C1242.11 767.573 1227.6 756.907 1212.45 747.622C1196.32 737.729 1179.4 729.355 1163.43 726.08C1155.53 724.459 1149.98 723.776 1146.42 723.967C1144.66 724.061 1143.24 724.376 1142.27 725.025C1141.76 725.362 1141.37 725.798 1141.12 726.342C1140.88 726.883 1140.83 727.463 1140.9 728.043C1141.04 729.164 1141.66 730.382 1142.54 731.641C1143.44 732.922 1144.68 734.349 1146.2 735.902C1149.22 739.009 1153.42 742.706 1158.33 746.859C1161.24 749.319 1164.41 751.943 1167.74 754.706C1175.69 761.296 1184.6 768.681 1193.31 776.554C1205.67 787.726 1217.55 799.81 1225.58 811.855C1227.59 814.866 1228.91 817.271 1229.64 819.144C1230.38 821.057 1230.43 822.224 1230.18 822.883C1229.98 823.42 1229.49 823.854 1228.29 824.009C1227.06 824.168 1225.3 823.992 1223.02 823.463C1218.47 822.409 1212.18 820.042 1204.56 816.788C1196.96 813.539 1188.11 809.433 1178.44 804.926L1176.02 803.802C1157.24 795.047 1135.63 784.973 1114.46 776.878C1092.39 768.441 1070.69 762.109 1053.09 761.7C1046.07 761.537 1040.82 762.234 1037.13 763.702C1033.4 765.185 1031.18 767.495 1030.46 770.53C1029.76 773.49 1030.55 776.918 1032.29 780.559C1034.04 784.22 1036.82 788.229 1040.31 792.419C1054.26 809.16 1080.03 829.393 1099.48 842.901L1100.62 841.259C1081.19 827.767 1055.61 807.662 1041.85 791.139C1038.42 787.013 1035.75 783.148 1034.1 779.696C1032.43 776.224 1031.86 773.3 1032.41 770.989C1032.94 768.752 1034.57 766.871 1037.86 765.561C1041.19 764.236 1046.14 763.539 1053.05 763.7C1070.28 764.101 1091.71 770.324 1113.74 778.746C1134.85 786.815 1156.4 796.862 1175.2 805.624L1177.59 806.739C1187.26 811.243 1196.14 815.363 1203.78 818.627C1211.4 821.884 1217.83 824.314 1222.57 825.411C1224.92 825.958 1226.96 826.197 1228.54 825.993C1230.15 825.785 1231.5 825.078 1232.06 823.58C1232.57 822.205 1232.29 820.443 1231.5 818.418C1230.7 816.352 1229.29 813.809 1227.24 810.745C1219.07 798.49 1207.05 786.274 1194.66 775.07C1185.91 767.168 1176.95 759.735 1168.98 753.136L1168.98 753.134C1165.66 750.379 1162.51 747.769 1159.62 745.331C1154.71 741.181 1150.58 737.538 1147.63 734.506C1146.15 732.99 1144.99 731.649 1144.18 730.492C1143.35 729.313 1142.96 728.424 1142.88 727.798C1142.85 727.505 1142.89 727.302 1142.95 727.154C1143.02 727.008 1143.14 726.849 1143.38 726.689C1143.9 726.343 1144.88 726.053 1146.53 725.964C1149.81 725.788 1155.14 726.421 1163.03 728.04C1178.65 731.245 1195.34 739.476 1211.41 749.327C1226.48 758.566 1240.92 769.186 1253.36 778.329L1253.37 778.33C1254.18 778.931 1254.99 779.524 1255.79 780.111C1262.27 784.868 1268.16 789.159 1273.23 792.534C1278.28 795.896 1282.6 798.405 1285.93 799.54C1287.58 800.105 1289.11 800.371 1290.4 800.14C1291.78 799.894 1292.82 799.096 1293.41 797.76C1293.96 796.498 1294.08 794.819 1293.86 792.774C1293.65 790.709 1293.09 788.162 1292.17 785.093Z" fill="url(#paint36_linear)"/>
<path opacity="0.1" d="M431.157 739.448C297.927 739.448 275.557 783.701 40.5698 783.701V853.42H1339V704.38C1053.91 704.38 1090.6 766.584 845.032 766.584C599.459 766.584 546.534 739.448 431.157 739.448Z" fill="url(#paint37_linear)"/>
</g>
<path opacity="0.2" d="M518.507 411.869C632.589 297.787 632.629 112.784 518.598 -1.34713C404.566 -115.478 219.644 -115.519 105.563 -1.43723C-8.51878 112.644 -8.5592 297.647 105.472 411.778C219.504 525.91 404.426 525.95 518.507 411.869Z" fill="url(#paint38_linear)"/>
<path d="M122.438 430.741H127.982V797.347H122.438V430.741Z" fill="#0C5E59"/>
<path d="M86.6076 399.141C100.141 399.141 112.901 408.839 121.795 417.762C115.801 409.227 107.488 398.947 101.108 396.813C90.281 393.322 81.1942 395.068 81.1942 395.068C81.1942 395.068 91.4409 380.714 106.521 387.503C113.288 390.412 118.895 399.917 122.955 409.033C120.635 400.499 119.088 390.412 120.441 381.102C124.115 357.826 150.215 355.886 150.215 355.886C150.215 355.886 135.715 376.059 133.008 399.917C132.621 403.02 132.428 406.124 132.235 409.033C134.555 395.262 139.968 378.774 153.115 370.046C185.788 348.321 206.282 386.727 206.282 386.727C206.282 386.727 187.528 375.089 162.975 387.503C143.641 397.201 135.328 418.344 132.621 426.684C135.908 420.284 149.248 396.425 170.902 392.74C203.382 387.309 211.695 428.624 211.695 428.624C211.695 428.624 193.135 413.689 170.128 414.658C152.341 415.434 139.388 422.805 133.008 428.624C136.295 427.654 143.835 425.909 152.535 425.909C181.342 425.521 187.335 464.12 187.335 464.12L132.621 430.564C134.941 435.025 139.775 444.336 142.481 450.93C146.155 459.853 143.835 479.638 143.835 479.638C143.835 479.638 134.941 464.508 132.428 454.616C129.915 445.111 130.495 435.219 130.881 430.564L93.761 470.715C93.761 470.715 84.6743 446.275 112.515 434.443C116.188 432.891 119.475 431.534 121.988 430.564C115.221 431.534 107.101 434.249 98.7877 439.68C82.5475 450.155 72.3008 464.508 72.3008 464.508C72.3008 464.508 62.2474 434.831 86.9943 423.193C95.1143 419.314 104.394 419.896 112.321 421.641C106.328 418.15 98.5943 415.628 89.1209 416.792C66.6941 419.508 60.5074 435.607 60.5074 435.607C60.5074 435.607 54.1273 398.947 86.6076 399.141Z" fill="url(#paint39_linear)"/>
<path d="M280.375 773.59C277.988 762.607 274.05 752.221 268.8 742.671C268.084 741.358 267.249 739.925 266.414 738.612C260.328 728.465 252.81 719.392 244.099 711.513C243.025 710.439 241.832 709.483 240.639 708.528C231.331 700.769 220.711 694.442 209.256 689.905C207.824 689.308 206.392 688.831 204.96 688.353C193.505 684.295 181.095 682.026 168.327 681.788C167.611 681.788 166.776 681.788 166.06 681.788C165.344 681.788 164.508 681.788 163.792 681.788C150.905 682.026 138.614 684.295 127.159 688.353C125.727 688.831 124.295 689.428 122.863 689.905C111.408 694.442 100.788 700.769 91.4804 708.528C90.2871 709.483 89.0938 710.558 88.0199 711.513C79.309 719.392 71.6721 728.465 65.7058 738.612C64.8705 739.925 64.1545 741.358 63.3192 742.671C58.0688 752.221 54.1311 762.607 51.7445 773.59C51.3866 775.142 51.1479 776.694 50.7899 778.246C49.5966 784.931 49 791.736 49 798.66H283C283 791.736 282.403 784.812 281.21 778.246C280.971 776.694 280.733 775.142 280.375 773.59Z" fill="url(#paint40_linear)"/>
<path fill-rule="evenodd" clip-rule="evenodd" d="M163.793 681.668V798.66H168.327V681.668H166.06H163.793ZM122.864 689.905L151.979 798.779H156.633L127.04 688.353C126.696 688.479 126.344 688.604 125.986 688.731L125.985 688.731L125.985 688.731L125.985 688.731L125.985 688.731L125.985 688.731L125.985 688.731L125.985 688.731C124.976 689.09 123.92 689.465 122.864 689.905ZM138.376 798.66L88.0201 711.513L88.3425 711.226L88.3427 711.226C89.3305 710.346 90.4055 709.389 91.4805 708.528L143.507 798.66H138.376ZM63.3194 742.671L119.403 798.779H125.727L65.5866 738.612C65.2286 739.269 64.8408 739.955 64.453 740.641C64.0652 741.328 63.6774 742.014 63.3194 742.671ZM86.2301 798.66L50.79 778.246C50.9876 777.389 51.1489 776.533 51.3139 775.656L51.3139 775.656C51.4479 774.944 51.5843 774.219 51.7447 773.471L95.299 798.66H86.2301ZM175.367 798.779H180.021L209.137 689.905C207.705 689.308 206.273 688.831 204.841 688.353L175.367 798.779ZM193.744 798.779H188.493L240.639 708.648C241.832 709.603 243.026 710.558 244.1 711.632L193.744 798.779ZM206.273 798.779H212.597L268.681 742.671C267.965 741.358 267.13 739.925 266.294 738.612L206.273 798.779ZM245.89 798.779H236.821L280.375 773.709C280.733 775.261 281.091 776.813 281.33 778.365L245.89 798.779Z" fill="url(#paint41_linear)"/>
<path d="M114.373 683.941C103.404 683.941 99.2904 674.339 99.2904 660.965C99.2904 647.59 95.5197 636.616 80.7799 635.931C61.584 635.245 63.298 653.763 63.298 676.397C63.298 705.203 53.0144 686.685 38.6175 702.803C26.2772 716.52 42.0454 740.869 46.8444 748.07H108.888C110.945 744.298 116.087 735.039 121.914 723.722C134.94 699.716 125.342 683.941 114.373 683.941Z" fill="url(#paint42_linear)"/>
<path opacity="0.2" fill-rule="evenodd" clip-rule="evenodd" d="M84.8935 688.4H81.8086V731.407L68.8495 714.121L66.3813 715.973L81.8086 736.551V748.07H84.8935V715.576L97.966 699.356L95.5644 697.418L84.8935 710.659V688.4Z" fill="white"/>
<path d="M127.056 748.413H35.1895V799.511H127.056V748.413Z" fill="white"/>
<path d="M1334 -3H49V797H1234C1289.23 797 1334 752.228 1334 697V-3Z" fill="url(#paint43_linear)"/>
</g>
<path opacity="0.56" d="M1432.26 556.321C1545.12 443.411 1545.12 260.349 1432.26 147.44C1319.4 34.5309 1136.41 34.531 1023.55 147.44C910.694 260.349 910.694 443.411 1023.55 556.32C1136.41 669.23 1319.4 669.23 1432.26 556.321Z" fill="url(#paint44_linear)"/>
<path opacity="0.2" d="M1084.36 748.553C1166.9 665.977 1166.9 532.094 1084.36 449.518C1001.82 366.941 867.993 366.941 785.452 449.518C702.912 532.094 702.912 665.977 785.452 748.553C867.993 831.129 1001.82 831.13 1084.36 748.553Z" fill="url(#paint45_linear)"/>
<defs>
<linearGradient id="paint0_linear" x1="941.272" y1="1116.08" x2="-44.4885" y2="303.262" gradientUnits="userSpaceOnUse">
<stop stop-color="#FFEDBA"/>
<stop offset="1" stop-color="#EE4D47"/>
</linearGradient>
<linearGradient id="paint1_linear" x1="842" y1="987" x2="-14.5252" y2="255.836" gradientUnits="userSpaceOnUse">
<stop stop-color="#FFEDBA"/>
<stop offset="1" stop-color="#EE4D47"/>
</linearGradient>
<linearGradient id="paint2_linear" x1="914" y1="-215" x2="914" y2="889" gradientUnits="userSpaceOnUse">
<stop stop-color="#F4A984"/>
<stop offset="1" stop-color="#F4A984" stop-opacity="0"/>
</linearGradient>
<linearGradient id="paint3_linear" x1="1147.95" y1="444.562" x2="1147.95" y2="724.313" gradientUnits="userSpaceOnUse">
<stop offset="0.240793" stop-color="#2CA77F"/>
<stop offset="1" stop-color="#1B8877"/>
</linearGradient>
<linearGradient id="paint4_linear" x1="1147.95" y1="444.562" x2="1147.95" y2="724.313" gradientUnits="userSpaceOnUse">
<stop offset="0.240793" stop-color="#2CA77F"/>
<stop offset="1" stop-color="#1B8877"/>
</linearGradient>
<linearGradient id="paint5_linear" x1="1147.95" y1="444.562" x2="1147.95" y2="724.313" gradientUnits="userSpaceOnUse">
<stop offset="0.240793" stop-color="#2CA77F"/>
<stop offset="1" stop-color="#1B8877"/>
</linearGradient>
<linearGradient id="paint6_linear" x1="1154.84" y1="455.726" x2="1154.84" y2="709.866" gradientUnits="userSpaceOnUse">
<stop stop-color="white"/>
<stop offset="1" stop-color="white" stop-opacity="0"/>
</linearGradient>
<linearGradient id="paint7_linear" x1="1265.82" y1="524.679" x2="1265.82" y2="718.403" gradientUnits="userSpaceOnUse">
<stop offset="0.422311" stop-color="#2CA77F"/>
<stop offset="1" stop-color="#1B8877"/>
</linearGradient>
<linearGradient id="paint8_linear" x1="1265.82" y1="524.679" x2="1265.82" y2="718.403" gradientUnits="userSpaceOnUse">
<stop offset="0.422311" stop-color="#2CA77F"/>
<stop offset="1" stop-color="#1B8877"/>
</linearGradient>
<linearGradient id="paint9_linear" x1="1264.84" y1="554.23" x2="1264.84" y2="712.493" gradientUnits="userSpaceOnUse">
<stop stop-color="white"/>
<stop offset="1" stop-color="white" stop-opacity="0"/>
</linearGradient>
<linearGradient id="paint10_linear" x1="959.478" y1="473.457" x2="959.478" y2="765.803" gradientUnits="userSpaceOnUse">
<stop offset="0.422311" stop-color="#2CA77F"/>
<stop offset="1" stop-color="#1B8877"/>
</linearGradient>
<linearGradient id="paint11_linear" x1="959.478" y1="473.457" x2="959.478" y2="765.803" gradientUnits="userSpaceOnUse">
<stop offset="0.422311" stop-color="#2CA77F"/>
<stop offset="1" stop-color="#1B8877"/>
</linearGradient>
<linearGradient id="paint12_linear" x1="951.269" y1="531.897" x2="951.269" y2="739.254" gradientUnits="userSpaceOnUse">
<stop stop-color="white"/>
<stop offset="1" stop-color="white" stop-opacity="0"/>
</linearGradient>
<linearGradient id="paint13_linear" x1="1133.16" y1="528.011" x2="1133.16" y2="587.03" gradientUnits="userSpaceOnUse">
<stop stop-color="#D3D86C"/>
<stop offset="1" stop-color="#82A637"/>
</linearGradient>
<linearGradient id="paint14_linear" x1="1039.59" y1="400.877" x2="1039.59" y2="508.918" gradientUnits="userSpaceOnUse">
<stop stop-color="#D3D86C"/>
<stop offset="1" stop-color="#82A637"/>
</linearGradient>
<linearGradient id="paint15_linear" x1="860.784" y1="565.394" x2="860.784" y2="713.547" gradientUnits="userSpaceOnUse">
<stop stop-color="#D3D86C"/>
<stop offset="1" stop-color="#82A637"/>
</linearGradient>
<linearGradient id="paint16_linear" x1="860.842" y1="601.771" x2="860.842" y2="713.547" gradientUnits="userSpaceOnUse">
<stop stop-color="#084F15" stop-opacity="0"/>
<stop offset="1" stop-color="#084F15"/>
</linearGradient>
<linearGradient id="paint17_linear" x1="835.702" y1="608.158" x2="835.702" y2="713.661" gradientUnits="userSpaceOnUse">
<stop stop-color="#084F15" stop-opacity="0"/>
<stop offset="1" stop-color="#084F15"/>
</linearGradient>
<linearGradient id="paint18_linear" x1="812.787" y1="627.434" x2="812.787" y2="713.547" gradientUnits="userSpaceOnUse">
<stop stop-color="#084F15" stop-opacity="0"/>
<stop offset="1" stop-color="#084F15"/>
</linearGradient>
<linearGradient id="paint19_linear" x1="792.494" y1="656.176" x2="792.494" y2="713.661" gradientUnits="userSpaceOnUse">
<stop stop-color="#084F15" stop-opacity="0"/>
<stop offset="1" stop-color="#084F15"/>
</linearGradient>
<linearGradient id="paint20_linear" x1="771.972" y1="689.481" x2="771.972" y2="713.547" gradientUnits="userSpaceOnUse">
<stop stop-color="#084F15" stop-opacity="0"/>
<stop offset="1" stop-color="#084F15"/>
</linearGradient>
<linearGradient id="paint21_linear" x1="885.866" y1="608.158" x2="885.866" y2="713.661" gradientUnits="userSpaceOnUse">
<stop stop-color="#084F15" stop-opacity="0"/>
<stop offset="1" stop-color="#084F15"/>
</linearGradient>
<linearGradient id="paint22_linear" x1="908.838" y1="627.548" x2="908.838" y2="713.661" gradientUnits="userSpaceOnUse">
<stop stop-color="#084F15" stop-opacity="0"/>
<stop offset="1" stop-color="#084F15"/>
</linearGradient>
<linearGradient id="paint23_linear" x1="929.075" y1="656.176" x2="929.075" y2="713.661" gradientUnits="userSpaceOnUse">
<stop stop-color="#084F15" stop-opacity="0"/>
<stop offset="1" stop-color="#084F15"/>
</linearGradient>
<linearGradient id="paint24_linear" x1="984.197" y1="619.382" x2="984.197" y2="713.661" gradientUnits="userSpaceOnUse">
<stop stop-color="#D3D86C"/>
<stop offset="1" stop-color="#82A637"/>
</linearGradient>
<linearGradient id="paint25_linear" x1="984.31" y1="642.604" x2="984.31" y2="713.661" gradientUnits="userSpaceOnUse">
<stop stop-color="#084F15" stop-opacity="0"/>
<stop offset="1" stop-color="#084F15"/>
</linearGradient>
<linearGradient id="paint26_linear" x1="968.464" y1="646.482" x2="968.464" y2="713.547" gradientUnits="userSpaceOnUse">
<stop stop-color="#084F15" stop-opacity="0"/>
<stop offset="1" stop-color="#084F15"/>
</linearGradient>
<linearGradient id="paint27_linear" x1="953.871" y1="658.914" x2="953.871" y2="713.661" gradientUnits="userSpaceOnUse">
<stop stop-color="#084F15" stop-opacity="0"/>
<stop offset="1" stop-color="#084F15"/>
</linearGradient>
<linearGradient id="paint28_linear" x1="940.931" y1="677.049" x2="940.931" y2="713.547" gradientUnits="userSpaceOnUse">
<stop stop-color="#084F15" stop-opacity="0"/>
<stop offset="1" stop-color="#084F15"/>
</linearGradient>
<linearGradient id="paint29_linear" x1="927.935" y1="698.377" x2="927.935" y2="713.661" gradientUnits="userSpaceOnUse">
<stop stop-color="#084F15" stop-opacity="0"/>
<stop offset="1" stop-color="#084F15"/>
</linearGradient>
<linearGradient id="paint30_linear" x1="1000.27" y1="646.71" x2="1000.27" y2="713.661" gradientUnits="userSpaceOnUse">
<stop stop-color="#084F15" stop-opacity="0"/>
<stop offset="1" stop-color="#084F15"/>
</linearGradient>
<linearGradient id="paint31_linear" x1="1014.87" y1="658.914" x2="1014.87" y2="713.661" gradientUnits="userSpaceOnUse">
<stop stop-color="#084F15" stop-opacity="0"/>
<stop offset="1" stop-color="#084F15"/>
</linearGradient>
<linearGradient id="paint32_linear" x1="1027.8" y1="677.163" x2="1027.8" y2="713.661" gradientUnits="userSpaceOnUse">
<stop stop-color="#084F15" stop-opacity="0"/>
<stop offset="1" stop-color="#084F15"/>
</linearGradient>
<linearGradient id="paint33_linear" x1="1040.8" y1="698.377" x2="1040.8" y2="713.661" gradientUnits="userSpaceOnUse">
<stop stop-color="#084F15" stop-opacity="0"/>
<stop offset="1" stop-color="#084F15"/>
</linearGradient>
<linearGradient id="paint34_linear" x1="368.869" y1="425.786" x2="368.869" y2="894.717" gradientUnits="userSpaceOnUse">
<stop offset="0.278352" stop-color="#EEEF99"/>
<stop offset="0.76976" stop-color="#B9D079"/>
</linearGradient>
<linearGradient id="paint35_linear" x1="368.869" y1="425.786" x2="368.869" y2="894.717" gradientUnits="userSpaceOnUse">
<stop offset="0.278352" stop-color="#EEEF99"/>
<stop offset="0.76976" stop-color="#B9D079"/>
</linearGradient>
<linearGradient id="paint36_linear" x1="765.755" y1="710.737" x2="765.755" y2="923.053" gradientUnits="userSpaceOnUse">
<stop stop-color="white"/>
<stop offset="1" stop-color="white" stop-opacity="0"/>
</linearGradient>
<linearGradient id="paint37_linear" x1="689.785" y1="647.774" x2="689.785" y2="857.992" gradientUnits="userSpaceOnUse">
<stop offset="0.164151" stop-color="#82A637"/>
<stop offset="0.890649" stop-color="#1B8877"/>
</linearGradient>
<linearGradient id="paint38_linear" x1="105.584" y1="-99.4676" x2="105.662" y2="256.265" gradientUnits="userSpaceOnUse">
<stop stop-color="white"/>
<stop offset="1" stop-color="white" stop-opacity="0"/>
</linearGradient>
<linearGradient id="paint39_linear" x1="135.848" y1="315.444" x2="135.848" y2="479.638" gradientUnits="userSpaceOnUse">
<stop stop-color="#D3D86C"/>
<stop offset="1" stop-color="#82A637"/>
</linearGradient>
<linearGradient id="paint40_linear" x1="166" y1="643.593" x2="166" y2="798.66" gradientUnits="userSpaceOnUse">
<stop stop-color="#D3D86C"/>
<stop offset="1" stop-color="#82A637"/>
</linearGradient>
<linearGradient id="paint41_linear" x1="259.075" y1="681.397" x2="259.075" y2="952.894" gradientUnits="userSpaceOnUse">
<stop stop-color="#084F15" stop-opacity="0"/>
<stop offset="1" stop-color="#084F15"/>
</linearGradient>
<linearGradient id="paint42_linear" x1="81.0952" y1="635.912" x2="81.0952" y2="770.859" gradientUnits="userSpaceOnUse">
<stop offset="0.422311" stop-color="#2CA77F"/>
<stop offset="1" stop-color="#1B8877"/>
</linearGradient>
<linearGradient id="paint43_linear" x1="941.272" y1="461" x2="941.272" y2="-231" gradientUnits="userSpaceOnUse">
<stop stop-color="#FFEDBA" stop-opacity="0"/>
<stop offset="1" stop-color="#EB2A24"/>
</linearGradient>
<linearGradient id="paint44_linear" x1="1023.55" y1="50.4384" x2="1023.71" y2="402.438" gradientUnits="userSpaceOnUse">
<stop stop-color="white"/>
<stop offset="1" stop-color="white" stop-opacity="0"/>
</linearGradient>
<linearGradient id="paint45_linear" x1="785.452" y1="378.575" x2="785.565" y2="636.011" gradientUnits="userSpaceOnUse">
<stop stop-color="white"/>
<stop offset="1" stop-color="white" stop-opacity="0"/>
</linearGradient>
</defs>
</svg>
